<svg id="Layer_1" data-name="Layer 1" xmlns="http://www.w3.org/2000/svg" viewBox="0 0 260.81 54.66"><defs><style>.cls-1{fill:none;stroke:#036;stroke-miterlimit:10;stroke-width:0.34px;}.cls-2{fill:#036;}.cls-3{fill:#039be5;}.cls-4{fill:#1e2e57;}</style></defs><line class="cls-1" x1="124.29" y1="33.36" x2="124.29" y2="46.49"/><line class="cls-1" x1="124.29" y1="11.83" x2="124.29" y2="24.78"/><path class="cls-2" d="M124.09,31h-.67v-.42h0a.8.8,0,0,1-.42.39,1.39,1.39,0,0,1-.57.12,1.54,1.54,0,0,1-.67-.13,1.37,1.37,0,0,1-.46-.36A1.42,1.42,0,0,1,121,30a2.32,2.32,0,0,1,0-1.41,1.51,1.51,0,0,1,.31-.51,1.48,1.48,0,0,1,.45-.3,1.52,1.52,0,0,1,.51-.09,1.63,1.63,0,0,1,.31,0,1.11,1.11,0,0,1,.3.08,2.26,2.26,0,0,1,.26.16.83.83,0,0,1,.2.22h0V26.59h.7Zm-2.47-1.54a1.74,1.74,0,0,0,0,.39,1,1,0,0,0,.17.35.81.81,0,0,0,.27.25.84.84,0,0,0,.4.09.78.78,0,0,0,.41-.1.86.86,0,0,0,.28-.26,1.25,1.25,0,0,0,.16-.35,1.92,1.92,0,0,0,0-.41,1.27,1.27,0,0,0-.24-.82.8.8,0,0,0-.65-.29.82.82,0,0,0-.42.1,1,1,0,0,0-.28.26,1.11,1.11,0,0,0-.15.37A1.93,1.93,0,0,0,121.62,29.41Z"/><path class="cls-2" d="M125.18,29.55a1.08,1.08,0,0,0,0,.36.87.87,0,0,0,.16.3.86.86,0,0,0,.26.2.93.93,0,0,0,.39.08.84.84,0,0,0,.5-.13.75.75,0,0,0,.28-.4h.67a1.29,1.29,0,0,1-.52.8,1.56,1.56,0,0,1-.43.21,1.68,1.68,0,0,1-.5.07,1.74,1.74,0,0,1-.67-.12,1.37,1.37,0,0,1-.5-.35,1.48,1.48,0,0,1-.3-.52,2,2,0,0,1-.1-.67,1.69,1.69,0,0,1,.11-.64,1.48,1.48,0,0,1,.31-.53,1.35,1.35,0,0,1,.48-.37,1.65,1.65,0,0,1,1.33,0,1.58,1.58,0,0,1,.5.42,1.63,1.63,0,0,1,.29.59,1.73,1.73,0,0,1,.05.68Zm1.65-.45a1.14,1.14,0,0,0-.07-.32,1.2,1.2,0,0,0-.16-.27,1.14,1.14,0,0,0-.25-.18.72.72,0,0,0-.33-.07.93.93,0,0,0-.34.06.81.81,0,0,0-.26.18.83.83,0,0,0-.17.27.72.72,0,0,0-.07.33Z"/><rect class="cls-2" x="132.9" y="41.99" width="119.72" height="2.15"/><path class="cls-2" d="M155,37.14a6.54,6.54,0,0,0,1.17-3.73,6.68,6.68,0,1,0-2.27,5L155.45,40l1.21-1.24ZM149.5,38a4.15,4.15,0,0,1-3.16-1.29A4.92,4.92,0,0,1,145,33.42a4.54,4.54,0,0,1,4.46-4.71,4.16,4.16,0,0,1,3.4,1.52,4.86,4.86,0,0,1-.19,6.51A4.15,4.15,0,0,1,149.5,38"/><path class="cls-2" d="M194,26.74a6.65,6.65,0,1,0,6.64,6.68A6.6,6.6,0,0,0,194,26.74M194,38a4.23,4.23,0,0,1-3.15-1.29,5,5,0,0,1-1.36-3.31,4.52,4.52,0,0,1,4.45-4.69,4.18,4.18,0,0,1,3.4,1.51,4.84,4.84,0,0,1-.21,6.5A4.17,4.17,0,0,1,194,38"/><rect class="cls-2" x="170.76" y="26.89" width="2.19" height="12.96"/><polygon class="cls-2" points="183.96 39.85 176.84 29.84 176.83 39.85 174.64 39.85 174.64 26.89 176.93 26.89 183.94 36.66 183.94 26.89 186.14 26.89 186.14 39.85 183.96 39.85"/><path class="cls-2" d="M169.06,35.86a3.27,3.27,0,0,1-1.58,2.88,7,7,0,0,1-4.27,1.3c-3.15,0-5.65-1.86-5.65-4.18v-9h2.19v8.68a1.85,1.85,0,0,0,.92,1.78,4.62,4.62,0,0,0,2.68.71,4.67,4.67,0,0,0,2.66-.73,1.68,1.68,0,0,0,.85-1.76V26.9h2.2Z"/><path class="cls-2" d="M207.92,28.74a4.16,4.16,0,0,1,3.4,1.51,6,6,0,0,1,.52.76l0,.08h2.34l-.1-.23a6.64,6.64,0,1,0,0,5.08l.09-.23h-2.34l-.05.08a4.78,4.78,0,0,1-.71,1A4.17,4.17,0,0,1,208,38a4.24,4.24,0,0,1-3.16-1.29,5,5,0,0,1-1.36-3.31,4.52,4.52,0,0,1,4.45-4.69"/><path class="cls-2" d="M225,36.19a4.57,4.57,0,0,1-.45.56A4.19,4.19,0,0,1,221.37,38a4.23,4.23,0,0,1-3.15-1.29,5,5,0,0,1-1.36-3.31,4.52,4.52,0,0,1,4.45-4.69,4.14,4.14,0,0,1,3.39,1.51,3.82,3.82,0,0,1,.31.42l.05.07h2.41l-.11-.24a6.66,6.66,0,0,0-12.65,2.92,6.65,6.65,0,0,0,12.6,2.94l.12-.24H225Z"/><rect class="cls-2" x="228.48" y="26.89" width="2.19" height="12.96"/><polygon class="cls-2" points="244.82 39.85 244.82 26.89 247.01 26.89 247.01 38.12 252.62 38.12 252.62 39.85 244.82 39.85"/><path class="cls-2" d="M235.17,36.12h5.09l1.55,3.73h2.43l-5.49-13h-2.09l-5.47,12.93v0h2.42Zm2.56-6.53,1.72,4.63H236Z"/><polygon class="cls-2" points="132.87 39.84 142.61 39.84 142.61 38.11 135.06 38.11 135.06 34.23 132.87 34.23 132.87 39.84"/><polygon class="cls-2" points="135.06 28.62 142.61 28.62 142.61 26.88 132.87 26.88 132.87 32.5 135.06 32.5 135.06 32.44 135.06 28.62"/><polygon class="cls-3" points="135.06 34.23 141.4 34.23 141.4 32.5 135.06 32.5 135.06 34.18 135.06 34.23"/><rect class="cls-4" x="132.87" y="32.5" width="2.19" height="1.73"/><path class="cls-2" d="M134,22.87c0,1.31,1.24,1.64,2.35,1.64s2-.44,2-1.23-.52-.94-1.36-1.09l-1.66-.27c-.87-.15-2.16-.49-2.16-1.91s1.05-2.22,2.92-2.22c1.46,0,3,.53,3.11,2.29H138c-.09-.57-.41-1.35-2.16-1.35-.8,0-1.7.34-1.7,1.2,0,.44.3.8,1.2,1l1.79.3c.57.11,2.19.38,2.19,1.87,0,1.86-1.66,2.4-3.14,2.4-1.64,0-3.35-.58-3.35-2.59Z"/><polygon class="cls-2" points="140.45 17.97 146.32 17.97 146.32 18.91 141.54 18.91 141.54 21.03 146.18 21.03 146.18 21.97 141.54 21.97 141.54 24.33 146.42 24.33 146.42 25.27 140.45 25.27 140.45 17.97"/><path class="cls-2" d="M151.53,21.34h3.35v3.93h-.78l-.18-1a3.4,3.4,0,0,1-2.8,1.23,3.57,3.57,0,0,1-3.86-3.72,3.64,3.64,0,0,1,3.83-3.95c1.5,0,3.21.47,3.67,2.48h-1.15a2.25,2.25,0,0,0-2.47-1.54,2.66,2.66,0,0,0-2.79,2.92,2.6,2.6,0,0,0,2.84,2.86,2.51,2.51,0,0,0,2.73-2.23h-2.39Z"/><path class="cls-2" d="M156,18h1.09v4.67c0,1.32.87,1.88,2.22,1.88s2.21-.56,2.21-1.88V18h1.08v4.54c0,1.95-1.08,2.95-3.29,2.95s-3.31-1-3.31-2.95Z"/><path class="cls-2" d="M163.66,18h4.52a1.84,1.84,0,0,1,2,2A1.74,1.74,0,0,1,169,21.71v0c.64.09,1,.69,1.06,1.55.06,1.36.1,1.69.35,2h-1.15c-.17-.21-.17-.51-.22-1.39-.07-1.31-.51-1.71-1.41-1.71h-2.83v3.1h-1.09Zm4.11,3.26c1.07,0,1.32-.64,1.32-1.15,0-.7-.42-1.17-1.29-1.17h-3.05v2.32Z"/><path class="cls-2" d="M175,17.79a3.69,3.69,0,0,1,4.06,3.83,4.07,4.07,0,0,1-8.12,0A3.69,3.69,0,0,1,175,17.79m0,.94a2.73,2.73,0,0,0-3,2.89,3,3,0,0,0,5.95,0,2.73,2.73,0,0,0-3-2.89"/><path class="cls-2" d="M180.73,22.87c0,1.31,1.25,1.64,2.35,1.64s2-.44,2-1.23-.52-.94-1.36-1.09L182,21.92c-.87-.15-2.17-.49-2.17-1.91s1.06-2.22,2.93-2.22c1.46,0,3,.53,3.1,2.29h-1.08c-.09-.57-.42-1.35-2.17-1.35-.79,0-1.69.34-1.69,1.2,0,.44.29.8,1.19,1l1.79.3c.57.11,2.2.38,2.2,1.87,0,1.86-1.67,2.4-3.14,2.4-1.65,0-3.35-.58-3.35-2.59Z"/><path class="cls-2" d="M19.05,21.94a5.08,5.08,0,0,0-.45-1.17,3.52,3.52,0,0,0-.75-.92,3.29,3.29,0,0,0-1.07-.6A4.17,4.17,0,0,0,15.35,19a4.21,4.21,0,0,0-2,.47,4,4,0,0,0-1.41,1.26,5.5,5.5,0,0,0-.8,1.79,8.17,8.17,0,0,0,0,4.09,5.6,5.6,0,0,0,.8,1.79,4.09,4.09,0,0,0,1.41,1.26,4.21,4.21,0,0,0,2,.47,3.68,3.68,0,0,0,1.54-.3A3.4,3.4,0,0,0,18,29a4,4,0,0,0,.74-1.22,5.91,5.91,0,0,0,.36-1.49h2.53a6.61,6.61,0,0,1-.57,2.39,5.73,5.73,0,0,1-3.27,3.09,6.84,6.84,0,0,1-2.48.43,7.11,7.11,0,0,1-3-.6A6.5,6.5,0,0,1,10.13,30a7.3,7.3,0,0,1-1.4-2.43,9.07,9.07,0,0,1-.49-3,9,9,0,0,1,.49-2.94,7.3,7.3,0,0,1,1.4-2.43,6.65,6.65,0,0,1,2.24-1.66,7,7,0,0,1,3-.61,8.09,8.09,0,0,1,2.35.33,6.38,6.38,0,0,1,1.95,1,5.14,5.14,0,0,1,2,3.68Z"/><path class="cls-2" d="M28,32.18a5.93,5.93,0,0,1-2.3-.42A5,5,0,0,1,24,30.61,5.11,5.11,0,0,1,23,28.85a6.72,6.72,0,0,1-.36-2.25A6.64,6.64,0,0,1,23,24.37,5.11,5.11,0,0,1,24,22.61a5,5,0,0,1,1.71-1.16,6.63,6.63,0,0,1,4.59,0A4.84,4.84,0,0,1,32,22.61a5,5,0,0,1,1.06,1.76,6.64,6.64,0,0,1,.36,2.23,6.72,6.72,0,0,1-.36,2.25A5,5,0,0,1,32,30.61a4.82,4.82,0,0,1-1.71,1.15A5.88,5.88,0,0,1,28,32.18Zm0-1.84a2.76,2.76,0,0,0,2.33-1.19A3.71,3.71,0,0,0,30.92,28a5.49,5.49,0,0,0,0-2.71,3.66,3.66,0,0,0-.55-1.2,2.92,2.92,0,0,0-1-.85A2.86,2.86,0,0,0,28,22.88a2.8,2.8,0,0,0-1.37.32,2.92,2.92,0,0,0-1,.85,3.66,3.66,0,0,0-.55,1.2,5.19,5.19,0,0,0,0,2.71,3.71,3.71,0,0,0,.55,1.19,2.74,2.74,0,0,0,1,.86A2.7,2.7,0,0,0,28,30.34Z"/><path class="cls-2" d="M34.84,21.32h2.24v1.56l0,0a3.91,3.91,0,0,1,1.42-1.38,3.73,3.73,0,0,1,1.93-.5,4.07,4.07,0,0,1,2.79.9,3.4,3.4,0,0,1,1,2.69v7.26H41.91V25.25a2.86,2.86,0,0,0-.54-1.81,2,2,0,0,0-1.56-.56,2.68,2.68,0,0,0-1.09.21,2.49,2.49,0,0,0-.81.59,3,3,0,0,0-.52.89,3.28,3.28,0,0,0-.18,1.09v6.23H34.84Z"/><path class="cls-2" d="M48,27.21a3.94,3.94,0,0,0,.18,1.19,2.75,2.75,0,0,0,.53,1,2.43,2.43,0,0,0,.89.68,2.86,2.86,0,0,0,1.29.26,2.89,2.89,0,0,0,1.67-.44,2.55,2.55,0,0,0,1-1.32h2.25A4.39,4.39,0,0,1,54,31.25a4.76,4.76,0,0,1-1.45.7,6.12,6.12,0,0,1-1.67.23,5.86,5.86,0,0,1-2.25-.41A4.6,4.6,0,0,1,47,30.63a4.88,4.88,0,0,1-1-1.76,7,7,0,0,1-.34-2.25A6.37,6.37,0,0,1,46,24.48a5.45,5.45,0,0,1,1-1.78A4.93,4.93,0,0,1,50.85,21a4.91,4.91,0,0,1,3.95,1.9,5.57,5.57,0,0,1,1,2,5.72,5.72,0,0,1,.16,2.3Zm5.53-1.53a4,4,0,0,0-.24-1.07,2.87,2.87,0,0,0-.54-.89,2.83,2.83,0,0,0-.83-.61,2.45,2.45,0,0,0-1.09-.23,3,3,0,0,0-1.14.21,2.53,2.53,0,0,0-.87.59,3,3,0,0,0-.58.89A2.9,2.9,0,0,0,48,25.68Z"/><path class="cls-2" d="M64.36,24.86a2.13,2.13,0,0,0-.8-1.48,2.59,2.59,0,0,0-1.65-.5,3.54,3.54,0,0,0-1,.15,2.3,2.3,0,0,0-1,.57,3,3,0,0,0-.73,1.17A5.35,5.35,0,0,0,59,26.72,5.85,5.85,0,0,0,59.11,28a3.58,3.58,0,0,0,.5,1.16,2.54,2.54,0,0,0,2.2,1.15,2.41,2.41,0,0,0,1.71-.63,3,3,0,0,0,.84-1.78h2.37a5.1,5.1,0,0,1-1.59,3.16,4.89,4.89,0,0,1-3.33,1.09,5.56,5.56,0,0,1-2.24-.42,4.66,4.66,0,0,1-2.64-2.87,6.63,6.63,0,0,1-.34-2.17,7.38,7.38,0,0,1,.33-2.23,5,5,0,0,1,1-1.81,4.57,4.57,0,0,1,1.65-1.2A5.55,5.55,0,0,1,61.89,21a6.53,6.53,0,0,1,1.78.23,4.57,4.57,0,0,1,1.49.71,3.67,3.67,0,0,1,1.07,1.18,3.94,3.94,0,0,1,.5,1.7Z"/><path class="cls-2" d="M67,21.32h1.79V18.15h2.37v3.17h2.14v1.74H71.14V28.7a5.85,5.85,0,0,0,0,.64,1,1,0,0,0,.15.45.67.67,0,0,0,.34.27,1.51,1.51,0,0,0,.62.1h.5a2.09,2.09,0,0,0,.5-.08v1.8l-.77.09c-.25,0-.5,0-.77,0a5.11,5.11,0,0,1-1.5-.18,2,2,0,0,1-.9-.51,1.72,1.72,0,0,1-.43-.85,5.67,5.67,0,0,1-.14-1.16V23.06H67Z"/><path class="cls-2" d="M83.37,29.54a1.34,1.34,0,0,0,.11.62.5.5,0,0,0,.45.18h.25a1.35,1.35,0,0,0,.33,0v1.61l-.32.1-.41.09a2.9,2.9,0,0,1-.41.06l-.36,0a2.22,2.22,0,0,1-1.2-.29,1.42,1.42,0,0,1-.63-1,4.16,4.16,0,0,1-1.73,1,6.8,6.8,0,0,1-2,.31A4.91,4.91,0,0,1,76.07,32a3.61,3.61,0,0,1-1.18-.58,2.7,2.7,0,0,1-.81-1,2.93,2.93,0,0,1-.3-1.36,3,3,0,0,1,.37-1.59,2.65,2.65,0,0,1,.95-1,4.16,4.16,0,0,1,1.33-.5,12.49,12.49,0,0,1,1.49-.24,11.67,11.67,0,0,1,1.23-.17,6.85,6.85,0,0,0,1-.18,1.57,1.57,0,0,0,.7-.38,1,1,0,0,0,.26-.76,1.16,1.16,0,0,0-.22-.74,1.37,1.37,0,0,0-.54-.44,2.25,2.25,0,0,0-.71-.2,5.05,5.05,0,0,0-.75-.05,2.91,2.91,0,0,0-1.64.41,1.56,1.56,0,0,0-.73,1.26H74.18a3.34,3.34,0,0,1,.5-1.69,3.4,3.4,0,0,1,1.11-1.09,4.67,4.67,0,0,1,1.53-.57A9.08,9.08,0,0,1,79.06,21a7.37,7.37,0,0,1,1.56.16,4.62,4.62,0,0,1,1.39.53,3.07,3.07,0,0,1,1,.95,2.57,2.57,0,0,1,.38,1.42ZM81,26.6a3,3,0,0,1-1.33.42c-.53,0-1.06.12-1.58.21a4.33,4.33,0,0,0-.73.18,2,2,0,0,0-.63.3,1.31,1.31,0,0,0-.42.51,1.68,1.68,0,0,0-.16.77,1,1,0,0,0,.23.65,1.62,1.62,0,0,0,.55.42,2.35,2.35,0,0,0,.71.22,4.62,4.62,0,0,0,.7.06,3.84,3.84,0,0,0,.85-.1,3.05,3.05,0,0,0,.86-.35,2.24,2.24,0,0,0,.68-.62,1.59,1.59,0,0,0,.27-.93Z"/><path class="cls-2" d="M95.45,31.89H93.2V30.46h0a2.74,2.74,0,0,1-1.39,1.32,4.75,4.75,0,0,1-1.94.4,5.25,5.25,0,0,1-2.21-.44,4.36,4.36,0,0,1-1.57-1.2,5.06,5.06,0,0,1-.94-1.78,7.94,7.94,0,0,1-.31-2.22,6.86,6.86,0,0,1,.4-2.48,4.9,4.9,0,0,1,1-1.72,4,4,0,0,1,1.49-1A4.92,4.92,0,0,1,89.46,21a6,6,0,0,1,1,.09,4.79,4.79,0,0,1,1,.29,3.75,3.75,0,0,1,.88.53,3,3,0,0,1,.68.74h0v-5.4h2.37Zm-8.28-5.17a5,5,0,0,0,.18,1.33,3.8,3.8,0,0,0,.54,1.17,2.6,2.6,0,0,0,.93.81,2.64,2.64,0,0,0,1.33.31A2.69,2.69,0,0,0,91.51,30a2.65,2.65,0,0,0,.93-.86A3.49,3.49,0,0,0,93,28a5.24,5.24,0,0,0,.18-1.36,4.24,4.24,0,0,0-.8-2.74,2.63,2.63,0,0,0-2.17-1,2.8,2.8,0,0,0-1.41.33,2.9,2.9,0,0,0-.93.88,3.57,3.57,0,0,0-.52,1.23A6,6,0,0,0,87.17,26.72Z"/><path class="cls-2" d="M102.33,32.18a6,6,0,0,1-2.3-.42,4.77,4.77,0,0,1-2.76-2.91,6.48,6.48,0,0,1-.37-2.25,6.4,6.4,0,0,1,.37-2.23,4.82,4.82,0,0,1,1.06-1.76,4.89,4.89,0,0,1,1.7-1.16,6.66,6.66,0,0,1,4.6,0,4.89,4.89,0,0,1,1.7,1.16,4.82,4.82,0,0,1,1.06,1.76,6.4,6.4,0,0,1,.37,2.23,6.48,6.48,0,0,1-.37,2.25,4.77,4.77,0,0,1-2.76,2.91A5.93,5.93,0,0,1,102.33,32.18Zm0-1.84a2.76,2.76,0,0,0,2.33-1.19,3.71,3.71,0,0,0,.55-1.19,5.19,5.19,0,0,0,0-2.71,3.66,3.66,0,0,0-.55-1.2,2.92,2.92,0,0,0-1-.85,3.09,3.09,0,0,0-2.74,0,2.92,2.92,0,0,0-1,.85,3.66,3.66,0,0,0-.55,1.2,5.19,5.19,0,0,0,0,2.71,3.71,3.71,0,0,0,.55,1.19,2.76,2.76,0,0,0,2.33,1.19Z"/><path class="cls-3" d="M28.27,8.17l4.27,10.64H30.93l-1.19-3.2H25.12l-1.22,3.2H22.41L26.67,8.17Zm1,6.25-1.82-5h0l-1.85,5Z"/><path class="cls-3" d="M38.26,18.81V17.59h0a2.71,2.71,0,0,1-1,1.05,3.31,3.31,0,0,1-1.52.33,3.52,3.52,0,0,1-1.3-.2,2,2,0,0,1-.84-.57,2.09,2.09,0,0,1-.45-.89,4.47,4.47,0,0,1-.13-1.14V11.11h1.3v5.21a1.47,1.47,0,0,0,.43,1.13,1.58,1.58,0,0,0,1.17.42,2.73,2.73,0,0,0,1-.18,2,2,0,0,0,.72-.5,2.18,2.18,0,0,0,.44-.77,2.93,2.93,0,0,0,.15-1V11.11h1.3v7.7Z"/><path class="cls-3" d="M44.67,11.11v1.12H43.1V17a1.56,1.56,0,0,0,0,.35.41.41,0,0,0,.15.21.59.59,0,0,0,.3.1,3.55,3.55,0,0,0,.5,0h.59v1.12h-1a4.37,4.37,0,0,1-.87-.07,1.23,1.23,0,0,1-.58-.24A1,1,0,0,1,41.9,18a2.94,2.94,0,0,1-.1-.86v-4.9H40.45V11.11H41.8V8.8h1.3v2.31Z"/><path class="cls-3" d="M45.79,13.38a3.6,3.6,0,0,1,.73-1.28,3.55,3.55,0,0,1,1.21-.86,4.08,4.08,0,0,1,1.65-.31,4,4,0,0,1,1.66.31,3.42,3.42,0,0,1,1.2.86A3.47,3.47,0,0,1,53,13.38a5.35,5.35,0,0,1,0,3.17,3.51,3.51,0,0,1-.74,1.27,3.39,3.39,0,0,1-1.2.85,4.21,4.21,0,0,1-1.66.3,4.26,4.26,0,0,1-1.65-.3,3.53,3.53,0,0,1-1.21-.85,3.64,3.64,0,0,1-.73-1.27,5.15,5.15,0,0,1,0-3.17Zm1.32,2.83a2.54,2.54,0,0,0,.53.91,2.32,2.32,0,0,0,.79.56,2.5,2.5,0,0,0,1.91,0,2.42,2.42,0,0,0,.79-.56,2.7,2.7,0,0,0,.53-.91A3.94,3.94,0,0,0,51.85,15a4,4,0,0,0-.19-1.25,2.8,2.8,0,0,0-.53-.91,2.31,2.31,0,0,0-.79-.57,2.5,2.5,0,0,0-1.91,0,2.22,2.22,0,0,0-.79.57,2.63,2.63,0,0,0-.53.91A3.73,3.73,0,0,0,46.92,15,3.67,3.67,0,0,0,47.11,16.21Z"/><rect class="cls-2" x="8.19" y="42.09" width="107.48" height="2.13"/><path class="cls-3" d="M114.77,23.62a.89.89,0,0,1-.87-.7,9.8,9.8,0,0,0-10.84-7.56.89.89,0,1,1-.23-1.76,11.55,11.55,0,0,1,12.8,8.93A.89.89,0,0,1,115,23.6l-.19,0"/><path class="cls-3" d="M111,25.13a.9.9,0,0,1-.87-.69,7,7,0,0,0-7.8-5.44.89.89,0,0,1-.23-1.77,8.84,8.84,0,0,1,9.77,6.82.88.88,0,0,1-.67,1.06.68.68,0,0,1-.2,0"/><path class="cls-3" d="M61.88,37.55a1.55,1.55,0,0,0,.14.68,1.19,1.19,0,0,0,.38.45,1.64,1.64,0,0,0,.57.26,2.63,2.63,0,0,0,.7.09,2,2,0,0,0,.69-.1,1.29,1.29,0,0,0,.47-.23,1,1,0,0,0,.26-.33,1.08,1.08,0,0,0,.08-.38A.83.83,0,0,0,65,37.4a1,1,0,0,0-.4-.26,8.43,8.43,0,0,0-.87-.26l-1.24-.31a2.93,2.93,0,0,1-.75-.3,2,2,0,0,1-.48-.42,1.55,1.55,0,0,1-.26-.49,2.41,2.41,0,0,1-.07-.53,1.72,1.72,0,0,1,.22-.9,2,2,0,0,1,.59-.64,2.84,2.84,0,0,1,.83-.37,3.79,3.79,0,0,1,.94-.12,4,4,0,0,1,1.05.14,3,3,0,0,1,.86.42,2.17,2.17,0,0,1,.59.69,2,2,0,0,1,.21,1H65a1.17,1.17,0,0,0-.47-.94,1.89,1.89,0,0,0-1.06-.27,2.25,2.25,0,0,0-.44,0,1.88,1.88,0,0,0-.42.14.92.92,0,0,0-.31.28.73.73,0,0,0-.12.43.69.69,0,0,0,.23.57,1.47,1.47,0,0,0,.61.32l.31.08.61.16.66.17.46.12a1.86,1.86,0,0,1,.6.29,1.72,1.72,0,0,1,.43.42,1.59,1.59,0,0,1,.26.5,2,2,0,0,1,.08.54,1.91,1.91,0,0,1-.24,1,2,2,0,0,1-.64.67,2.81,2.81,0,0,1-.9.38,4.46,4.46,0,0,1-1,.12,4.24,4.24,0,0,1-1.14-.15,2.66,2.66,0,0,1-.93-.44,2.23,2.23,0,0,1-.63-.76,2.56,2.56,0,0,1-.25-1.11Z"/><path class="cls-3" d="M67.37,33h1.74l2,5.38h0L73,33H74.7v6.88H73.53V34.54h0l-2,5.31h-1l-2-5.31h0v5.31H67.37Z"/><path class="cls-3" d="M78,33H79.3L82,39.85H80.7L80,38H77.22l-.67,1.83H75.28Zm-.44,4.14h2.16l-1.06-3h0Z"/><path class="cls-3" d="M82.61,33H86a2.65,2.65,0,0,1,1.75.49,1.69,1.69,0,0,1,.59,1.37,1.92,1.92,0,0,1-.15.81,1.75,1.75,0,0,1-.35.52,1.19,1.19,0,0,1-.39.28l-.28.12v0a.93.93,0,0,1,.34.1,1,1,0,0,1,.34.24,1.12,1.12,0,0,1,.26.44,1.84,1.84,0,0,1,.11.67,6.23,6.23,0,0,0,.09,1.11,1.58,1.58,0,0,0,.29.71H87.26a1.09,1.09,0,0,1-.16-.5,4.67,4.67,0,0,1,0-.52A4.79,4.79,0,0,0,87,38a1.34,1.34,0,0,0-.22-.57.89.89,0,0,0-.43-.33,1.92,1.92,0,0,0-.69-.11H83.85v2.84H82.61Zm1.24,3.13h2a1.26,1.26,0,0,0,.9-.28,1,1,0,0,0,.31-.82,1.21,1.21,0,0,0-.1-.54.84.84,0,0,0-.27-.32,1.07,1.07,0,0,0-.4-.15,2.25,2.25,0,0,0-.46,0h-2Z"/><path class="cls-3" d="M88.63,33h5.72v1H92.11v5.84H90.87V34H88.63Z"/><path class="cls-3" d="M96.06,33h1.32l2.72,6.88H98.78L98.11,38H95.29l-.66,1.83H93.35Zm-.43,4.14h2.16l-1.06-3h0Z"/><path class="cls-3" d="M106.85,39.85h-.79l-.19-.81a3,3,0,0,1-1,.76,2.9,2.9,0,0,1-1.14.21,3.4,3.4,0,0,1-1.42-.29,2.93,2.93,0,0,1-1.06-.77,3.55,3.55,0,0,1-.67-1.15,4.22,4.22,0,0,1-.23-1.39,4.27,4.27,0,0,1,.23-1.39,3.55,3.55,0,0,1,.67-1.15,3.08,3.08,0,0,1,1.06-.78,3.4,3.4,0,0,1,1.42-.29,4,4,0,0,1,1.1.15,2.92,2.92,0,0,1,.92.45,2.47,2.47,0,0,1,.67.73,2.62,2.62,0,0,1,.34,1h-1.21a1.44,1.44,0,0,0-.21-.59,1.68,1.68,0,0,0-.41-.43,2.05,2.05,0,0,0-.56-.26,2.2,2.2,0,0,0-.64-.08,2,2,0,0,0-1,.22,1.83,1.83,0,0,0-.67.59,2.67,2.67,0,0,0-.38.84,3.65,3.65,0,0,0,0,1.93,2.58,2.58,0,0,0,.38.84,1.74,1.74,0,0,0,.67.59,2,2,0,0,0,1,.23,2.66,2.66,0,0,0,.84-.12,1.75,1.75,0,0,0,.62-.38,1.44,1.44,0,0,0,.38-.6,2.47,2.47,0,0,0,.14-.79h-1.88v-.92h3Z"/></svg>