<svg width="187" height="25" viewBox="0 0 187 25" fill="none" xmlns="http://www.w3.org/2000/svg">
<g clip-path="url(#clip0_297_1345)">
<path d="M9.18292 11.7116C9.08795 11.3538 8.96377 11.0253 8.79577 10.726C8.62776 10.4266 8.42322 10.1711 8.16025 9.95208C7.90459 9.73305 7.59779 9.56513 7.25447 9.44101C6.91114 9.3169 6.50938 9.25849 6.04919 9.25849C5.38446 9.25849 4.80738 9.38991 4.31796 9.65274C3.83585 9.91557 3.43409 10.2733 3.1346 10.7114C2.8278 11.1567 2.60135 11.6605 2.45526 12.2227C2.30916 12.7848 2.23612 13.3616 2.23612 13.9457C2.23612 14.5297 2.30916 15.1065 2.45526 15.6687C2.60135 16.2308 2.8278 16.7346 3.1346 17.18C3.4414 17.6253 3.83585 17.9758 4.31796 18.2386C4.80738 18.5014 5.38446 18.6328 6.04919 18.6328C6.5386 18.6328 6.97689 18.5525 7.34943 18.3846C7.72197 18.2167 8.04338 17.9904 8.31365 17.691C8.58393 17.399 8.79577 17.0558 8.94916 16.6616C9.10256 16.2673 9.19753 15.8512 9.24866 15.3985H11.3889C11.3451 16.1359 11.1771 16.8076 10.9068 17.4209C10.6293 18.0342 10.264 18.5598 9.78921 18.9979C9.32171 19.4432 8.77385 19.7864 8.13834 20.0273C7.50283 20.2682 6.80888 20.3924 6.04919 20.3924C5.11418 20.3924 4.27414 20.2244 3.52905 19.8813C2.78397 19.5454 2.15576 19.0782 1.64443 18.4941C1.1258 17.91 0.731342 17.2238 0.461067 16.4426C0.183487 15.6614 0.052002 14.8291 0.052002 13.9384C0.052002 13.0623 0.190792 12.2373 0.461067 11.4561C0.738647 10.6749 1.1331 9.98858 1.64443 9.40451C2.16307 8.82044 2.79128 8.35318 3.52905 8.00274C4.27414 7.6596 5.11418 7.48438 6.04919 7.48438C6.75044 7.48438 7.41517 7.57929 8.03607 7.76911C8.65698 7.95893 9.20483 8.23637 9.67964 8.60141C10.1544 8.96646 10.5343 9.40451 10.8265 9.92287C11.1187 10.4412 11.3013 11.0326 11.3743 11.7043H9.18292V11.7116Z" fill="#174282"/>
<path d="M16.7516 20.3625C16.0284 20.3625 15.3783 20.2457 14.8085 20.0121C14.2387 19.7785 13.7566 19.4499 13.3695 19.0338C12.9823 18.6176 12.6755 18.1285 12.471 17.5517C12.2665 16.9749 12.1642 16.3397 12.1642 15.6535C12.1642 14.9745 12.2665 14.3466 12.471 13.7698C12.6755 13.1931 12.975 12.6966 13.3695 12.2877C13.7639 11.8789 14.2387 11.5504 14.8085 11.3094C15.3783 11.0758 16.0211 10.959 16.7516 10.959C17.4747 10.959 18.1248 11.0758 18.6946 11.3094C19.2644 11.5431 19.7392 11.8716 20.1336 12.2877C20.5281 12.7039 20.8276 13.2004 21.0321 13.7698C21.2367 14.3466 21.3389 14.9745 21.3389 15.6535C21.3389 16.347 21.2367 16.9749 21.0321 17.5517C20.8276 18.1285 20.5281 18.6249 20.1336 19.0338C19.7392 19.4499 19.2644 19.7712 18.6946 20.0121C18.1248 20.2457 17.4747 20.3625 16.7516 20.3625ZM16.7516 18.8074C17.1971 18.8074 17.5843 18.7125 17.913 18.53C18.2417 18.3475 18.512 18.1066 18.7238 17.8072C18.9357 17.5079 19.0891 17.172 19.1913 16.7997C19.2863 16.4274 19.3374 16.0404 19.3374 15.6535C19.3374 15.2738 19.2863 14.8942 19.1913 14.5145C19.0891 14.1349 18.9357 13.799 18.7238 13.507C18.512 13.215 18.2417 12.974 17.913 12.7915C17.577 12.5944 17.1898 12.5068 16.7516 12.5068C16.306 12.5068 15.9188 12.6017 15.5901 12.7842C15.2614 12.9667 14.9911 13.2077 14.7793 13.4997C14.5674 13.7917 14.414 14.1276 14.3118 14.5072C14.2095 14.8869 14.1657 15.2665 14.1657 15.6462C14.1657 16.0404 14.2168 16.4201 14.3118 16.7924C14.414 17.1647 14.5674 17.5006 14.7793 17.7999C14.9911 18.0993 15.2614 18.3402 15.5901 18.5227C15.9188 18.7125 16.306 18.8074 16.7516 18.8074Z" fill="#174282"/>
<path d="M22.4701 11.1941H24.3693V12.5082L24.4058 12.5447C24.7126 12.0483 25.1071 11.6613 25.5965 11.3766C26.0859 11.0918 26.6338 10.9531 27.2328 10.9531C28.2262 10.9531 29.0151 11.2087 29.5849 11.7124C30.162 12.2162 30.4469 12.9755 30.4469 13.9903V20.1157H28.4454V14.5087C28.4234 13.8078 28.2701 13.2967 27.9925 12.9828C27.7149 12.6688 27.2693 12.5082 26.6776 12.5082C26.3343 12.5082 26.0348 12.5666 25.7645 12.6907C25.4943 12.8149 25.2678 12.9755 25.0779 13.1945C24.888 13.4062 24.7419 13.6545 24.6396 13.9465C24.5373 14.2312 24.4789 14.5379 24.4789 14.8591V20.123H22.4774V11.1941H22.4701Z" fill="#174282"/>
<path d="M33.5881 16.1655C33.5881 16.5086 33.6393 16.8444 33.7415 17.1657C33.8365 17.4869 33.9899 17.7716 34.1871 18.0126C34.3844 18.2535 34.64 18.4506 34.9395 18.5893C35.2463 18.7354 35.6043 18.8084 36.0279 18.8084C36.6123 18.8084 37.0871 18.6843 37.445 18.436C37.803 18.1878 38.0659 17.8155 38.2413 17.319H40.1405C40.0382 17.8009 39.8556 18.2316 39.5926 18.6112C39.337 18.9909 39.0229 19.3121 38.6649 19.5677C38.2997 19.8232 37.8979 20.0203 37.445 20.1517C36.9922 20.2832 36.5246 20.3489 36.0279 20.3489C35.3121 20.3489 34.6839 20.232 34.1287 20.0057C33.5808 19.7794 33.1133 19.4509 32.7335 19.042C32.3536 18.6332 32.0688 18.1294 31.8715 17.5599C31.6816 16.9832 31.5793 16.3553 31.5793 15.6617C31.5793 15.0265 31.6816 14.4278 31.8861 13.8584C32.0907 13.2889 32.3829 12.7851 32.7627 12.3544C33.1426 11.9236 33.6028 11.5805 34.1433 11.325C34.6839 11.0694 35.2902 10.9453 35.9695 10.9453C36.6854 10.9453 37.3282 11.0913 37.8906 11.3834C38.4531 11.6754 38.9279 12.0623 39.3078 12.5515C39.6803 13.0334 39.9506 13.5882 40.1259 14.2161C40.2939 14.844 40.3377 15.4938 40.2574 16.1581H33.5881V16.1655ZM38.2632 14.8732C38.2413 14.5593 38.1755 14.2672 38.0586 13.9752C37.9491 13.6904 37.7957 13.4349 37.6057 13.2232C37.4085 13.0115 37.1748 12.8362 36.9045 12.7048C36.6269 12.5734 36.3201 12.5077 35.9841 12.5077C35.6335 12.5077 35.3121 12.5661 35.0272 12.6902C34.7423 12.8143 34.4939 12.975 34.2894 13.194C34.0849 13.4057 33.9242 13.6539 33.8 13.946C33.6758 14.2307 33.6101 14.5447 33.5955 14.8805H38.2632V14.8732Z" fill="#174282"/>
<path d="M47.3929 14.1787C47.3126 13.6238 47.0861 13.2077 46.7136 12.9302C46.3484 12.6455 45.8809 12.5068 45.3184 12.5068C45.0627 12.5068 44.7852 12.5506 44.493 12.6382C44.2008 12.7258 43.9305 12.8864 43.6821 13.12C43.4338 13.3537 43.2292 13.6822 43.0685 14.1057C42.9078 14.5291 42.8202 15.0767 42.8202 15.7557C42.8202 16.1207 42.864 16.4931 42.9517 16.8581C43.0393 17.2231 43.1781 17.5517 43.3753 17.8437C43.5653 18.1285 43.8136 18.3621 44.1204 18.5446C44.4272 18.7198 44.7925 18.8147 45.2234 18.8147C45.8078 18.8147 46.2899 18.6395 46.6698 18.2818C47.0496 17.924 47.2834 17.4276 47.3783 16.7778H49.3798C49.1899 17.9386 48.7443 18.8293 48.0358 19.4426C47.3272 20.0559 46.3849 20.3698 45.2161 20.3698C44.5003 20.3698 43.8721 20.253 43.3315 20.0194C42.7837 19.7858 42.3235 19.4645 41.9509 19.0557C41.5784 18.6468 41.2935 18.1577 41.0963 17.5955C40.899 17.0333 40.8041 16.4201 40.8041 15.763C40.8041 15.0986 40.899 14.4707 41.0817 13.8793C41.2716 13.2953 41.5492 12.7842 41.9217 12.3535C42.2942 11.9227 42.7617 11.5796 43.3169 11.3313C43.8721 11.0831 44.5222 10.959 45.2746 10.959C45.8005 10.959 46.3045 11.0247 46.7793 11.1561C47.2542 11.2875 47.6778 11.4846 48.0431 11.7548C48.4156 12.0176 48.7151 12.3535 48.9488 12.755C49.1826 13.1566 49.3214 13.6384 49.3725 14.186H47.3929V14.1787Z" fill="#174282"/>
<path d="M49.5865 11.1931H51.0986V8.51367H53.1001V11.1931H54.9117V12.6606H53.1001V17.4281C53.1001 17.6325 53.1074 17.815 53.1293 17.961C53.144 18.1143 53.1878 18.2385 53.2535 18.3407C53.3193 18.4429 53.4142 18.5232 53.5457 18.5743C53.6772 18.6254 53.8525 18.6546 54.0716 18.6546C54.2104 18.6546 54.3492 18.6546 54.4953 18.6473C54.6341 18.64 54.7729 18.6181 54.919 18.5889V20.1075C54.6999 20.1294 54.4807 20.1513 54.2689 20.1732C54.057 20.1951 53.8452 20.2097 53.6188 20.2097C53.0928 20.2097 52.6691 20.1586 52.3477 20.0637C52.0263 19.9688 51.7707 19.8228 51.5953 19.6329C51.42 19.4431 51.2885 19.2022 51.2301 18.9174C51.1644 18.6327 51.1278 18.3042 51.1132 17.9318V12.6679H49.6012V11.1931H49.5865Z" fill="#174282"/>
<path d="M63.4286 18.1363C63.4286 18.3772 63.4578 18.5524 63.5236 18.6546C63.5893 18.7568 63.7135 18.808 63.9034 18.808C63.9618 18.808 64.0349 18.808 64.1152 18.808C64.1956 18.808 64.2906 18.7934 64.3928 18.7714V20.1367C64.3198 20.1586 64.2321 20.1878 64.1225 20.217C64.013 20.2462 63.8961 20.2681 63.7792 20.2973C63.6624 20.3192 63.5455 20.3411 63.4286 20.3484C63.3117 20.363 63.2095 20.363 63.1291 20.363C62.72 20.363 62.3767 20.2827 62.1137 20.1221C61.8435 19.9615 61.6682 19.6768 61.5878 19.2752C61.1934 19.6549 60.7039 19.9323 60.1196 20.1075C59.5425 20.2827 58.98 20.363 58.4468 20.363C58.0377 20.363 57.6433 20.3046 57.2707 20.2024C56.8982 20.0929 56.5622 19.9323 56.2773 19.7206C55.9924 19.5088 55.7586 19.2387 55.5906 18.9102C55.4226 18.5816 55.335 18.202 55.335 17.7639C55.335 17.2091 55.4372 16.7637 55.6418 16.4206C55.8463 16.0774 56.1166 15.8073 56.4526 15.6102C56.7886 15.413 57.1611 15.2743 57.5775 15.1867C57.9939 15.0991 58.4103 15.0334 58.8339 14.9896C59.1992 14.9239 59.5425 14.8728 59.8712 14.8436C60.1999 14.8144 60.4848 14.7633 60.7405 14.6976C60.9888 14.6318 61.1934 14.5223 61.3394 14.3763C61.4855 14.2303 61.5586 14.0186 61.5586 13.7265C61.5586 13.471 61.5001 13.2666 61.376 13.106C61.2518 12.9453 61.0984 12.8212 60.9231 12.7336C60.7405 12.646 60.5359 12.5876 60.3168 12.5584C60.0976 12.5292 59.8858 12.5146 59.6813 12.5146C59.1188 12.5146 58.6586 12.6314 58.2934 12.8577C57.9281 13.0914 57.7236 13.4418 57.6798 13.931H55.6637C55.7002 13.3542 55.839 12.8796 56.0873 12.5C56.3357 12.1203 56.6498 11.8137 57.0297 11.5874C57.4095 11.361 57.8405 11.1931 58.3226 11.1055C58.8047 11.0106 59.2941 10.9668 59.7982 10.9668C60.2437 10.9668 60.682 11.0106 61.113 11.1055C61.544 11.2004 61.9311 11.3464 62.2818 11.5582C62.6251 11.7626 62.9027 12.0327 63.1145 12.3613C63.3263 12.6898 63.4286 13.0914 63.4286 13.5586V18.1363ZM61.4271 15.6467C61.1203 15.8438 60.7478 15.9606 60.3022 15.9971C59.8566 16.0409 59.411 16.0993 58.9654 16.1796C58.7536 16.2161 58.549 16.2599 58.3518 16.3257C58.1546 16.3914 57.9793 16.479 57.8259 16.5812C57.6725 16.6907 57.5556 16.8367 57.4679 17.0119C57.3803 17.1872 57.3365 17.4062 57.3365 17.6617C57.3365 17.8807 57.4022 18.0633 57.5264 18.2166C57.6579 18.3699 57.8113 18.4867 57.9939 18.567C58.1765 18.6546 58.3737 18.713 58.5929 18.7495C58.812 18.7861 59.0092 18.8007 59.1846 18.8007C59.4037 18.8007 59.6448 18.7715 59.9077 18.713C60.1634 18.6546 60.4117 18.5597 60.6382 18.421C60.8646 18.2823 61.0546 18.1071 61.208 17.8953C61.3614 17.6836 61.4344 17.4208 61.4344 17.1068V15.6467H61.4271Z" fill="#174282"/>
<path d="M73.6114 20.1217H71.7121V18.9098H71.6756C71.4053 19.4281 71.0109 19.8005 70.4996 20.0268C69.9809 20.2531 69.4404 20.3626 68.8633 20.3626C68.1474 20.3626 67.5265 20.2385 66.9933 19.9903C66.46 19.7421 66.0218 19.4062 65.6638 18.9828C65.3132 18.5593 65.0502 18.0556 64.8749 17.4715C64.6996 16.8874 64.6119 16.2668 64.6119 15.5952C64.6119 14.7921 64.7215 14.0912 64.948 13.5071C65.1671 12.923 65.4666 12.4339 65.8318 12.0542C66.1971 11.6746 66.6207 11.3971 67.0955 11.2146C67.5704 11.0394 68.0525 10.9445 68.5419 10.9445C68.8195 10.9445 69.1117 10.9737 69.4038 11.0248C69.696 11.0759 69.9809 11.1635 70.2439 11.273C70.5142 11.3898 70.7625 11.5359 70.989 11.7111C71.2154 11.8863 71.4053 12.098 71.5587 12.339H71.5953V7.7832H73.5968V20.1217H73.6114ZM66.6207 15.7485C66.6207 16.1281 66.6719 16.5005 66.7668 16.8728C66.8691 17.2379 67.0152 17.5664 67.2197 17.8584C67.4243 18.1505 67.6872 18.3768 68.0013 18.552C68.3154 18.7272 68.6953 18.8075 69.1263 18.8075C69.5719 18.8075 69.9517 18.7126 70.2731 18.5301C70.5945 18.3476 70.8575 18.1067 71.062 17.8073C71.2665 17.508 71.42 17.1721 71.5149 16.7998C71.6172 16.4275 71.6683 16.0405 71.6683 15.6536C71.6683 14.6606 71.4419 13.894 70.989 13.3392C70.5507 12.7843 69.9444 12.5069 69.1701 12.5069C68.7026 12.5069 68.3081 12.6018 67.9867 12.7916C67.6653 12.9814 67.4023 13.2297 67.1978 13.5363C66.9933 13.8429 66.8472 14.1861 66.7595 14.573C66.6646 14.9527 66.6207 15.3469 66.6207 15.7485Z" fill="#174282"/>
<path d="M79.4268 20.3625C78.7037 20.3625 78.0536 20.2457 77.4838 20.0121C76.914 19.7785 76.4392 19.4499 76.0448 19.0338C75.6503 18.6176 75.3508 18.1285 75.1463 17.5517C74.9417 16.9749 74.8395 16.3397 74.8395 15.6535C74.8395 14.9745 74.9417 14.3466 75.1463 13.7698C75.3508 13.1931 75.6503 12.6966 76.0448 12.2877C76.4392 11.8789 76.914 11.5504 77.4838 11.3094C78.0536 11.0758 78.6964 10.959 79.4268 10.959C80.1573 10.959 80.8001 11.0758 81.3699 11.3094C81.9397 11.5431 82.4145 11.8716 82.8089 12.2877C83.2034 12.7039 83.5029 13.2004 83.7074 13.7698C83.9119 14.3466 84.0142 14.9745 84.0142 15.6535C84.0142 16.347 83.9119 16.9749 83.7074 17.5517C83.5029 18.1285 83.2034 18.6249 82.8089 19.0338C82.4145 19.4499 81.9324 19.7712 81.3699 20.0121C80.8001 20.2457 80.15 20.3625 79.4268 20.3625ZM79.4268 18.8074C79.8724 18.8074 80.2596 18.7125 80.5883 18.53C80.917 18.3475 81.1873 18.1066 81.3991 17.8072C81.611 17.5079 81.7644 17.172 81.8666 16.7997C81.9689 16.4274 82.0127 16.0404 82.0127 15.6535C82.0127 15.2738 81.9616 14.8942 81.8666 14.5145C81.7644 14.1349 81.611 13.799 81.3991 13.507C81.1873 13.215 80.917 12.974 80.5883 12.7915C80.2596 12.609 79.8724 12.5141 79.4268 12.5141C78.9813 12.5141 78.5941 12.609 78.2654 12.7915C77.9367 12.974 77.6664 13.215 77.4546 13.507C77.2427 13.799 77.0893 14.1349 76.9871 14.5145C76.8848 14.8942 76.841 15.2738 76.841 15.6535C76.841 16.0477 76.8921 16.4274 76.9871 16.7997C77.0893 17.172 77.2427 17.5079 77.4546 17.8072C77.6664 18.1066 77.9367 18.3475 78.2654 18.53C78.5941 18.7125 78.9813 18.8074 79.4268 18.8074Z" fill="#174282"/>
<path d="M16.9603 0.0957031L20.5689 9.0758H19.2102L18.2021 6.37447H14.3014L13.2641 9.0758H12.015L15.6016 0.0957031H16.9603ZM17.815 5.36695L16.2737 1.18354H16.2445L14.6812 5.36695H17.815Z" fill="#00ACFF"/>
<path d="M25.3985 9.07541V8.04598H25.3693C25.1356 8.44753 24.8361 8.74687 24.4781 8.92939C24.1129 9.11921 23.6892 9.21413 23.1998 9.21413C22.7615 9.21413 22.3963 9.15572 22.1041 9.04621C21.8119 8.92939 21.5709 8.76877 21.3955 8.56435C21.2202 8.35992 21.0887 8.10439 21.0157 7.81965C20.9427 7.52762 20.9061 7.21368 20.9061 6.85594V2.57031H22.0018V6.97275C22.0018 7.3743 22.126 7.69554 22.3671 7.92917C22.6081 8.1628 22.9368 8.27961 23.3605 8.27961C23.6965 8.27961 23.9887 8.2285 24.2298 8.12629C24.4781 8.02408 24.6827 7.88536 24.8434 7.69554C25.0041 7.50572 25.1283 7.29399 25.2086 7.04576C25.289 6.79753 25.3328 6.5274 25.3328 6.23536V2.57031H26.4285V9.06811H25.3985V9.07541Z" fill="#00ACFF"/>
<path d="M30.8103 2.57043V3.51225H29.4809V7.54964C29.4809 7.67375 29.4882 7.77597 29.5101 7.84898C29.532 7.92198 29.5685 7.98039 29.6343 8.0242C29.6927 8.068 29.7803 8.08991 29.8826 8.10451C29.9849 8.11911 30.1383 8.12641 30.3063 8.12641H30.8103V9.06822H29.9703C29.6854 9.06822 29.4443 9.04632 29.2398 9.00982C29.0353 8.97331 28.8746 8.9003 28.7504 8.80539C28.6262 8.71048 28.5312 8.56446 28.4728 8.37464C28.4144 8.19212 28.3851 7.94389 28.3851 7.64455V3.51225H27.2456V2.57043H28.3851V0.621094H29.4809V2.57043H30.8103V2.57043Z" fill="#00ACFF"/>
<path d="M31.7449 4.48998C31.8837 4.07383 32.0883 3.71609 32.3659 3.40945C32.6434 3.10281 32.9794 2.86188 33.3885 2.68666C33.7976 2.51144 34.2578 2.42383 34.7837 2.42383C35.317 2.42383 35.7845 2.51144 36.1862 2.68666C36.588 2.86188 36.924 3.10281 37.2016 3.40945C37.4792 3.71609 37.6837 4.07383 37.8225 4.48998C37.9613 4.90613 38.027 5.35149 38.027 5.82604C38.027 6.3006 37.9613 6.74596 37.8225 7.16211C37.6837 7.57096 37.4792 7.9287 37.2016 8.23534C36.924 8.54198 36.588 8.78291 36.1862 8.95083C35.7845 9.12605 35.317 9.20636 34.7837 9.20636C34.2578 9.20636 33.7903 9.11875 33.3885 8.95083C32.9868 8.78291 32.6434 8.54198 32.3659 8.23534C32.0883 7.9287 31.8837 7.57096 31.7449 7.16211C31.6062 6.75326 31.5404 6.3079 31.5404 5.82604C31.5331 5.35149 31.6062 4.90613 31.7449 4.48998ZM32.8626 6.87737C32.9721 7.18401 33.1182 7.43954 33.3082 7.64397C33.4981 7.84839 33.7172 8.00901 33.9729 8.11852C34.2286 8.22804 34.4988 8.27914 34.7837 8.27914C35.0686 8.27914 35.3389 8.22804 35.5945 8.11852C35.8502 8.00901 36.0693 7.85569 36.2593 7.64397C36.4492 7.43224 36.5953 7.18401 36.7049 6.87737C36.8144 6.57073 36.8656 6.22029 36.8656 5.82604C36.8656 5.4318 36.8144 5.08135 36.7049 4.77472C36.588 4.47538 36.4419 4.21255 36.252 4.00812C36.062 3.7964 35.8429 3.64308 35.5872 3.53356C35.3316 3.41675 35.0613 3.36564 34.7764 3.36564C34.4915 3.36564 34.2213 3.42405 33.9656 3.52626C33.7099 3.63578 33.4908 3.7964 33.3009 4.00082C33.1182 4.21255 32.9648 4.47538 32.8626 4.78202C32.753 5.08865 32.7019 5.4391 32.7019 5.83334C32.7019 6.22029 32.753 6.57073 32.8626 6.87737Z" fill="#00ACFF"/>
<path d="M90.7758 23.1016H-0.00012207V24.9049H90.7758V23.1016Z" fill="#174282"/>
<path d="M90.016 13.1351C89.6727 13.1351 89.3586 12.9015 89.2855 12.5511C88.8399 10.5652 87.6201 8.7546 85.9473 7.58646C84.2745 6.41832 82.1561 5.89995 80.1327 6.17008C79.7163 6.22119 79.3438 5.93646 79.2854 5.52761C79.2342 5.11876 79.5191 4.73911 79.9282 4.6807C82.3168 4.36676 84.8223 4.97274 86.8019 6.35261C88.7815 7.73248 90.2132 9.87164 90.7465 12.2225C90.8341 12.6241 90.5858 13.0329 90.1767 13.1205C90.1256 13.1278 90.0671 13.1351 90.016 13.1351Z" fill="#00ACFF"/>
<path d="M86.8311 14.4128C86.4878 14.4128 86.1737 14.1792 86.1006 13.8288C85.7792 12.3978 84.9026 11.0909 83.6974 10.2513C82.4921 9.41174 80.9654 9.03939 79.5117 9.22922C79.1027 9.28032 78.7228 8.99559 78.6717 8.57944C78.6206 8.17059 78.9055 7.79094 79.3218 7.73983C81.1407 7.4989 83.0545 7.96616 84.5666 9.01749C86.0714 10.0688 87.1671 11.7042 87.5762 13.4929C87.6638 13.8945 87.4155 14.3033 87.0064 14.3909C86.9334 14.4055 86.8822 14.4128 86.8311 14.4128Z" fill="#00ACFF"/>
</g>
<g clip-path="url(#clip1_297_1345)">
<path d="M186.384 23.2773H99.7759V24.9996H186.384V23.2773Z" fill="#174282"/>
<path d="M102.371 13.9077C102.371 14.427 102.46 14.8709 102.642 15.2349C102.824 15.6033 103.073 15.9007 103.397 16.136C103.716 16.3713 104.089 16.5399 104.506 16.6465C104.924 16.753 105.376 16.8063 105.869 16.8063C106.397 16.8063 106.846 16.7486 107.218 16.6243C107.591 16.5044 107.893 16.3491 108.124 16.1582C108.355 15.9673 108.524 15.7498 108.626 15.5012C108.728 15.2527 108.781 15.0041 108.781 14.7511C108.781 14.2317 108.661 13.85 108.426 13.6014C108.186 13.3528 107.929 13.1797 107.645 13.0776C107.156 12.9 106.588 12.7314 105.936 12.576C105.288 12.4162 104.484 12.212 103.534 11.959C102.944 11.8081 102.451 11.6083 102.056 11.3597C101.665 11.1112 101.35 10.8359 101.119 10.5341C100.889 10.2322 100.724 9.9082 100.627 9.56641C100.529 9.22461 100.48 8.87837 100.48 8.52326C100.48 7.83967 100.627 7.24929 100.915 6.74769C101.204 6.24609 101.585 5.83327 102.065 5.50479C102.54 5.17631 103.081 4.93217 103.685 4.77237C104.289 4.61257 104.901 4.53711 105.518 4.53711C106.237 4.53711 106.917 4.63033 107.556 4.81232C108.195 4.99432 108.754 5.26953 109.234 5.63796C109.718 6.00639 110.099 6.45916 110.383 6.99627C110.663 7.5467 110.805 8.16815 110.805 8.87837H108.39C108.324 8.00391 108.022 7.3869 107.485 7.02734C106.948 6.66779 106.255 6.4858 105.421 6.4858C105.137 6.4858 104.848 6.51243 104.551 6.57013C104.253 6.62784 103.982 6.72106 103.738 6.85423C103.494 6.98739 103.29 7.16939 103.13 7.39577C102.97 7.62216 102.891 7.90625 102.891 8.24805C102.891 8.72745 103.041 9.10476 103.343 9.37553C103.645 9.64631 104.04 9.85494 104.528 9.99254C104.582 10.0059 104.781 10.0591 105.137 10.1523C105.492 10.2456 105.887 10.3521 106.322 10.4675C106.761 10.5829 107.187 10.6939 107.605 10.8004C108.022 10.907 108.324 10.9869 108.501 11.0357C108.95 11.1733 109.345 11.3642 109.678 11.6039C110.011 11.8436 110.29 12.1188 110.517 12.4295C110.743 12.7402 110.907 13.0732 111.018 13.4283C111.129 13.7834 111.182 14.1385 111.182 14.4936C111.182 15.2527 111.023 15.9007 110.707 16.4379C110.392 16.975 109.975 17.4144 109.465 17.7562C108.95 18.098 108.364 18.3466 107.707 18.5064C107.05 18.6662 106.38 18.7417 105.7 18.7417C104.915 18.7417 104.178 18.6484 103.481 18.4576C102.784 18.2667 102.18 17.9782 101.665 17.5831C101.15 17.1925 100.738 16.6864 100.431 16.0739C100.121 15.4613 99.9608 14.7333 99.9475 13.8988H102.371V13.9077Z" fill="#174282"/>
<path d="M115.383 14.0808C115.383 14.4625 115.437 14.8265 115.548 15.1816C115.659 15.5368 115.823 15.8475 116.04 16.1138C116.258 16.3801 116.538 16.5932 116.87 16.7486C117.203 16.9084 117.603 16.9838 118.069 16.9838C118.713 16.9838 119.232 16.8462 119.623 16.5755C120.013 16.3047 120.306 15.8963 120.501 15.3503H122.588C122.472 15.883 122.273 16.358 121.989 16.7752C121.704 17.1925 121.363 17.5431 120.968 17.8272C120.573 18.1113 120.12 18.3288 119.627 18.4709C119.134 18.6129 118.615 18.6884 118.073 18.6884C117.288 18.6884 116.595 18.5597 115.987 18.3066C115.383 18.0536 114.873 17.6985 114.451 17.2457C114.034 16.7885 113.719 16.247 113.506 15.6122C113.293 14.9774 113.186 14.285 113.186 13.5259C113.186 12.829 113.297 12.1676 113.524 11.5417C113.75 10.9158 114.07 10.3654 114.487 9.89045C114.904 9.41548 115.41 9.03817 116 8.76296C116.591 8.48331 117.261 8.3457 118.007 8.3457C118.793 8.3457 119.498 8.5055 120.12 8.82955C120.741 9.15359 121.261 9.57972 121.673 10.1124C122.086 10.6451 122.384 11.2532 122.57 11.9457C122.756 12.6337 122.805 13.3484 122.717 14.0808H115.383ZM120.519 12.6559C120.493 12.3141 120.422 11.9856 120.297 11.6705C120.173 11.3553 120.009 11.0801 119.796 10.8448C119.583 10.6096 119.325 10.4231 119.023 10.2766C118.721 10.1301 118.384 10.0591 118.011 10.0591C117.625 10.0591 117.274 10.1257 116.959 10.2589C116.644 10.392 116.373 10.574 116.147 10.8093C115.921 11.0446 115.743 11.3198 115.605 11.6349C115.472 11.9501 115.397 12.2919 115.383 12.6603H120.519V12.6559Z" fill="#174282"/>
<path d="M134.301 17.915C134.301 19.3976 133.879 20.4984 133.036 21.2264C132.193 21.9544 130.981 22.3184 129.396 22.3184C128.894 22.3184 128.388 22.2695 127.882 22.1674C127.372 22.0653 126.91 21.8967 126.493 21.657C126.076 21.4173 125.725 21.1021 125.441 20.707C125.157 20.3164 124.988 19.8326 124.939 19.2644H127.141C127.203 19.5662 127.314 19.8148 127.47 20.0057C127.625 20.1966 127.807 20.343 128.02 20.4496C128.233 20.5561 128.468 20.6271 128.726 20.6582C128.983 20.6893 129.254 20.707 129.538 20.707C130.426 20.707 131.074 20.4895 131.487 20.0634C131.9 19.6328 132.104 19.0114 132.104 18.2035V16.7031H132.064C131.753 17.2491 131.331 17.6708 130.799 17.9771C130.266 18.2789 129.689 18.4343 129.072 18.4343C128.273 18.4343 127.594 18.2967 127.035 18.0259C126.475 17.7551 126.014 17.3823 125.645 16.9073C125.277 16.4324 125.01 15.8864 124.846 15.2649C124.682 14.6435 124.598 13.9821 124.598 13.2718C124.598 12.6149 124.7 11.989 124.908 11.3942C125.112 10.7994 125.41 10.2756 125.796 9.82724C126.182 9.37891 126.657 9.01935 127.216 8.75302C127.776 8.48668 128.411 8.35352 129.116 8.35352C129.747 8.35352 130.324 8.48224 130.852 8.74414C131.38 9.0016 131.784 9.40998 132.068 9.96928H132.108V8.61097H134.31V17.915H134.301ZM129.414 16.7164C129.902 16.7164 130.319 16.6188 130.657 16.4235C130.998 16.2282 131.274 15.9663 131.487 15.6467C131.7 15.3271 131.855 14.9586 131.948 14.5458C132.046 14.133 132.095 13.7202 132.095 13.3029C132.095 12.8857 132.042 12.4817 131.94 12.0866C131.837 11.696 131.678 11.3453 131.465 11.0435C131.251 10.7417 130.976 10.4975 130.634 10.3244C130.293 10.1468 129.884 10.0581 129.409 10.0581C128.921 10.0581 128.508 10.1602 128.175 10.3599C127.842 10.5641 127.572 10.826 127.363 11.1456C127.159 11.4696 127.008 11.8336 126.919 12.2464C126.83 12.6593 126.786 13.0676 126.786 13.4716C126.786 13.8755 126.839 14.2706 126.941 14.6568C127.043 15.043 127.203 15.3892 127.416 15.6911C127.629 15.9929 127.9 16.2415 128.229 16.4324C128.557 16.6232 128.952 16.7164 129.414 16.7164Z" fill="#174282"/>
<path d="M145.96 18.4258H143.799V17.0586H143.759C143.488 17.5513 143.084 17.9464 142.551 18.2438C142.019 18.5412 141.473 18.6877 140.922 18.6877C139.608 18.6877 138.658 18.3681 138.077 17.7289C137.491 17.0897 137.198 16.1264 137.198 14.8347V8.61133H139.4V14.6305C139.4 15.4917 139.568 16.0998 139.901 16.4549C140.234 16.81 140.705 16.9876 141.308 16.9876C141.77 16.9876 142.156 16.9165 142.467 16.7789C142.778 16.6413 143.026 16.4549 143.221 16.2196C143.412 15.9844 143.554 15.7047 143.639 15.3762C143.723 15.0478 143.763 14.6927 143.763 14.3109V8.61133H145.965V18.4258H145.96Z" fill="#174282"/>
<path d="M148.951 8.61151H151.015V10.5114H151.055C151.117 10.245 151.246 9.98757 151.432 9.73455C151.618 9.48153 151.845 9.25071 152.107 9.04208C152.369 8.83345 152.662 8.66477 152.986 8.54048C153.305 8.41619 153.634 8.34961 153.971 8.34961C154.228 8.34961 154.406 8.35849 154.504 8.36737C154.601 8.38068 154.699 8.394 154.801 8.40732V10.4936C154.646 10.467 154.49 10.4448 154.326 10.427C154.166 10.4093 154.007 10.4004 153.851 10.4004C153.478 10.4004 153.128 10.4714 152.799 10.6179C152.471 10.7644 152.187 10.9775 151.938 11.2615C151.689 11.5456 151.499 11.8963 151.361 12.3136C151.219 12.7308 151.148 13.2102 151.148 13.7562V18.426H148.946V8.61151H148.951Z" fill="#174282"/>
<path d="M160.647 18.6934C159.848 18.6934 159.138 18.5646 158.517 18.3027C157.891 18.0453 157.367 17.6857 156.932 17.2285C156.497 16.7713 156.173 16.2298 155.947 15.595C155.72 14.9602 155.609 14.2678 155.609 13.5087C155.609 12.763 155.72 12.0705 155.947 11.4402C156.173 10.8054 156.501 10.2638 156.932 9.80664C157.363 9.34943 157.891 8.99432 158.517 8.73242C159.143 8.47496 159.853 8.3418 160.647 8.3418C161.442 8.3418 162.157 8.47053 162.783 8.73242C163.408 8.98988 163.932 9.34943 164.367 9.80664C164.802 10.2638 165.126 10.8054 165.353 11.4402C165.579 12.0749 165.69 12.763 165.69 13.5087C165.69 14.2678 165.579 14.9647 165.353 15.595C165.126 16.2298 164.798 16.7713 164.367 17.2285C163.937 17.6857 163.408 18.0408 162.783 18.3027C162.157 18.5646 161.446 18.6934 160.647 18.6934ZM160.647 16.9844C161.136 16.9844 161.562 16.8823 161.921 16.6825C162.281 16.4783 162.578 16.2164 162.809 15.8835C163.04 15.555 163.213 15.1822 163.32 14.7738C163.431 14.361 163.484 13.9437 163.484 13.5131C163.484 13.0959 163.431 12.6786 163.32 12.2614C163.209 11.8441 163.04 11.4757 162.809 11.1516C162.578 10.8276 162.281 10.5657 161.921 10.3659C161.562 10.1618 161.136 10.0641 160.647 10.0641C160.159 10.0641 159.733 10.1662 159.373 10.3659C159.014 10.5701 158.716 10.832 158.486 11.1516C158.255 11.4712 158.082 11.8441 157.975 12.2614C157.864 12.6786 157.811 13.0959 157.811 13.5131C157.811 13.9437 157.864 14.3654 157.975 14.7738C158.086 15.1866 158.255 15.555 158.486 15.8835C158.716 16.212 159.014 16.4783 159.373 16.6825C159.737 16.8867 160.159 16.9844 160.647 16.9844Z" fill="#174282"/>
<path d="M115.53 0L118.3 6.90696H117.257L116.48 4.82511H113.479L112.684 6.90696H111.721L114.487 0H115.53ZM116.182 4.05273L115.002 0.830078H114.984L113.781 4.05273H116.182Z" fill="#00ACFF"/>
<path d="M122.064 6.90696V6.11239H122.046C121.869 6.42312 121.638 6.6495 121.362 6.79599C121.083 6.94247 120.754 7.01349 120.377 7.01349C120.04 7.01349 119.756 6.96911 119.534 6.88477C119.307 6.79599 119.125 6.6717 118.988 6.5119C118.85 6.3521 118.752 6.15678 118.695 5.93484C118.637 5.71289 118.61 5.46431 118.61 5.19354V1.9043H119.454V5.29119C119.454 5.60192 119.547 5.84606 119.733 6.02805C119.92 6.21005 120.173 6.29883 120.497 6.29883C120.754 6.29883 120.981 6.25888 121.167 6.18342C121.354 6.10795 121.513 5.99698 121.638 5.85494C121.762 5.71289 121.86 5.54865 121.922 5.35778C121.984 5.1669 122.015 4.95827 122.015 4.73189V1.9043H122.858V6.90696H122.064Z" fill="#00ACFF"/>
<path d="M126.075 1.90412V2.62766H125.054V5.73047C125.054 5.82813 125.063 5.90359 125.081 5.96129C125.099 6.019 125.13 6.06339 125.174 6.0989C125.219 6.13441 125.285 6.15217 125.37 6.16104C125.454 6.16992 125.56 6.17436 125.694 6.17436H126.08V6.89791H125.432C125.214 6.89791 125.028 6.88459 124.872 6.85352C124.717 6.82244 124.593 6.76918 124.495 6.69372C124.397 6.61825 124.326 6.50728 124.282 6.36523C124.238 6.22319 124.211 6.03675 124.211 5.80593V2.6321H123.337V1.90412H124.211V0.408203H125.054V1.90856H126.075V1.90412Z" fill="#00ACFF"/>
<path d="M126.644 3.3821C126.751 3.0625 126.911 2.78729 127.119 2.55202C127.328 2.31676 127.594 2.13033 127.905 1.99716C128.216 1.86399 128.575 1.79297 128.979 1.79297C129.388 1.79297 129.747 1.85955 130.058 1.99716C130.364 2.13477 130.626 2.31676 130.839 2.55202C131.052 2.78729 131.208 3.0625 131.314 3.3821C131.421 3.7017 131.474 4.0435 131.474 4.41193C131.474 4.78036 131.421 5.12216 131.314 5.43732C131.208 5.75249 131.048 6.0277 130.839 6.26296C130.626 6.49822 130.369 6.68022 130.058 6.81339C129.752 6.94656 129.392 7.01314 128.979 7.01314C128.575 7.01314 128.216 6.94656 127.905 6.81339C127.594 6.68022 127.332 6.49822 127.119 6.26296C126.906 6.0277 126.747 5.75249 126.644 5.43732C126.538 5.12216 126.485 4.78036 126.485 4.41193C126.485 4.0435 126.538 3.69727 126.644 3.3821ZM127.506 5.21982C127.59 5.45508 127.701 5.65039 127.847 5.81019C127.994 5.96999 128.163 6.08984 128.358 6.17418C128.553 6.25852 128.762 6.29847 128.979 6.29847C129.197 6.29847 129.405 6.25852 129.601 6.17418C129.796 6.08984 129.965 5.96999 130.111 5.81019C130.258 5.65039 130.369 5.45508 130.453 5.21982C130.537 4.98455 130.577 4.71378 130.577 4.41193C130.577 4.11009 130.537 3.83931 130.453 3.60405C130.369 3.36879 130.258 3.16903 130.111 3.00923C129.965 2.84943 129.796 2.72514 129.601 2.6408C129.405 2.55646 129.197 2.51651 128.979 2.51651C128.762 2.51651 128.553 2.55646 128.358 2.6408C128.163 2.72514 127.994 2.84499 127.847 3.00923C127.701 3.16903 127.585 3.36879 127.506 3.60405C127.426 3.83931 127.381 4.11009 127.381 4.41193C127.381 4.71378 127.421 4.98455 127.506 5.21982Z" fill="#00ACFF"/>
<path d="M183.215 8.78924C183.215 7.99911 182.572 7.35547 181.782 7.35547C180.992 7.35547 180.348 7.99911 180.348 8.78924C180.348 9.57937 180.992 10.223 181.782 10.223C182.572 10.223 183.211 9.58381 183.215 8.78924Z" fill="#00ACFF" stroke="#00ACFF" stroke-width="0.214267" stroke-miterlimit="10" stroke-linecap="round" stroke-linejoin="round"/>
<path d="M172.468 8.78924C172.468 7.99911 171.824 7.35547 171.034 7.35547C170.244 7.35547 169.6 7.99911 169.6 8.78924C169.6 9.57937 170.244 10.223 171.034 10.223C171.824 10.223 172.468 9.58381 172.468 8.78924Z" fill="#00ACFF" stroke="#00ACFF" stroke-width="0.214267" stroke-miterlimit="10" stroke-linecap="round" stroke-linejoin="round"/>
<path d="M168.685 8.57978H168.92C169.018 7.48781 169.932 6.64885 171.029 6.64885C172.125 6.64885 173.039 7.48781 173.137 8.57978H179.662C179.76 7.48781 180.674 6.64885 181.771 6.64885C182.867 6.64885 183.782 7.48781 183.879 8.57978H184.336C184.594 8.58422 184.838 8.48656 185.02 8.30457C185.202 8.12701 185.304 7.88287 185.304 7.62541V6.35588C185.304 5.97413 185.082 5.6279 184.736 5.4681L183.098 4.72236C183.036 4.69573 182.987 4.65134 182.951 4.59363L181.535 2.33866C181.278 1.92584 180.825 1.67726 180.337 1.6817H174.589C174.149 1.6817 173.732 1.88589 173.465 2.23213L171.646 4.61583C171.601 4.67797 171.535 4.71792 171.464 4.74012L168.418 5.57019C167.997 5.68561 167.704 6.07179 167.699 6.51124V7.62097C167.699 7.87843 167.806 8.12257 167.988 8.30013C168.183 8.48656 168.432 8.58422 168.685 8.57978Z" fill="#00ACFF"/>
<path d="M166.426 13.791L168.943 13.3516L170.048 19.6859L167.531 20.1254L166.426 13.791Z" fill="#00ACFF" stroke="#00ACFF" stroke-width="0.214267" stroke-miterlimit="10" stroke-linecap="round" stroke-linejoin="round"/>
<path d="M184.923 11.6027L181.971 13.8089C182.046 13.982 182.1 14.1684 182.131 14.3548C182.162 14.5413 182.037 14.7188 181.851 14.7499L177.066 15.5889C177.048 15.5933 177.026 15.5933 177.008 15.5933C176.831 15.5933 176.68 15.4557 176.666 15.2826C176.653 15.105 176.773 14.9452 176.95 14.9141L181.367 14.1418C181.052 13.3073 180.191 12.8101 179.307 12.9655L176.396 13.4759C175.823 13.5736 175.237 13.5425 174.673 13.3872L174.349 13.2939C172.742 12.8323 171.007 13.2895 169.835 14.4836L170.581 18.7449L171.047 18.3632C171.482 17.9992 172.045 17.8216 172.609 17.866L177.803 18.2478C178.793 18.2478 179.76 17.937 180.564 17.36L186.49 11.5583C186.015 11.2254 185.375 11.2432 184.918 11.6027C184.927 11.5983 184.927 11.6027 184.923 11.6027Z" fill="#00ACFF" stroke="#00ACFF" stroke-width="0.214267" stroke-miterlimit="10" stroke-linecap="round" stroke-linejoin="round"/>
</g>
<defs>
<clipPath id="clip0_297_1345">
<rect width="90.7759" height="24.8084" fill="white" transform="translate(0 0.0957031)"/>
</clipPath>
<clipPath id="clip1_297_1345">
<rect width="86.8297" height="25" fill="white" transform="translate(99.7759)"/>
</clipPath>
</defs>
</svg>
