<svg width="88" height="25" viewBox="0 0 88 25" fill="none" xmlns="http://www.w3.org/2000/svg">
<g clip-path="url(#clip0_370_1383)">
<path d="M87.3837 23.2773H0.775879V24.9996H87.3837V23.2773Z" fill="#174282"/>
<path d="M3.37116 13.9077C3.37116 14.427 3.45994 14.8709 3.64193 15.2349C3.82393 15.6033 4.07251 15.9007 4.39655 16.136C4.71615 16.3713 5.08902 16.5399 5.50628 16.6465C5.92354 16.753 6.37631 16.8063 6.86903 16.8063C7.39726 16.8063 7.84559 16.7486 8.21846 16.6243C8.59133 16.5044 8.89318 16.3491 9.124 16.1582C9.35483 15.9673 9.52351 15.7498 9.6256 15.5012C9.7277 15.2527 9.78096 15.0041 9.78096 14.7511C9.78096 14.2317 9.66111 13.85 9.42585 13.6014C9.18615 13.3528 8.92869 13.1797 8.6446 13.0776C8.15632 12.9 7.58813 12.7314 6.93561 12.576C6.28753 12.4162 5.48409 12.212 4.53416 11.959C3.94378 11.8081 3.45106 11.6083 3.056 11.3597C2.66537 11.1112 2.35021 10.8359 2.11938 10.5341C1.88856 10.2322 1.72432 9.9082 1.62666 9.56641C1.52901 9.22461 1.48018 8.87837 1.48018 8.52326C1.48018 7.83967 1.62666 7.24929 1.91519 6.74769C2.20372 6.24609 2.58547 5.83327 3.06487 5.50479C3.53984 5.17631 4.08139 4.93217 4.68508 4.77237C5.28877 4.61257 5.90134 4.53711 6.51835 4.53711C7.23746 4.53711 7.91662 4.63033 8.55582 4.81232C9.19502 4.99432 9.75433 5.26953 10.2337 5.63796C10.7176 6.00639 11.0993 6.45916 11.3834 6.99627C11.6631 7.5467 11.8051 8.16815 11.8051 8.87837H9.39034C9.32375 8.00391 9.02191 7.3869 8.4848 7.02734C7.94769 6.66779 7.25522 6.4858 6.4207 6.4858C6.13661 6.4858 5.84808 6.51243 5.55067 6.57013C5.25326 6.62784 4.98249 6.72106 4.73835 6.85423C4.49421 6.98739 4.29002 7.16939 4.13022 7.39577C3.97041 7.62216 3.89051 7.90625 3.89051 8.24805C3.89051 8.72745 4.04144 9.10476 4.34328 9.37553C4.64513 9.64631 5.04019 9.85494 5.52848 9.99254C5.58174 10.0059 5.78149 10.0591 6.13661 10.1523C6.49172 10.2456 6.88679 10.3521 7.3218 10.4675C7.76125 10.5829 8.18739 10.6939 8.60465 10.8004C9.02191 10.907 9.32375 10.9869 9.50131 11.0357C9.94964 11.1733 10.3447 11.3642 10.6776 11.6039C11.0105 11.8436 11.2902 12.1188 11.5166 12.4295C11.743 12.7402 11.9072 13.0732 12.0182 13.4283C12.1292 13.7834 12.1824 14.1385 12.1824 14.4936C12.1824 15.2527 12.0226 15.9007 11.7075 16.4379C11.3923 16.975 10.975 17.4144 10.4646 17.7562C9.94964 18.098 9.3637 18.3466 8.70674 18.5064C8.04978 18.6662 7.37951 18.7417 6.70035 18.7417C5.91466 18.7417 5.1778 18.6484 4.48089 18.4576C3.78398 18.2667 3.18029 17.9782 2.66537 17.5831C2.15046 17.1925 1.73764 16.6864 1.43135 16.0739C1.12063 15.4613 0.960827 14.7333 0.94751 13.8988H3.37116V13.9077Z" fill="#174282"/>
<path d="M16.3834 14.0808C16.3834 14.4625 16.4367 14.8265 16.5477 15.1816C16.6586 15.5368 16.8229 15.8475 17.0404 16.1138C17.2579 16.3801 17.5375 16.5932 17.8705 16.7486C18.2034 16.9084 18.6029 16.9838 19.069 16.9838C19.7126 16.9838 20.232 16.8462 20.6226 16.5755C21.0132 16.3047 21.3062 15.8963 21.5015 15.3503H23.5878C23.4724 15.883 23.2726 16.358 22.9885 16.7752C22.7044 17.1925 22.3626 17.5431 21.9676 17.8272C21.5725 18.1113 21.1198 18.3288 20.627 18.4709C20.1343 18.6129 19.615 18.6884 19.0734 18.6884C18.2877 18.6884 17.5952 18.5597 16.9871 18.3066C16.3834 18.0536 15.8729 17.6985 15.4513 17.2457C15.034 16.7885 14.7188 16.247 14.5058 15.6122C14.2927 14.9774 14.1862 14.285 14.1862 13.5259C14.1862 12.829 14.2971 12.1676 14.5235 11.5417C14.7499 10.9158 15.0695 10.3654 15.4868 9.89045C15.904 9.41548 16.4101 9.03817 17.0004 8.76296C17.5908 8.48331 18.2611 8.3457 19.0068 8.3457C19.7925 8.3457 20.4983 8.5055 21.1198 8.82955C21.7412 9.15359 22.2606 9.57972 22.6734 10.1124C23.0862 10.6451 23.3836 11.2532 23.57 11.9457C23.7565 12.6337 23.8053 13.3484 23.7165 14.0808H16.3834ZM21.5193 12.6559C21.4926 12.3141 21.4216 11.9856 21.2973 11.6705C21.173 11.3553 21.0088 11.0801 20.7957 10.8448C20.5826 10.6096 20.3252 10.4231 20.0233 10.2766C19.7215 10.1301 19.3841 10.0591 19.0113 10.0591C18.6251 10.0591 18.2744 10.1257 17.9592 10.2589C17.6441 10.392 17.3733 10.574 17.1469 10.8093C16.9205 11.0446 16.743 11.3198 16.6054 11.6349C16.4722 11.9501 16.3967 12.2919 16.3834 12.6603H21.5193V12.6559Z" fill="#174282"/>
<path d="M35.301 17.915C35.301 19.3976 34.8793 20.4984 34.0359 21.2264C33.1925 21.9544 31.9807 22.3184 30.396 22.3184C29.8944 22.3184 29.3884 22.2695 28.8823 22.1674C28.3719 22.0653 27.9102 21.8967 27.493 21.657C27.0757 21.4173 26.725 21.1021 26.4409 20.707C26.1568 20.3164 25.9882 19.8326 25.9393 19.2644H28.141C28.2032 19.5662 28.3142 19.8148 28.4695 20.0057C28.6249 20.1966 28.8069 20.343 29.0199 20.4496C29.233 20.5561 29.4683 20.6271 29.7257 20.6582C29.9832 20.6893 30.254 20.707 30.5381 20.707C31.4258 20.707 32.0739 20.4895 32.4867 20.0634C32.8996 19.6328 33.1038 19.0114 33.1038 18.2035V16.7031H33.0638C32.7531 17.2491 32.3314 17.6708 31.7987 17.9771C31.266 18.2789 30.689 18.4343 30.072 18.4343C29.273 18.4343 28.5938 18.2967 28.0345 18.0259C27.4752 17.7551 27.0136 17.3823 26.6451 16.9073C26.2767 16.4324 26.0104 15.8864 25.8461 15.2649C25.6819 14.6435 25.5975 13.9821 25.5975 13.2718C25.5975 12.6149 25.6996 11.989 25.9083 11.3942C26.1124 10.7994 26.4099 10.2756 26.796 9.82724C27.1822 9.37891 27.6572 9.01935 28.2165 8.75302C28.7758 8.48668 29.4106 8.35352 30.1164 8.35352C30.7467 8.35352 31.3237 8.48224 31.852 8.74414C32.3802 9.0016 32.7841 9.40998 33.0682 9.96928H33.1082V8.61097H35.3099V17.915H35.301ZM30.4138 16.7164C30.902 16.7164 31.3193 16.6188 31.6567 16.4235C31.9985 16.2282 32.2737 15.9663 32.4867 15.6467C32.6998 15.3271 32.8552 14.9586 32.9484 14.5458C33.046 14.133 33.0949 13.7202 33.0949 13.3029C33.0949 12.8857 33.0416 12.4817 32.9395 12.0866C32.8374 11.696 32.6776 11.3453 32.4645 11.0435C32.2515 10.7417 31.9763 10.4975 31.6345 10.3244C31.2927 10.1468 30.8843 10.0581 30.4093 10.0581C29.921 10.0581 29.5082 10.1602 29.1753 10.3599C28.8424 10.5641 28.5716 10.826 28.363 11.1456C28.1588 11.4696 28.0079 11.8336 27.9191 12.2464C27.8303 12.6593 27.7859 13.0676 27.7859 13.4716C27.7859 13.8755 27.8392 14.2706 27.9413 14.6568C28.0434 15.043 28.2032 15.3892 28.4162 15.6911C28.6293 15.9929 28.9001 16.2415 29.2286 16.4324C29.5571 16.6232 29.9521 16.7164 30.4138 16.7164Z" fill="#174282"/>
<path d="M46.9603 18.4258H44.7985V17.0586H44.7586C44.4878 17.5513 44.0839 17.9464 43.5512 18.2438C43.0185 18.5412 42.4726 18.6877 41.9221 18.6877C40.6082 18.6877 39.6583 18.3681 39.0768 17.7289C38.4908 17.0897 38.1979 16.1264 38.1979 14.8347V8.61133H40.3996V14.6305C40.3996 15.4917 40.5683 16.0998 40.9012 16.4549C41.2341 16.81 41.7046 16.9876 42.3083 16.9876C42.77 16.9876 43.1561 16.9165 43.4669 16.7789C43.7776 16.6413 44.0262 16.4549 44.2215 16.2196C44.4124 15.9844 44.5544 15.7047 44.6387 15.3762C44.7231 15.0478 44.763 14.6927 44.763 14.3109V8.61133H46.9647V18.4258H46.9603Z" fill="#174282"/>
<path d="M49.9506 8.61151H52.0147V10.5114H52.0547C52.1168 10.245 52.2455 9.98757 52.432 9.73455C52.6184 9.48153 52.8448 9.25071 53.1067 9.04208C53.3686 8.83345 53.6615 8.66477 53.9856 8.54048C54.3052 8.41619 54.6337 8.34961 54.971 8.34961C55.2285 8.34961 55.406 8.35849 55.5037 8.36737C55.6014 8.38068 55.699 8.394 55.8011 8.40732V10.4936C55.6457 10.467 55.4904 10.4448 55.3261 10.427C55.1663 10.4093 55.0065 10.4004 54.8512 10.4004C54.4783 10.4004 54.1276 10.4714 53.7991 10.6179C53.4707 10.7644 53.1866 10.9775 52.938 11.2615C52.6894 11.5456 52.4985 11.8963 52.3609 12.3136C52.2189 12.7308 52.1479 13.2102 52.1479 13.7562V18.426H49.9462V8.61151H49.9506Z" fill="#174282"/>
<path d="M61.6474 18.6934C60.8484 18.6934 60.1382 18.5646 59.5167 18.3027C58.8909 18.0453 58.3671 17.6857 57.932 17.2285C57.497 16.7713 57.173 16.2298 56.9466 15.595C56.7202 14.9602 56.6093 14.2678 56.6093 13.5087C56.6093 12.763 56.7202 12.0705 56.9466 11.4402C57.173 10.8054 57.5015 10.2638 57.932 9.80664C58.3626 9.34943 58.8909 8.99432 59.5167 8.73242C60.1426 8.47496 60.8529 8.3418 61.6474 8.3418C62.442 8.3418 63.1567 8.47053 63.7826 8.73242C64.4084 8.98988 64.9322 9.34943 65.3672 9.80664C65.8023 10.2638 66.1263 10.8054 66.3527 11.4402C66.5791 12.0749 66.69 12.763 66.69 13.5087C66.69 14.2678 66.5791 14.9647 66.3527 15.595C66.1263 16.2298 65.7978 16.7713 65.3672 17.2285C64.9367 17.6857 64.4084 18.0408 63.7826 18.3027C63.1567 18.5646 62.4464 18.6934 61.6474 18.6934ZM61.6474 16.9844C62.1357 16.9844 62.5618 16.8823 62.9214 16.6825C63.281 16.4783 63.5784 16.2164 63.8092 15.8835C64.04 15.555 64.2131 15.1822 64.3197 14.7738C64.4306 14.361 64.4839 13.9437 64.4839 13.5131C64.4839 13.0959 64.4306 12.6786 64.3197 12.2614C64.2087 11.8441 64.04 11.4757 63.8092 11.1516C63.5784 10.8276 63.281 10.5657 62.9214 10.3659C62.5618 10.1618 62.1357 10.0641 61.6474 10.0641C61.1591 10.0641 60.733 10.1662 60.3735 10.3659C60.0139 10.5701 59.7165 10.832 59.4857 11.1516C59.2548 11.4712 59.0817 11.8441 58.9752 12.2614C58.8642 12.6786 58.811 13.0959 58.811 13.5131C58.811 13.9437 58.8642 14.3654 58.9752 14.7738C59.0862 15.1866 59.2548 15.555 59.4857 15.8835C59.7165 16.212 60.0139 16.4783 60.3735 16.6825C60.7374 16.8867 61.1591 16.9844 61.6474 16.9844Z" fill="#174282"/>
<path d="M16.5298 0L19.2997 6.90696H18.2565L17.4797 4.82511H14.479L13.6844 6.90696H12.7212L15.4866 0H16.5298ZM17.1823 4.05273L16.0016 0.830078H15.9838L14.7809 4.05273H17.1823Z" fill="#00ACFF"/>
<path d="M23.0638 6.90696V6.11239H23.0461C22.8685 6.42312 22.6377 6.6495 22.3625 6.79599C22.0828 6.94247 21.7543 7.01349 21.377 7.01349C21.0397 7.01349 20.7556 6.96911 20.5336 6.88477C20.3073 6.79599 20.1253 6.6717 19.9877 6.5119C19.8501 6.3521 19.7524 6.15678 19.6947 5.93484C19.637 5.71289 19.6104 5.46431 19.6104 5.19354V1.9043H20.4537V5.29119C20.4537 5.60192 20.547 5.84606 20.7334 6.02805C20.9198 6.21005 21.1729 6.29883 21.4969 6.29883C21.7544 6.29883 21.9807 6.25888 22.1672 6.18342C22.3536 6.10795 22.5134 5.99698 22.6377 5.85494C22.762 5.71289 22.8596 5.54865 22.9218 5.35778C22.9839 5.1669 23.015 4.95827 23.015 4.73189V1.9043H23.8584V6.90696H23.0638Z" fill="#00ACFF"/>
<path d="M27.0754 1.90412V2.62766H26.0544V5.73047C26.0544 5.82813 26.0633 5.90359 26.081 5.96129C26.0988 6.019 26.1299 6.06339 26.1743 6.0989C26.2186 6.13441 26.2852 6.15217 26.3696 6.16104C26.4539 6.16992 26.5604 6.17436 26.6936 6.17436H27.0798V6.89791H26.4317C26.2142 6.89791 26.0278 6.88459 25.8724 6.85352C25.7171 6.82244 25.5928 6.76918 25.4951 6.69372C25.3974 6.61825 25.3264 6.50728 25.282 6.36523C25.2376 6.22319 25.211 6.03675 25.211 5.80593V2.6321H24.3365V1.90412H25.211V0.408203H26.0544V1.90856H27.0754V1.90412Z" fill="#00ACFF"/>
<path d="M27.6444 3.3821C27.751 3.0625 27.9108 2.78729 28.1194 2.55202C28.328 2.31676 28.5943 2.13033 28.9051 1.99716C29.2158 1.86399 29.5754 1.79297 29.9793 1.79297C30.3877 1.79297 30.7472 1.85955 31.058 1.99716C31.3642 2.13477 31.6261 2.31676 31.8392 2.55202C32.0523 2.78729 32.2076 3.0625 32.3142 3.3821C32.4207 3.7017 32.474 4.0435 32.474 4.41193C32.474 4.78036 32.4207 5.12216 32.3142 5.43732C32.2076 5.75249 32.0478 6.0277 31.8392 6.26296C31.6261 6.49822 31.3687 6.68022 31.058 6.81339C30.7517 6.94656 30.3921 7.01314 29.9793 7.01314C29.5754 7.01314 29.2158 6.94656 28.9051 6.81339C28.5943 6.68022 28.3325 6.49822 28.1194 6.26296C27.9063 6.0277 27.7465 5.75249 27.6444 5.43732C27.5379 5.12216 27.4846 4.78036 27.4846 4.41193C27.4846 4.0435 27.5379 3.69727 27.6444 3.3821ZM28.5056 5.21982C28.5899 5.45508 28.7009 5.65039 28.8474 5.81019C28.9939 5.96999 29.1625 6.08984 29.3578 6.17418C29.5532 6.25852 29.7618 6.29847 29.9793 6.29847C30.1968 6.29847 30.4054 6.25852 30.6007 6.17418C30.7961 6.08984 30.9647 5.96999 31.1112 5.81019C31.2577 5.65039 31.3687 5.45508 31.453 5.21982C31.5374 4.98455 31.5773 4.71378 31.5773 4.41193C31.5773 4.11009 31.5374 3.83931 31.453 3.60405C31.3687 3.36879 31.2577 3.16903 31.1112 3.00923C30.9647 2.84943 30.7961 2.72514 30.6007 2.6408C30.4054 2.55646 30.1968 2.51651 29.9793 2.51651C29.7618 2.51651 29.5532 2.55646 29.3578 2.6408C29.1625 2.72514 28.9939 2.84499 28.8474 3.00923C28.7009 3.16903 28.5855 3.36879 28.5056 3.60405C28.4257 3.83931 28.3813 4.11009 28.3813 4.41193C28.3813 4.71378 28.4212 4.98455 28.5056 5.21982Z" fill="#00ACFF"/>
<path d="M84.2154 8.78924C84.2154 7.99911 83.5718 7.35547 82.7817 7.35547C81.9915 7.35547 81.3479 7.99911 81.3479 8.78924C81.3479 9.57937 81.9915 10.223 82.7817 10.223C83.5718 10.223 84.211 9.58381 84.2154 8.78924Z" fill="#00ACFF" stroke="#00ACFF" stroke-width="0.214267" stroke-miterlimit="10" stroke-linecap="round" stroke-linejoin="round"/>
<path d="M73.4678 8.78924C73.4678 7.99911 72.8241 7.35547 72.034 7.35547C71.2439 7.35547 70.6002 7.99911 70.6002 8.78924C70.6002 9.57937 71.2439 10.223 72.034 10.223C72.8241 10.223 73.4678 9.58381 73.4678 8.78924Z" fill="#00ACFF" stroke="#00ACFF" stroke-width="0.214267" stroke-miterlimit="10" stroke-linecap="round" stroke-linejoin="round"/>
<path d="M69.6848 8.57978H69.92C70.0177 7.48781 70.9321 6.64885 72.0285 6.64885C73.1249 6.64885 74.0394 7.48781 74.137 8.57978H80.6622C80.7599 7.48781 81.6743 6.64885 82.7707 6.64885C83.8671 6.64885 84.7815 7.48781 84.8792 8.57978H85.3364C85.5939 8.58422 85.838 8.48656 86.02 8.30457C86.202 8.12701 86.3041 7.88287 86.3041 7.62541V6.35588C86.3041 5.97413 86.0821 5.6279 85.7359 5.4681L84.098 4.72236C84.0358 4.69573 83.987 4.65134 83.9515 4.59363L82.5355 2.33866C82.278 1.92584 81.8252 1.67726 81.3369 1.6817H75.5885C75.1491 1.6817 74.7318 1.88589 74.4655 2.23213L72.6455 4.61583C72.6012 4.67797 72.5346 4.71792 72.4635 4.74012L69.4184 5.57019C68.9967 5.68561 68.7038 6.07179 68.6993 6.51124V7.62097C68.6993 7.87843 68.8059 8.12257 68.9879 8.30013C69.1832 8.48656 69.4318 8.58422 69.6848 8.57978Z" fill="#00ACFF"/>
<path d="M67.426 13.791L69.9429 13.3516L71.0482 19.6859L68.5313 20.1254L67.426 13.791Z" fill="#00ACFF" stroke="#00ACFF" stroke-width="0.214267" stroke-miterlimit="10" stroke-linecap="round" stroke-linejoin="round"/>
<path d="M85.9227 11.6027L82.9708 13.8089C83.0463 13.982 83.0996 14.1684 83.1306 14.3548C83.1617 14.5413 83.0374 14.7188 82.851 14.7499L78.0658 15.5889C78.0481 15.5933 78.0259 15.5933 78.0081 15.5933C77.8306 15.5933 77.6797 15.4557 77.6663 15.2826C77.653 15.105 77.7729 14.9452 77.9504 14.9141L82.3672 14.1418C82.052 13.3073 81.1908 12.8101 80.3075 12.9655L77.3956 13.4759C76.8229 13.5736 76.237 13.5425 75.6733 13.3872L75.3492 13.2939C73.7423 12.8323 72.0067 13.2895 70.8348 14.4836L71.5806 18.7449L72.0467 18.3632C72.4817 17.9992 73.0454 17.8216 73.6092 17.866L78.8027 18.2478C79.7926 18.2478 80.7603 17.937 81.5637 17.36L87.4897 11.5583C87.0147 11.2254 86.3755 11.2432 85.9183 11.6027C85.9272 11.5983 85.9272 11.6027 85.9227 11.6027Z" fill="#00ACFF" stroke="#00ACFF" stroke-width="0.214267" stroke-miterlimit="10" stroke-linecap="round" stroke-linejoin="round"/>
</g>
<defs>
<clipPath id="clip0_370_1383">
<rect width="86.8297" height="25" fill="white" transform="translate(0.775879)"/>
</clipPath>
</defs>
</svg>
