<svg width="120" height="120" viewBox="0 0 120 120" fill="none" xmlns="http://www.w3.org/2000/svg">
<path d="M100.092 51.238C99.9635 50.2096 98.9994 49.4383 97.9711 49.5669C96.6213 49.6954 94.8217 49.9525 92.7007 50.1453C92.7007 50.081 92.6364 50.0168 92.6364 49.9525L85.5021 34.3341C84.2166 31.5061 81.4529 29.5779 78.3035 29.4494H77.6608C70.655 28.9995 66.6701 28.8066 59.6 28.8066C52.53 28.8066 48.545 28.9995 41.5393 29.3208H40.8965C37.7472 29.4494 34.9834 31.3776 33.6979 34.2056L26.6279 49.8882C26.6279 49.9525 26.5636 50.0168 26.5636 50.081C24.4426 49.8882 22.643 49.6311 21.2932 49.5026C20.2649 49.374 19.3008 50.1453 19.1722 51.1737C19.0437 52.2021 19.815 53.1662 20.8433 53.2947C27.4635 54.1303 44.5601 55.9299 59.6 55.9299C74.6399 55.9299 91.7366 54.1303 98.3567 53.359C99.4494 53.2304 100.221 52.2663 100.092 51.238ZM30.6128 50.4667L37.233 35.8124C37.94 34.2699 39.4183 33.2415 41.0894 33.1772H41.7321C48.8664 32.7916 52.5942 32.663 59.6 32.663C66.6058 32.663 70.3336 32.8558 77.4679 33.1772H78.1107C79.7818 33.2415 81.2601 34.2699 81.9671 35.8124L88.5872 50.4667C80.5531 51.238 69.6266 52.0735 59.6 52.0735C49.5734 52.0735 38.647 51.238 30.6128 50.4667Z" fill="#174282"/>
<path d="M91.7351 58.5C87.1074 58.5 83.3796 62.2278 83.3796 66.8555C83.3796 71.4832 87.1074 75.211 91.7351 75.211C93.4062 75.211 94.9487 74.6968 96.2342 73.8613V78.4247C96.2342 79.5173 95.3987 80.3529 94.306 80.3529H24.891C23.7984 80.3529 22.9628 79.5173 22.9628 78.4247V73.8613C24.2483 74.6968 25.7909 75.211 27.462 75.211C32.0896 75.211 35.8175 71.4832 35.8175 66.8555C35.8175 62.2278 32.0896 58.5 27.462 58.5C22.8343 58.5 19.1064 62.2278 19.1064 66.8555V78.4247C19.1064 80.9313 20.7133 83.0523 22.9628 83.8879V91.2793C22.9628 92.3719 23.7984 93.2075 24.891 93.2075H37.7457C38.8383 93.2075 39.6738 92.3719 39.6738 91.2793V84.2092H79.5232V91.2793C79.5232 92.3719 80.3587 93.2075 81.4514 93.2075H94.306C95.3987 93.2075 96.2342 92.3719 96.2342 91.2793V83.8879C98.4838 83.1166 100.091 80.9313 100.091 78.4247V66.8555C100.091 62.2278 96.3627 58.5 91.7351 58.5ZM27.462 62.3564C29.9686 62.3564 31.9611 64.3489 31.9611 66.8555C31.9611 69.3622 29.9686 71.3546 27.462 71.3546C24.9553 71.3546 22.9628 69.3622 22.9628 66.8555C22.9628 64.3489 24.9553 62.3564 27.462 62.3564ZM35.8175 89.3511H26.8192V84.2092H35.8175V89.3511ZM92.3778 89.3511H83.3796V84.2092H92.3778V89.3511ZM91.7351 71.3546C89.2284 71.3546 87.236 69.3622 87.236 66.8555C87.236 64.3489 89.2284 62.3564 91.7351 62.3564C94.2417 62.3564 96.2342 64.3489 96.2342 66.8555C96.2342 69.3622 94.2417 71.3546 91.7351 71.3546Z" fill="#174282"/>
</svg>
