<svg width="120" height="120" viewBox="0 0 120 120" fill="none" xmlns="http://www.w3.org/2000/svg">
<path d="M37.3136 81.7773C34.8404 81.7773 32.8169 83.8009 32.8169 86.2741C32.8169 88.7473 34.8404 90.7708 37.3136 90.7708C39.7869 90.7708 41.8104 88.7473 41.8104 86.2741C41.8104 83.8009 39.7869 81.7773 37.3136 81.7773ZM37.3136 87.848C36.4143 87.848 35.7398 87.1734 35.7398 86.2741C35.7398 85.3747 36.4143 84.7002 37.3136 84.7002C38.213 84.7002 38.8875 85.3747 38.8875 86.2741C38.8875 87.1734 38.213 87.848 37.3136 87.848Z" fill="#174282"/>
<path d="M84.7546 81.7773C82.2813 81.7773 80.2578 83.8009 80.2578 86.2741C80.2578 88.7473 82.2813 90.7708 84.7546 90.7708C87.2278 90.7708 89.2513 88.7473 89.2513 86.2741C89.2513 83.8009 87.2278 81.7773 84.7546 81.7773ZM84.7546 87.848C83.8552 87.848 83.1807 87.1734 83.1807 86.2741C83.1807 85.3747 83.8552 84.7002 84.7546 84.7002C85.6539 84.7002 86.3284 85.3747 86.3284 86.2741C86.1036 87.1734 85.4291 87.848 84.7546 87.848Z" fill="#174282"/>
<path d="M54.1765 57.2696H69.4655C71.2642 57.2696 72.6132 55.9206 72.6132 54.1219V41.9807C72.6132 40.182 71.2642 38.833 69.4655 38.833V35.9101C69.4655 33.8866 68.5661 31.863 67.2171 30.514C65.8681 29.165 63.8445 28.2656 61.821 28.2656C57.5491 28.2656 54.1765 31.6382 54.1765 35.9101V39.0578C52.3778 39.0578 51.0288 40.4068 51.0288 42.2055V54.3468C51.0288 55.9206 52.3778 57.2696 54.1765 57.2696ZM57.0994 35.9101C57.0994 33.4369 59.123 31.4133 61.5962 31.4133C62.7204 31.4133 64.0694 31.863 64.7439 32.7624C65.6432 33.6617 66.0929 34.7859 66.0929 35.9101V39.0578H56.8746V35.9101H57.0994ZM54.1765 41.9807H69.4655V54.1219H63.3949V49.6252H60.2471V54.1219H54.1765V41.9807Z" fill="#174282"/>
<path d="M63.3948 43.5547H60.2471V46.7024H63.3948V43.5547Z" fill="#174282"/>
<path d="M55.5257 68.0625H49.4551V71.2102H55.5257V68.0625Z" fill="#174282"/>
<path d="M76.8851 68.0625H70.8145V71.2102H76.8851V68.0625Z" fill="#174282"/>
<path d="M102.517 62.8909L89.9258 60.6425L82.9559 51.649C82.731 51.1993 82.2814 50.7497 81.8317 50.3C82.5062 48.0516 82.9559 45.8032 82.9559 43.5549C83.1807 31.8633 73.5127 22.1953 61.8212 22.1953C50.1296 22.1953 40.4616 31.8633 40.4616 43.5549C40.4616 46.0281 40.9113 48.5013 41.8107 50.9745L31.2433 61.317C30.7936 61.7667 30.1191 61.9915 29.6694 62.2164L17.9779 64.2399C14.8302 64.9144 12.8066 67.3876 12.8066 70.3105V81.7772C12.8066 85.1498 15.5047 87.8478 18.8772 87.8478H26.7466C27.4211 93.0191 31.9178 97.0661 37.3139 97.0661C42.71 97.0661 47.2067 93.0191 47.8813 87.8478H74.1872C74.8617 93.0191 79.3585 97.0661 84.7546 97.0661C90.1507 97.0661 94.6474 93.0191 95.3219 87.8478H101.617C104.99 87.8478 107.688 85.1498 107.688 81.7772V68.7366C107.688 65.8138 105.44 63.3405 102.517 62.8909ZM61.8212 25.343C71.9389 25.343 80.2578 33.662 80.2578 43.7797C80.2578 46.0281 79.8082 48.2764 78.9088 50.5248C78.2343 52.5484 76.8853 54.347 75.5362 56.1457C72.1637 59.968 66.9924 62.2164 61.8212 62.2164C56.2002 62.2164 51.029 59.7431 47.4316 55.4712C46.3074 54.1222 45.4081 52.7732 44.7335 51.1993C43.8342 48.951 43.1597 46.4777 43.1597 44.0045C43.3845 33.4372 51.7035 25.343 61.8212 25.343ZM46.9819 81.7772H58.6735V84.9249H47.8813C47.6564 83.8007 47.4316 82.6766 46.9819 81.7772ZM44.7335 78.8543C43.1597 77.2805 41.1361 76.1563 38.8878 75.9314C39.1126 72.1092 40.2368 68.5118 41.8107 65.1392H58.6735V78.8543H44.7335ZM46.3074 58.3941C47.6564 59.7431 49.0054 60.8673 50.5793 61.7667H43.6094L43.8342 61.5418L46.3074 58.3941ZM61.8212 64.9144H80.2578V70.985C77.7846 70.985 75.3114 71.8844 73.2879 73.2334C71.2643 74.5824 69.6905 76.3811 68.5663 78.6295H61.8212V64.9144ZM72.6134 61.9915C73.9624 61.0922 75.0866 60.1928 76.2108 59.0686L78.2343 61.9915H72.6134ZM18.4276 67.3876L23.1492 66.4883L22.9243 67.3876C22.4746 68.9615 21.3505 70.0857 20.0014 70.5353L15.9544 71.8844V70.0857C15.9544 68.9615 16.8537 67.6125 18.4276 67.3876ZM15.9544 81.7772V75.2569L20.9008 73.6831C23.374 72.7837 25.1727 70.7602 25.8472 68.287L26.5217 66.0386L30.1191 65.3641C31.2433 65.1392 32.3675 64.4647 33.2668 63.7902L42.9348 54.1222C43.3845 54.7967 43.8342 55.4712 44.2839 56.1457L41.5858 59.968C40.9113 60.8673 40.2368 61.9915 39.5623 62.8909C37.3139 66.9379 35.9649 71.4347 35.74 75.9314C31.0185 76.6059 27.4211 80.2033 26.7466 84.9249H18.8772C17.3034 84.9249 15.9544 83.5759 15.9544 81.7772ZM37.3139 94.1433C33.042 94.1433 29.6694 90.7707 29.6694 86.4988C29.6694 82.2269 33.042 78.8543 37.3139 78.8543C39.5623 78.8543 41.5858 79.7537 42.9348 81.3275C44.2839 82.6766 44.9584 84.4753 44.9584 86.4988C44.9584 90.5459 41.5858 94.1433 37.3139 94.1433ZM84.7546 94.1433C80.4827 94.1433 77.1101 90.7707 77.1101 86.4988C77.1101 82.2269 80.4827 78.8543 84.7546 78.8543C89.0265 78.8543 92.399 82.2269 92.399 86.4988C92.399 90.5459 88.8017 94.1433 84.7546 94.1433ZM87.6775 74.1327C87.6775 73.6831 87.9023 73.4582 88.1271 73.0085C88.352 72.7837 88.8017 72.5589 89.2513 72.5589H92.399C93.2984 72.5589 93.9729 73.2334 93.9729 74.1327C93.9729 74.5824 93.7481 74.8072 93.5232 75.2569C93.2984 75.4818 92.8487 75.7066 92.399 75.7066H89.2513C88.352 75.7066 87.6775 75.0321 87.6775 74.1327ZM101.393 84.9249H95.0971C94.6474 82.4517 93.5232 80.4282 91.9494 78.8543H92.1742C93.5232 78.8543 94.6474 78.4046 95.3219 77.5053C96.2213 76.6059 96.671 75.4818 96.671 74.3576C96.671 71.8844 94.6474 69.8608 92.1742 69.8608H89.2513C87.9023 69.8608 86.7781 70.3105 86.1036 71.2098C85.2042 72.1092 84.7546 73.2334 84.7546 74.3576C84.7546 74.8072 84.7546 75.4818 84.9794 75.9314H84.7546C79.3585 75.9314 74.8617 79.9785 74.1872 85.1498H61.8212V82.002H70.5898L71.0395 81.1027C71.714 79.0792 73.2879 77.5053 74.8617 76.1563C76.6604 75.0321 78.684 74.3576 80.9323 74.3576H83.4056V63.1157L78.684 57.0451C79.5833 55.9209 80.2578 54.7967 80.9323 53.6725L88.5768 63.5654L102.292 66.0386C103.641 66.2634 104.765 67.6124 104.765 68.9615V69.636H100.268V72.7837H104.765V75.9314H100.268V79.0792H104.765V82.2269C104.54 83.5759 103.191 84.9249 101.393 84.9249Z" fill="#174282"/>
</svg>
