<svg xmlns="http://www.w3.org/2000/svg" viewBox="0 0 117.57 106.57"><defs><style>.cls-1,.cls-2{fill:none;stroke-miterlimit:10;stroke-width:7.57px;}.cls-1{stroke:#00346a;fill-rule:evenodd;}.cls-2{stroke:#009ceb;}</style></defs><g id="Layer_2" data-name="Layer 2"><g id="Capa_1" data-name="Capa 1"><path class="cls-1" d="M25.78,91.78v2.75a8.24,8.24,0,0,1-8.24,8.25H12a8.25,8.25,0,0,1-8.25-8.25V51.87A19.23,19.23,0,0,1,9.42,38.26l6.82-7.15,5.59-15.22h0A19.25,19.25,0,0,1,39.7,3.79H77.86a19.24,19.24,0,0,1,17.87,12.1l4.41,14.67,8,7.7a19.24,19.24,0,0,1,5.64,13.61V94.53a8.25,8.25,0,0,1-8.25,8.25H100a8.25,8.25,0,0,1-8.25-8.25V91.78"/><line class="cls-2" x1="21.08" y1="91.01" x2="96.21" y2="91.01"/><polyline class="cls-1" points="37.71 50 49.34 61.63 79.85 35.59"/></g></g></svg>