<svg width="120" height="120" viewBox="0 0 120 120" fill="none" xmlns="http://www.w3.org/2000/svg">
<path d="M78.4086 93.6829C78.4086 84.2587 78.4086 90.2354 78.4086 90.2354V64.4583C78.4086 64.0311 78.5761 63.6215 78.8744 63.3194C79.1727 63.0174 79.5773 62.8477 79.9991 62.8477H82.3394L60.9114 42.5008L50.8636 52.0374C50.6374 52.2525 50.354 52.396 50.0484 52.4501C49.7427 52.5042 49.4282 52.4666 49.1433 52.3419C48.8585 52.2172 48.6159 52.0108 48.4454 51.7483C48.275 51.4857 48.1841 51.1785 48.184 50.8642V45.1289H43.4125V58.4197C43.4129 58.6392 43.3692 58.8564 43.2838 59.0581C43.1984 59.2598 43.0732 59.4419 42.916 59.5929L39.4867 62.8477H41.8269C42.0359 62.8474 42.2429 62.889 42.4361 62.9698C42.6292 63.0506 42.8048 63.1692 42.9527 63.3188C43.1005 63.4684 43.2178 63.646 43.2978 63.8416C43.3779 64.0371 43.4192 64.2466 43.4192 64.4583L43.5647 94.5695L40.2232 90.2354V66.0707H35.4517C35.1327 66.0704 34.8211 65.973 34.5574 65.7913C34.2936 65.6096 34.0899 65.3519 33.9725 65.0515C33.8551 64.7511 33.8296 64.422 33.8992 64.1067C33.9687 63.7915 34.1302 63.5047 34.3626 63.2834L40.2232 57.7191V43.5149C40.2232 43.0877 40.3908 42.678 40.6891 42.3759C40.9874 42.0739 41.3919 41.9043 41.8137 41.9043H49.7696C50.1914 41.9043 50.5959 42.0739 50.8942 42.3759C51.1924 42.678 51.3601 43.0877 51.3601 43.5149V47.1434L59.8174 39.117C60.1124 38.8373 60.5014 38.6816 60.9056 38.6816C61.3098 38.6816 61.6987 38.8373 61.9937 39.117L87.3806 63.2197C87.6321 63.4315 87.8131 63.7166 87.8988 64.0363C87.9845 64.356 87.9708 64.6948 87.8595 65.0063C87.7482 65.3178 87.5448 65.5869 87.277 65.7771C87.0091 65.9673 86.6899 66.0692 86.3628 66.0689H81.5863V90.2337C81.5863 92.0103 80.1596 87.4783 78.4053 94.4874" fill="#003366"/>
<path d="M67.272 93.4596C66.85 93.4592 66.4454 93.289 66.1472 92.9867C65.8489 92.6844 65.6815 92.2745 65.6815 91.8472V70.8971H56.1367V91.8472C56.1367 92.2746 55.9691 92.6845 55.6706 92.9867C55.3722 93.2889 54.9675 93.4587 54.5454 93.4587C54.1234 93.4587 53.7186 93.2889 53.4202 92.9867C53.1218 92.6845 52.9541 92.2746 52.9541 91.8472V70.8971C52.9554 70.0428 53.2912 69.224 53.8878 68.6202C54.4844 68.0163 55.2932 67.6767 56.1367 67.6758H65.6815C66.5249 67.6767 67.3334 68.0164 67.9298 68.6203C68.5262 69.2242 68.8616 70.043 68.8625 70.8971V91.8472C68.8625 92.2745 68.6949 92.6844 68.3967 92.9867C68.0985 93.289 67.694 93.4592 67.272 93.4596Z" fill="#003366"/>
<path d="M60.0838 104.918C59.8737 104.917 59.666 104.872 59.4748 104.783C39.9187 95.748 25.8772 83.6657 17.7228 68.8648C13.3775 61.2052 10.8911 52.6099 10.4686 43.7867C10.447 43.3794 10.4322 42.9369 10.4322 42.4911C10.3498 35.6821 12.7938 29.0899 17.2808 24.0181C19.7732 21.323 22.8042 19.1965 26.1717 17.7805C29.5392 16.3644 33.1659 15.6912 36.8104 15.8056C41.4929 15.7666 46.104 16.968 50.1865 19.2905C54.269 21.6131 57.6809 24.9762 60.0838 29.0462C62.4869 24.9764 65.8989 21.6135 69.9813 19.291C74.0637 16.9684 78.6748 15.767 83.3572 15.8056C87.0018 15.6903 90.6288 16.3632 93.9964 17.7793C97.364 19.1955 100.395 21.3223 102.887 24.0181C107.373 29.0903 109.817 35.6823 109.735 42.4911C109.735 42.9386 109.72 43.3811 109.697 43.8219C109.426 52.9092 105.088 84.2724 60.6928 104.783C60.5016 104.872 60.2939 104.917 60.0838 104.918ZM36.8088 18.7705C33.5727 18.6609 30.3506 19.2509 27.3572 20.5011C24.3638 21.7513 21.6679 23.6331 19.4489 26.021C15.458 30.5442 13.2887 36.4193 13.37 42.4844C13.37 42.8783 13.3848 43.2687 13.4047 43.6576C14.4126 77.4426 48.5944 96.3766 60.0771 101.787C71.5665 96.3766 105.748 77.4444 106.75 43.6929C106.771 43.2688 106.786 42.8783 106.786 42.4861C106.867 36.4211 104.697 30.5462 100.707 26.0226C98.4876 23.6348 95.7914 21.7532 92.7978 20.5031C89.8042 19.2529 86.5819 18.6628 83.3456 18.7722C78.7188 18.7022 74.1739 20.0124 70.2774 22.5397C66.3808 25.067 63.3048 28.6995 61.4327 32.9848C61.3223 33.2583 61.1339 33.4925 60.8916 33.6573C60.6493 33.822 60.364 33.91 60.0722 33.91C59.7803 33.91 59.4951 33.822 59.2528 33.6573C59.0105 33.4925 58.8222 33.2583 58.7118 32.9848C56.8396 28.6995 53.7636 25.067 49.867 22.5397C45.9704 20.0124 41.4257 18.7022 36.7989 18.7722L36.8088 18.7705Z" fill="#00A6D0"/>
</svg>
