<svg width="100" height="89" viewBox="0 0 100 89" fill="none" xmlns="http://www.w3.org/2000/svg">
<path d="M50.0018 88.4728C49.7915 88.4723 49.5836 88.4272 49.3919 88.3405C29.8644 79.4304 15.8406 67.5155 7.69733 52.9215C3.35909 45.3677 0.876793 36.8917 0.454823 28.191C0.433337 27.7894 0.418507 27.3531 0.418507 26.9135C0.336463 20.1985 2.77706 13.6971 7.2577 8.69489C9.74691 6.03737 12.7736 3.9406 16.1364 2.54418C19.4993 1.14776 23.121 0.483685 26.7605 0.596234C31.4365 0.55775 36.0413 1.74246 40.1182 4.03283C44.195 6.3232 47.6022 9.63968 50.0018 13.6532C52.4014 9.63968 55.8087 6.3232 59.8855 4.03283C63.9624 1.74246 68.5672 0.55775 73.2432 0.596234C90.5379 0.596234 99.5852 13.8367 99.5852 26.9184C99.5852 27.3581 99.5703 27.7943 99.5471 28.229C99.2761 37.1937 94.9425 68.1204 50.6117 88.3455C50.4197 88.4305 50.2118 88.4739 50.0018 88.4728ZM26.7605 3.51997C23.5284 3.41243 20.3106 3.9946 17.3211 5.22772C14.3317 6.46085 11.6391 8.31667 9.42284 10.6716C5.43744 15.1321 3.27111 20.9258 3.35223 26.9068C3.35223 27.2936 3.36544 27.6787 3.38693 28.0638C4.39678 61.3838 38.5282 80.0519 49.9952 85.387C61.4688 80.0519 95.6003 61.3838 96.6035 28.0985C96.625 27.682 96.6382 27.2969 96.6382 26.9101C96.6382 11.5575 84.8623 3.5233 73.23 3.5233C68.6094 3.45413 64.0705 4.74643 60.1793 7.23902C56.288 9.73161 53.2164 13.3143 51.3472 17.5405C51.237 17.8103 51.0488 18.0412 50.8068 18.2037C50.5649 18.3662 50.2801 18.453 49.9886 18.453C49.6972 18.453 49.4123 18.3662 49.1703 18.2037C48.9283 18.0412 48.7403 17.8103 48.63 17.5405C46.7612 13.317 43.6914 9.73639 39.8028 7.24457C35.9142 4.75275 31.3785 3.45979 26.7605 3.52663V3.51997Z" fill="#00A6D0"/>
<path d="M60.9562 69.0553H59.3035C57.4487 69.039 55.6273 68.5612 54.0033 67.6649C52.3794 66.7687 51.0041 65.4823 50.0016 63.9218C48.9991 65.4823 47.6238 66.7687 45.9999 67.6649C44.376 68.5612 42.5546 69.039 40.6998 69.0553H39.047C37.1042 69.0549 35.1887 68.5964 33.4563 67.717C31.7239 66.8376 30.2233 65.5622 29.0761 63.9942C27.9289 62.4262 27.1676 60.6098 26.854 58.6924C26.5403 56.775 26.6832 54.8107 27.271 52.9589L33.221 34.2544C34.353 30.6903 36.5899 27.579 39.608 25.3709C42.6261 23.1628 46.2687 21.9727 50.0083 21.9727C53.7479 21.9727 57.3904 23.1628 60.4085 25.3709C63.4265 27.579 65.6635 30.6903 66.7955 34.2544L72.7455 52.9589C73.3333 54.8107 73.4761 56.775 73.1625 58.6924C72.8489 60.6098 72.0876 62.4262 70.9405 63.9942C69.7933 65.5622 68.2926 66.8376 66.5602 67.717C64.8277 68.5964 62.9123 69.0549 60.9694 69.0553H60.9562ZM51.4693 59.0246C51.4693 62.7384 55.2029 66.1216 59.3035 66.1216H60.9562C62.4379 66.1216 63.8986 65.7721 65.2198 65.1015C66.541 64.431 67.6855 63.4583 68.5602 62.2623C69.4349 61.0664 70.0151 59.6811 70.2538 58.2188C70.4925 56.7565 70.383 55.2584 69.9341 53.8464L63.9842 35.1419C63.0401 32.1724 61.1755 29.5803 58.6605 27.7408C56.1454 25.9013 53.1102 24.9098 49.9942 24.9098C46.8782 24.9098 43.8431 25.9013 41.328 27.7408C38.8129 29.5803 36.9484 32.1724 36.0043 35.1419L30.0625 53.8464C29.6136 55.2584 29.5041 56.7565 29.7428 58.2188C29.9815 59.6811 30.5618 61.0664 31.4364 62.2623C32.3111 63.4583 33.4556 64.431 34.7768 65.1015C36.098 65.7721 37.5587 66.1216 39.0404 66.1216H40.6932C44.7937 66.1216 48.5273 62.7384 48.5273 59.0246H51.4693Z" fill="#003366"/>
<path d="M50.0017 57.5305C48.4663 57.4616 47.0066 56.8441 45.888 55.7901C44.7694 54.7361 44.0662 53.3157 43.9062 51.7871C43.9063 49.2022 46.5837 47.1758 50.0017 47.1758C53.4196 47.1758 56.0971 49.2022 56.0971 51.7871C55.9371 53.3157 55.234 54.7361 54.1154 55.7901C52.9968 56.8441 51.5371 57.4616 50.0017 57.5305ZM50.0017 50.1095C48.2216 50.1095 46.8399 51.0119 46.8399 51.7871C46.9304 52.5621 47.3025 53.2769 47.8854 53.7957C48.4683 54.3144 49.2214 54.6011 50.0017 54.6011C50.782 54.6011 51.5351 54.3144 52.118 53.7957C52.7009 53.2769 53.073 52.5621 53.1635 51.7871C53.1635 51.0119 51.7817 50.1095 50.0017 50.1095Z" fill="#003366"/>
<path d="M51.4679 56.0645H48.5342V59.8063H51.4679V56.0645Z" fill="#003366"/>
<path d="M27.6329 56.074C23.7508 56.2175 19.9191 55.1583 16.6618 53.0413C14.6558 51.6149 13.2792 49.4679 12.8199 47.0497C12.3606 44.6316 12.8541 42.1294 14.1974 40.0669C17.2019 35.3457 21.3081 31.4249 26.1629 28.6415C31.0178 25.8581 36.476 24.2954 42.0683 24.0879L42.0204 27.0232C36.9352 27.2827 31.9845 28.7465 27.5757 31.2938C23.167 33.8411 19.4263 37.3992 16.6618 41.6751C15.732 43.0965 15.3879 44.8224 15.7015 46.4917C16.0151 48.161 16.9621 49.6444 18.3443 50.6315C21.2573 52.485 24.6852 53.3621 28.1304 53.1355L28.1866 56.0691C27.9966 56.0724 27.8131 56.074 27.6329 56.074Z" fill="#003366"/>
<path d="M72.3688 56.073C72.1881 56.073 72.0063 56.073 71.8234 56.073L71.8796 53.1394C75.3262 53.3755 78.7575 52.4976 81.6673 50.6354C83.0496 49.6483 83.9965 48.165 84.3101 46.4957C84.6237 44.8264 84.2797 43.1004 83.3499 41.679C80.5867 37.4018 76.8464 33.8427 72.4373 31.2952C68.0283 28.7477 63.0768 27.2848 57.9913 27.0271L57.9434 24.0918C63.5351 24.2959 68.9932 25.8572 73.847 28.641C78.7008 31.4248 82.8045 35.3475 85.8042 40.0709C87.1477 42.1332 87.6416 44.6352 87.1826 47.0533C86.7236 49.4715 85.3473 51.6185 83.3416 53.0452C80.0831 55.1604 76.251 56.2178 72.3688 56.073Z" fill="#003366"/>
<path d="M43.1726 46.3015C42.7836 46.3011 42.4107 46.1463 42.1358 45.8711C41.861 45.5959 41.7066 45.2228 41.7066 44.8339C41.7066 44.5643 41.5994 44.3057 41.4088 44.1151C41.2182 43.9245 40.9597 43.8174 40.6902 43.8174C40.4206 43.8174 40.162 43.9245 39.9714 44.1151C39.7808 44.3057 39.6736 44.5643 39.6736 44.8339C39.6736 45.2231 39.519 45.5965 39.2438 45.8717C38.9685 46.1469 38.5952 46.3015 38.2059 46.3015C37.8167 46.3015 37.4435 46.1469 37.1682 45.8717C36.893 45.5965 36.7383 45.2231 36.7383 44.8339C36.7594 43.8 37.185 42.8156 37.9237 42.0919C38.6623 41.3682 39.6552 40.9629 40.6893 40.9629C41.7233 40.9629 42.7163 41.3682 43.4549 42.0919C44.1936 42.8156 44.6191 43.8 44.6402 44.8339C44.6398 45.223 44.485 45.596 44.2099 45.8712C43.9347 46.1463 43.5617 46.3011 43.1726 46.3015Z" fill="#003366"/>
<path d="M61.7958 46.3025C61.4069 46.3021 61.034 46.1472 60.7591 45.872C60.4842 45.5969 60.3299 45.2238 60.3299 44.8348C60.3299 44.5652 60.2227 44.3067 60.0321 44.1161C59.8415 43.9255 59.5829 43.8184 59.3133 43.8184C59.0438 43.8184 58.7853 43.9255 58.5947 44.1161C58.4041 44.3067 58.2969 44.5652 58.2969 44.8348C58.2969 45.2239 58.1423 45.597 57.8673 45.872C57.5922 46.1471 57.2191 46.3017 56.83 46.3017C56.441 46.3017 56.068 46.1471 55.7929 45.872C55.5178 45.597 55.3633 45.2239 55.3633 44.8348C55.3633 43.7872 55.7795 42.7825 56.5202 42.0417C57.261 41.3009 58.2657 40.8848 59.3133 40.8848C60.361 40.8848 61.3657 41.3009 62.1065 42.0417C62.8473 42.7825 63.2635 43.7872 63.2635 44.8348C63.2631 45.2239 63.1083 45.597 62.8332 45.8722C62.558 46.1473 62.185 46.3021 61.7958 46.3025Z" fill="#003366"/>
<path d="M50.0018 71.9683C48.3849 72.0028 46.7782 71.7056 45.2807 71.095C43.7832 70.4844 42.4267 69.5734 41.2949 68.4182L43.4667 66.4464C45.2503 68.1244 47.6116 69.0512 50.0605 69.0343C52.5093 69.0173 54.8576 68.058 56.6178 66.3555L58.8293 68.2826C57.6987 69.4818 56.3285 70.4296 54.8077 71.0646C53.2868 71.6996 51.6494 72.0075 50.0018 71.9683Z" fill="#003366"/>
<path d="M36.3682 78.9559L33.4512 78.6369C33.9419 74.3668 35.4563 70.2782 37.8657 66.7188L40.2309 68.4558C38.1377 71.6045 36.8145 75.2014 36.3682 78.9559Z" fill="#003366"/>
<path d="M63.6356 78.9559C63.1893 75.2014 61.8661 71.6045 59.7729 68.4558L62.1381 66.7188C64.5475 70.2782 66.0619 74.3668 66.5526 78.6369L63.6356 78.9559Z" fill="#003366"/>
</svg>
