<svg width="100" height="89" viewBox="0 0 100 89" fill="none" xmlns="http://www.w3.org/2000/svg">
<path d="M57.9085 50.648L51.7618 50.6397L43.6038 50.648C42.1158 50.6497 40.6813 50.0929 39.5842 49.0877L37.2901 46.987C37.1842 46.8996 37.0971 46.7915 37.0343 46.6694C36.9715 46.5472 36.9342 46.4135 36.9248 46.2764C36.9153 46.1394 36.9339 46.0019 36.9793 45.8722C37.0248 45.7426 37.0961 45.6236 37.1891 45.5225C37.282 45.4213 37.3946 45.3401 37.5199 45.2839C37.6453 45.2277 37.7808 45.1976 37.9181 45.1954C38.0555 45.1933 38.1918 45.2192 38.3188 45.2715C38.4458 45.3238 38.5609 45.4014 38.6569 45.4996L40.951 47.5985C41.6753 48.2615 42.6219 48.6289 43.6038 48.6283L51.7652 48.62L57.9118 48.6283C58.8909 48.627 59.8341 48.2597 60.5562 47.5985L62.852 45.4996C62.9481 45.4014 63.0631 45.3238 63.1901 45.2715C63.3172 45.2192 63.4535 45.1933 63.5908 45.1954C63.7282 45.1976 63.8637 45.2277 63.989 45.2839C64.1143 45.3401 64.2269 45.4213 64.3199 45.5225C64.4128 45.6236 64.4842 45.7426 64.5296 45.8722C64.575 46.0019 64.5936 46.1394 64.5842 46.2764C64.5747 46.4135 64.5374 46.5472 64.4746 46.6694C64.4118 46.7915 64.3247 46.8996 64.2188 46.987L61.9231 49.0877C60.8274 50.092 59.3948 50.6488 57.9085 50.648Z" fill="#003366"/>
<path d="M67.8699 61.7769H61.9199V59.1159C61.9261 58.0735 62.3045 57.0677 62.987 56.2797C63.6695 55.4918 64.6111 54.9736 65.642 54.8187L67.7277 54.5311C67.9896 54.5032 68.2522 54.5783 68.4596 54.7406C68.667 54.9029 68.803 55.1396 68.8389 55.4005C68.8748 55.6614 68.8077 55.926 68.6518 56.1383C68.4959 56.3506 68.2635 56.4938 68.0038 56.5376L65.9263 56.8236C65.3761 56.9071 64.8738 57.1845 64.5102 57.6058C64.1465 58.027 63.9453 58.5644 63.9429 59.1209V59.7572H67.8633C67.9997 59.7517 68.1358 59.7738 68.2634 59.8222C68.391 59.8706 68.5075 59.9443 68.606 60.0388C68.7044 60.1334 68.7828 60.2469 68.8363 60.3724C68.8898 60.498 68.9174 60.6331 68.9174 60.7696C68.9174 60.9061 68.8898 61.0412 68.8363 61.1667C68.7828 61.2923 68.7044 61.4057 68.606 61.5002C68.5075 61.5948 68.391 61.6685 68.2634 61.7169C68.1358 61.7653 67.9997 61.7874 67.8633 61.7819L67.8699 61.7769Z" fill="#003366"/>
<path d="M38.9892 61.7771H28.6131C28.3517 61.7666 28.1045 61.6552 27.9233 61.4665C27.7421 61.2778 27.6408 61.0264 27.6408 60.7647C27.6408 60.5031 27.7421 60.2517 27.9233 60.063C28.1045 59.8743 28.3517 59.763 28.6131 59.7524H36.9629V59.1161C36.9606 58.5594 36.7595 58.0218 36.3958 57.6003C36.0322 57.1788 35.5299 56.901 34.9796 56.8171L28.4808 55.923C28.346 55.9086 28.2153 55.8673 28.0967 55.8015C27.9781 55.7356 27.8739 55.6467 27.7903 55.5399C27.7068 55.433 27.6455 55.3105 27.6102 55.1795C27.5748 55.0486 27.5662 54.9118 27.5847 54.7774C27.6031 54.6431 27.6484 54.5138 27.7178 54.3972C27.7872 54.2807 27.8792 54.1792 27.9886 54.0989C28.0979 54.0186 28.2223 53.9611 28.3542 53.9298C28.4862 53.8984 28.6231 53.8939 28.7569 53.9165L35.2639 54.8122C36.2959 54.966 37.2391 55.4836 37.9231 56.2715C38.6071 57.0595 38.9871 58.0661 38.9942 59.1095L38.9892 61.7771Z" fill="#003366"/>
<path d="M23.5673 67.4794C23.2987 67.479 23.0413 67.3722 22.8514 67.1822C22.6615 66.9923 22.5546 66.7349 22.5542 66.4663V50.9467C22.5542 50.678 22.661 50.4204 22.851 50.2304C23.041 50.0404 23.2986 49.9336 23.5673 49.9336C23.836 49.9336 24.0937 50.0404 24.2837 50.2304C24.4737 50.4204 24.5805 50.678 24.5805 50.9467V66.4663C24.5801 66.7349 24.4731 66.9923 24.2832 67.1822C24.0933 67.3722 23.8359 67.479 23.5673 67.4794Z" fill="#003366"/>
<path d="M78.9485 68.781C78.6802 68.781 78.4229 68.6744 78.2332 68.4848C78.0435 68.2951 77.937 68.0378 77.937 67.7695V48.8105L79.1865 47.4536C79.25 47.4029 79.3018 47.3392 79.3386 47.2668C79.3753 47.1944 79.3962 47.1149 79.3997 47.0338V43.9728C79.3997 43.8413 79.3475 43.7152 79.2545 43.6222C79.1615 43.5292 79.0354 43.477 78.9039 43.477H72.3919L67.0452 33.2298C66.6373 32.7157 66.1187 32.3002 65.5281 32.0141C64.9375 31.728 64.2901 31.5785 63.6338 31.577H37.2753C36.6191 31.5783 35.9716 31.7275 35.381 32.0137C34.7903 32.2998 34.2718 32.7155 33.8641 33.2298L28.5172 43.477H22.0053C21.8738 43.477 21.7477 43.5292 21.6548 43.6222C21.5618 43.7152 21.5095 43.8413 21.5095 43.9728V47.0338C21.5101 47.1028 21.5251 47.1709 21.5536 47.2338C21.582 47.2967 21.6234 47.353 21.6748 47.399L24.3192 50.2616C24.4191 50.3574 24.4984 50.4725 24.5521 50.6001C24.6057 50.7276 24.6327 50.8647 24.6313 51.0031C24.63 51.1414 24.6003 51.2781 24.5441 51.4046C24.4879 51.531 24.4065 51.6446 24.3047 51.7384C24.2029 51.8321 24.083 51.904 23.9523 51.9496C23.8217 51.9952 23.6832 52.0137 23.5452 52.0037C23.4072 51.9937 23.2727 51.9555 23.15 51.8915C23.0273 51.8276 22.9189 51.7392 22.8317 51.6317L20.2484 48.822C20.0092 48.5893 19.8194 48.3106 19.6905 48.0028C19.5615 47.6949 19.4961 47.3642 19.4981 47.0304V43.9695C19.499 43.3008 19.7649 42.6599 20.2377 42.1871C20.7105 41.7143 21.3516 41.4482 22.0202 41.4474H27.3091L32.2212 32.0612C32.8165 31.2795 33.5839 30.6454 34.4638 30.208C35.3437 29.7706 36.3126 29.5417 37.2952 29.5391H63.6488C64.6314 29.5418 65.6001 29.7708 66.48 30.2082C67.3599 30.6456 68.1274 31.2796 68.7228 32.0612L68.8137 32.2051L73.6348 41.4474H78.9237C79.5922 41.4482 80.233 41.7143 80.7055 42.1872C81.1781 42.66 81.4437 43.301 81.4442 43.9695V47.0304C81.444 47.3768 81.3726 47.7194 81.2344 48.037C81.0963 48.3546 80.8943 48.6404 80.641 48.8766L79.9798 49.5972V67.7662C79.9803 67.901 79.9538 68.0345 79.902 68.1589C79.8501 68.2833 79.7739 68.3962 79.6778 68.4907C79.5817 68.5853 79.4677 68.6597 79.3425 68.7095C79.2172 68.7594 79.0832 68.7837 78.9485 68.781Z" fill="#003366"/>
<path d="M72.6084 72.7949C71.0838 72.7935 69.6221 72.1873 68.5441 71.1093C67.466 70.0312 66.8597 68.5694 66.8584 67.0448V66.4664C66.869 66.205 66.9803 65.9578 67.169 65.7766C67.3577 65.5954 67.6092 65.4941 67.8708 65.4941C68.1324 65.4941 68.3838 65.5954 68.5725 65.7766C68.7612 65.9578 68.8725 66.205 68.8831 66.4664V67.0448C68.884 68.0326 69.2768 68.9797 69.9752 69.6781C70.6737 70.3766 71.6207 70.7694 72.6084 70.7702C72.8769 70.7702 73.1344 70.8769 73.3242 71.0667C73.5141 71.2566 73.6208 71.5141 73.6208 71.7825C73.6208 72.051 73.5141 72.3085 73.3242 72.4984C73.1344 72.6882 72.8769 72.7949 72.6084 72.7949Z" fill="#003366"/>
<path d="M28.3058 72.7947C26.7811 72.7934 25.3192 72.1872 24.2409 71.1092C23.1626 70.0312 22.5559 68.5694 22.5542 67.0447V66.4662C22.5542 66.1975 22.661 65.9398 22.851 65.7498C23.041 65.5598 23.2986 65.4531 23.5673 65.4531C23.836 65.4531 24.0937 65.5598 24.2837 65.7498C24.4737 65.9398 24.5805 66.1975 24.5805 66.4662V67.0447C24.5805 68.0327 24.973 68.9803 25.6716 69.679C26.3703 70.3776 27.3178 70.7701 28.3058 70.7701C29.2939 70.7701 30.2414 70.3776 30.94 69.679C31.6387 68.9803 32.0312 68.0327 32.0312 67.0447V66.4662C32.0312 66.1978 32.1379 65.9403 32.3277 65.7504C32.5176 65.5606 32.7751 65.4539 33.0435 65.4539C33.312 65.4539 33.5695 65.5606 33.7594 65.7504C33.9492 65.9403 34.0559 66.1978 34.0559 66.4662V67.0447C34.0541 68.5691 33.4477 70.0307 32.3698 71.1086C31.2918 72.1866 29.8303 72.7929 28.3058 72.7947Z" fill="#003366"/>
<path d="M72.2997 67.4797H28.6135C28.345 67.4797 28.0875 67.3731 27.8977 67.1832C27.7078 66.9934 27.6011 66.7359 27.6011 66.4674C27.6011 66.1989 27.7078 65.9414 27.8977 65.7516C28.0875 65.5617 28.345 65.4551 28.6135 65.4551H72.2997C72.5682 65.4551 72.8257 65.5617 73.0155 65.7516C73.2054 65.9414 73.312 66.1989 73.312 66.4674C73.312 66.7359 73.2054 66.9934 73.0155 67.1832C72.8257 67.3731 72.5682 67.4797 72.2997 67.4797Z" fill="#003366"/>
<path d="M54.1885 61.7767H46.7262C46.4648 61.7661 46.2176 61.6548 46.0364 61.4661C45.8551 61.2774 45.7539 61.0259 45.7539 60.7643C45.7539 60.5026 45.8551 60.2512 46.0364 60.0626C46.2176 59.8739 46.4648 59.7625 46.7262 59.752H54.1885C54.4499 59.7625 54.6971 59.8739 54.8783 60.0626C55.0595 60.2512 55.1606 60.5026 55.1606 60.7643C55.1606 61.0259 55.0595 61.2774 54.8783 61.4661C54.6971 61.6548 54.4499 61.7661 54.1885 61.7767Z" fill="#003366"/>
<path d="M67.6191 43.4755H33.2959C33.0272 43.4755 32.7695 43.3688 32.5795 43.1788C32.3895 42.9888 32.2827 42.731 32.2827 42.4623C32.2827 42.1936 32.3895 41.9359 32.5795 41.7459C32.7695 41.5559 33.0272 41.4492 33.2959 41.4492H67.6191C67.8878 41.4492 68.1455 41.5559 68.3355 41.7459C68.5255 41.9359 68.6322 42.1936 68.6322 42.4623C68.6322 42.731 68.5255 42.9888 68.3355 43.1788C68.1455 43.3688 67.8878 43.4755 67.6191 43.4755Z" fill="#003366"/>
<path d="M50.0018 88.473C49.792 88.4728 49.5846 88.4277 49.3936 88.3408C29.8644 79.4306 15.8423 67.5158 7.69904 52.9218C3.35985 45.3677 0.87691 36.891 0.454819 28.1896C0.433333 27.7896 0.418503 27.3533 0.418503 26.912C0.33655 20.1975 2.77716 13.6967 7.2577 8.69513C9.7467 6.03736 12.7735 3.94036 16.1363 2.54392C19.4992 1.14748 23.1209 0.483611 26.7605 0.596481C31.4365 0.557831 36.0414 1.74249 40.1183 4.03287C44.1951 6.32326 47.6024 9.63981 50.0018 13.6535C52.4016 9.64003 55.8088 6.32363 59.8856 4.03328C63.9624 1.74292 68.5672 0.558161 73.2432 0.596481C76.8828 0.482758 80.5049 1.14632 83.8678 2.54281C87.2308 3.93931 90.2575 6.03668 92.746 8.69513C97.2265 13.6967 99.6671 20.1975 99.5852 26.912C99.5852 27.3533 99.5703 27.7896 99.5471 28.2259C99.2777 37.1856 94.9474 68.1141 50.61 88.3408C50.419 88.4277 50.2117 88.4728 50.0018 88.473ZM26.7588 3.52021C23.5272 3.41259 20.3097 3.99463 17.3205 5.22747C14.3314 6.4603 11.639 8.31573 9.42283 10.6702C5.43813 15.1311 3.27191 20.9245 3.35222 26.9054C3.35222 27.2922 3.36709 27.6772 3.38693 28.0623C4.39347 61.3807 38.5282 80.0505 49.9952 85.3857C61.4688 80.0505 95.6119 61.3807 96.6035 28.0971C96.6267 27.679 96.6399 27.2938 96.6399 26.9071C96.7203 20.9262 94.5539 15.1327 90.5692 10.6718C88.3529 8.31713 85.6603 6.46162 82.6708 5.22878C79.6813 3.99594 76.4635 3.41407 73.2316 3.52193C68.611 3.45276 64.0722 4.74496 60.1809 7.23755C56.2896 9.73014 53.218 13.3129 51.3489 17.5392C51.2386 17.809 51.0505 18.0397 50.8086 18.2022C50.5666 18.3647 50.2817 18.4515 49.9902 18.4515C49.6988 18.4515 49.414 18.3647 49.172 18.2022C48.9301 18.0397 48.742 17.809 48.6317 17.5392C46.7626 13.3129 43.6909 9.73014 39.7996 7.23755C35.9083 4.74496 31.3696 3.45276 26.749 3.52193L26.7588 3.52021Z" fill="#00A6D0"/>
</svg>
