<svg width="252" height="66" viewBox="0 0 252 66" fill="none" xmlns="http://www.w3.org/2000/svg">
<g clip-path="url(#clip0_232_3075)">
<path d="M161.451 63.2503C162.154 62.228 162.537 61.046 162.537 59.8002C162.537 56.3501 159.854 53.6348 156.404 53.6348C152.954 53.6348 150.238 56.3501 150.238 59.8002C150.238 63.1864 152.986 65.9336 156.404 65.9336C157.905 65.9336 159.311 65.3906 160.461 64.4003L161.898 65.9017L163.016 64.7517L161.451 63.2503ZM156.404 64.0489C155.222 64.0489 154.231 63.6336 153.497 62.8669C152.73 62.0683 152.251 60.8863 152.251 59.8002C152.251 57.3723 154.04 55.4556 156.372 55.4556C157.713 55.4556 158.672 55.9029 159.502 56.8612C160.205 57.6918 160.557 58.746 160.557 59.8002C160.557 60.8863 160.077 62.0683 159.311 62.8669C158.544 63.6655 157.586 64.0489 156.404 64.0489Z" fill="white"/>
<path d="M197.453 53.6348C194.003 53.6348 191.319 56.3501 191.319 59.8002C191.319 63.1544 194.067 65.9017 197.453 65.9017C200.839 65.9017 203.586 63.1544 203.586 59.8002C203.554 56.3501 200.871 53.6348 197.453 53.6348ZM197.453 64.0489C196.303 64.0489 195.281 63.6336 194.546 62.8669C193.779 62.0683 193.3 60.8863 193.3 59.8002C193.3 57.3723 195.089 55.4556 197.389 55.4556C198.731 55.4556 199.689 55.9029 200.52 56.8612C201.222 57.6918 201.574 58.714 201.574 59.8002C201.574 60.8863 201.095 62.0683 200.328 62.8669C199.593 63.6336 198.603 64.0489 197.453 64.0489Z" fill="white"/>
<path d="M178.031 53.7617H176.018V65.7092H178.031V53.7617Z" fill="white"/>
<path d="M188.189 65.7412L181.608 56.509V65.7412H179.563V53.7617H181.704L188.157 62.7703V53.7617H190.169V65.7412H188.189Z" fill="white"/>
<path d="M174.421 62.0369C174.421 63.1869 174.005 63.9536 172.983 64.6883C171.929 65.487 170.555 65.8703 169.054 65.8703C166.147 65.8703 163.847 64.1453 163.847 62.005V53.7312H165.859V61.7494C165.859 62.6119 166.083 62.8994 166.722 63.3786C167.297 63.8258 168.287 64.0175 169.182 64.0175C170.012 64.0175 171.066 63.7939 171.641 63.3467C172.248 62.8675 172.44 62.6758 172.44 61.7174V53.6992H174.452V62.0369H174.421Z" fill="white"/>
<path d="M210.263 55.4876C211.605 55.4876 212.563 55.9348 213.394 56.8932C213.585 57.1168 213.745 57.3404 213.873 57.596L213.905 57.6599H216.077L215.981 57.4362C215.055 55.1362 212.819 53.6348 210.327 53.6348C206.877 53.6348 204.193 56.3501 204.193 59.8002C204.193 63.1544 206.941 65.9017 210.327 65.9017C212.819 65.9017 215.023 64.4322 215.981 62.1322L216.077 61.9086H213.905L213.873 61.9725C213.681 62.3238 213.457 62.6114 213.234 62.8669C212.499 63.6336 211.509 64.0489 210.359 64.0489C209.209 64.0489 208.187 63.6336 207.452 62.8669C206.685 62.0683 206.206 60.8863 206.206 59.8002C206.174 57.3723 207.963 55.4876 210.263 55.4876Z" fill="white"/>
<path d="M225.98 62.3545C225.852 62.5462 225.693 62.7379 225.565 62.8657C224.83 63.6323 223.84 64.0476 222.69 64.0476C221.54 64.0476 220.518 63.6323 219.783 62.8657C219.016 62.067 218.537 60.8851 218.537 59.7989C218.537 57.3711 220.326 55.4544 222.626 55.4544C223.968 55.4544 224.926 55.9016 225.757 56.86C225.852 56.9558 225.948 57.0836 226.044 57.2433L226.076 57.3072H228.28L228.184 57.0836C227.162 54.9433 225.054 53.6016 222.658 53.6016C219.208 53.6016 216.524 56.3169 216.524 59.767C216.524 63.1212 219.272 65.8685 222.658 65.8685C224.99 65.8685 227.066 64.5587 228.12 62.4823L228.216 62.2587H225.98V62.3545Z" fill="white"/>
<path d="M231.251 53.7617H229.238V65.7092H231.251V53.7617Z" fill="white"/>
<path d="M244.316 65.7412V53.7617H246.329V64.1439H251.504V65.7412H244.316Z" fill="white"/>
<path d="M235.404 62.2923H240.1L241.537 65.7424H243.773L238.694 53.7949H236.777L231.73 65.7105V65.7424H233.966L235.404 62.2923ZM237.768 56.2547L239.365 60.5353H236.17L237.768 56.2547Z" fill="white"/>
<path d="M141.07 65.7422H150.046V64.145H143.082V60.5352H141.07V65.7422Z" fill="white"/>
<path d="M143.082 55.359H150.046V53.7617H141.07V58.9368H143.082V58.9049V55.359Z" fill="white"/>
<path d="M143.083 60.5348H148.928V58.9375H143.083V60.5028V60.5348Z" fill="#039BE5"/>
<path d="M143.082 58.9375H141.07V60.5348H143.082V58.9375Z" fill="white"/>
<path d="M0 8.33789H12.1072C14.0559 8.33789 15.6531 8.6254 16.867 9.16846C18.081 9.71153 19.0393 10.4143 19.7102 11.2449C20.381 12.0755 20.8282 12.9699 21.0838 13.9602C21.3394 14.9505 21.4352 15.845 21.4352 16.6756C21.4352 17.5061 21.3074 18.4006 21.0838 19.3909C20.8282 20.3493 20.381 21.2757 19.7102 22.1062C19.0393 22.9368 18.081 23.6396 16.867 24.1507C15.6531 24.6938 14.0559 24.9494 12.1072 24.9494H4.79177V35.2996H0V8.33789ZM4.79177 21.084H11.8197C12.3628 21.084 12.9058 21.0201 13.4809 20.8604C14.0559 20.7007 14.567 20.477 15.0462 20.1257C15.5253 19.7743 15.9087 19.327 16.1962 18.752C16.4837 18.177 16.6434 17.4742 16.6434 16.6117C16.6434 15.7172 16.5156 15.0144 16.2601 14.4075C16.0045 13.8325 15.6531 13.3533 15.2378 13.0338C14.7906 12.6824 14.3114 12.4588 13.7364 12.331C13.1614 12.2033 12.5544 12.1394 11.9155 12.1394H4.79177V21.084Z" fill="white"/>
<path d="M25.1089 8.33789H29.4854V35.3315H25.1089V8.33789Z" fill="white"/>
<path d="M50.8568 30.956C50.8568 31.4991 50.9207 31.8505 51.0804 32.0741C51.2082 32.2977 51.4957 32.4255 51.911 32.4255C52.0388 32.4255 52.1985 32.4255 52.3582 32.4255C52.5499 32.4255 52.7416 32.3935 52.9652 32.3616V35.3325C52.8054 35.3964 52.6138 35.4283 52.3582 35.4922C52.1026 35.5561 51.879 35.62 51.6235 35.6519C51.3679 35.7158 51.1124 35.7478 50.8568 35.7797C50.6012 35.8117 50.3776 35.8117 50.2179 35.8117C49.3234 35.8117 48.5887 35.62 47.9817 35.2686C47.4067 34.9172 47.0234 34.3102 46.8317 33.4158C45.9692 34.2463 44.883 34.8533 43.6372 35.2366C42.3594 35.62 41.1455 35.8117 39.9635 35.8117C39.069 35.8117 38.2065 35.6839 37.3759 35.4603C36.5454 35.2366 35.8426 34.8533 35.2037 34.4061C34.5648 33.9269 34.0856 33.3519 33.7022 32.6171C33.3189 31.9143 33.1592 31.0518 33.1592 30.0935C33.1592 28.8796 33.3828 27.8893 33.83 27.1545C34.2773 26.3878 34.8523 25.8128 35.587 25.3656C36.3217 24.9503 37.1523 24.6309 38.0468 24.4392C38.9412 24.2475 39.8677 24.1197 40.7941 23.9919C41.5927 23.8322 42.3594 23.7364 43.0622 23.6725C43.765 23.6086 44.4039 23.5128 44.9789 23.353C45.522 23.1933 45.9692 22.9697 46.2886 22.6503C46.6081 22.3308 46.7678 21.8516 46.7678 21.2447C46.7678 20.7016 46.64 20.2224 46.3525 19.871C46.097 19.5196 45.7456 19.2321 45.3622 19.0724C44.9789 18.8807 44.5317 18.7529 44.0205 18.6891C43.5414 18.6252 43.0622 18.5932 42.6469 18.5932C41.433 18.5932 40.4107 18.8488 39.6121 19.3599C38.8135 19.871 38.3662 20.6377 38.2704 21.6919H33.862C33.9259 20.446 34.2453 19.3918 34.7884 18.5613C35.3314 17.7307 36.0023 17.0599 36.8329 16.5487C37.6634 16.0376 38.6218 15.6862 39.644 15.4945C40.6982 15.3029 41.7844 15.207 42.8705 15.207C43.8289 15.207 44.8192 15.3029 45.7456 15.4945C46.7039 15.6862 47.5345 16.0376 48.3012 16.4848C49.0679 16.9321 49.6748 17.539 50.1221 18.2418C50.5693 18.9446 50.8248 19.8391 50.8248 20.8613V30.956H50.8568ZM46.4484 25.5253C45.7775 25.9406 44.9469 26.2281 43.9886 26.292C43.0302 26.3878 42.0399 26.5156 41.0816 26.6753C40.6343 26.7392 40.1871 26.867 39.7399 26.9948C39.2926 27.1226 38.9093 27.3142 38.5899 27.5698C38.2704 27.8254 37.9829 28.1129 37.7912 28.5282C37.5996 28.9115 37.5037 29.3907 37.5037 29.9337C37.5037 30.4129 37.6315 30.8282 37.919 31.1477C38.2065 31.4671 38.526 31.7227 38.9413 31.9143C39.3246 32.106 39.7718 32.2338 40.251 32.2977C40.7302 32.3616 41.1455 32.4255 41.5288 32.4255C42.008 32.4255 42.5511 32.3616 43.0941 32.2338C43.6691 32.106 44.1803 31.8824 44.6914 31.5949C45.2025 31.3074 45.6178 30.924 45.9372 30.4449C46.2567 29.9657 46.4484 29.3907 46.4484 28.7198V25.5253Z" fill="white"/>
<path d="M55.5205 15.7813H59.6734V18.6564L59.7373 18.7203C60.4081 17.6342 61.2706 16.7716 62.3568 16.1647C63.4429 15.5577 64.6249 15.2383 65.9346 15.2383C68.1069 15.2383 69.8319 15.7813 71.0778 16.8994C72.3237 18.0175 72.9626 19.6787 72.9626 21.8829V35.2998H68.5861V23.0329C68.5222 21.4995 68.2027 20.3814 67.5958 19.6787C66.9888 18.9759 66.0305 18.6245 64.7207 18.6245C63.986 18.6245 63.3151 18.7522 62.7082 19.0078C62.1332 19.2634 61.622 19.6467 61.2067 20.0939C60.7915 20.5731 60.472 21.1162 60.2484 21.7231C60.0248 22.362 59.897 23.0329 59.897 23.7357V35.2679H55.5205V15.7813Z" fill="white"/>
<path d="M251.6 45.7773H0.223633V49.7705H251.6V45.7773Z" fill="white"/>
<path d="M75.4224 15.4927H78.6808V13.8635C78.6808 12.6177 78.8405 11.6274 79.128 10.8607C79.4474 10.094 79.8308 9.48705 80.3419 9.07177C80.853 8.65648 81.428 8.36897 82.0989 8.24119C82.7378 8.11341 83.4406 8.01758 84.1434 8.01758C85.549 8.01758 86.5712 8.11341 87.2101 8.27314V11.6274C86.9226 11.5635 86.6351 11.4996 86.3157 11.4677C85.9962 11.4357 85.6129 11.4038 85.1976 11.4038C84.6226 11.4038 84.1114 11.5315 83.6642 11.8191C83.2489 12.1066 83.0253 12.6496 83.0253 13.4483V15.4608H86.7629V18.6873H83.0573V35.0112H78.6808V18.7192H75.4224V15.4927Z" fill="#039BE5"/>
<path d="M106.09 30.6982C106.09 31.2412 106.154 31.5926 106.314 31.8163C106.442 32.0399 106.729 32.1677 107.144 32.1677C107.272 32.1677 107.432 32.1677 107.592 32.1677C107.783 32.1677 107.975 32.1357 108.199 32.1038V35.0747C108.039 35.1386 107.847 35.1705 107.592 35.2344C107.336 35.2983 107.112 35.3622 106.857 35.3941C106.601 35.458 106.346 35.4899 106.09 35.5219C105.835 35.5538 105.611 35.5538 105.451 35.5538C104.557 35.5538 103.822 35.3622 103.215 35.0108C102.64 34.6594 102.257 34.0524 102.065 33.158C101.203 33.9885 100.116 34.5955 98.8706 34.9788C97.5928 35.3622 96.3789 35.5538 95.1969 35.5538C94.3024 35.5538 93.4399 35.4261 92.6093 35.2024C91.7788 34.9788 91.076 34.5955 90.4371 34.1483C89.7982 33.6691 89.319 33.0941 88.9356 32.3593C88.5523 31.6565 88.3926 30.794 88.3926 29.8357C88.3926 28.6217 88.6162 27.6314 89.0634 26.8967C89.5107 26.13 90.0857 25.555 90.8204 25.1078C91.5551 24.6925 92.3857 24.373 93.2802 24.1814C94.1746 23.9897 95.1011 23.8619 96.0275 23.7341C96.8261 23.5744 97.5928 23.4786 98.2956 23.4147C98.9984 23.3508 99.6373 23.255 100.212 23.0952C100.755 22.9355 101.203 22.7119 101.522 22.3924C101.841 22.073 102.001 21.5938 102.001 20.9869C102.001 20.4438 101.873 19.9646 101.586 19.6132C101.33 19.2618 100.979 18.9743 100.596 18.8146C100.212 18.6229 99.7651 18.4951 99.2539 18.4312C98.7748 18.3674 98.2956 18.3354 97.8803 18.3354C96.6664 18.3354 95.6441 18.591 94.8455 19.1021C94.0469 19.6132 93.5996 20.3799 93.5038 21.4341H89.1273C89.1912 20.1882 89.5107 19.134 90.0537 18.3035C90.5968 17.4729 91.2676 16.802 92.0982 16.2909C92.9288 15.7798 93.8871 15.4284 94.9094 15.2367C95.9636 15.0451 97.0497 14.9492 98.1358 14.9492C99.0942 14.9492 100.085 15.0451 101.011 15.2367C101.969 15.4284 102.8 15.7798 103.567 16.227C104.333 16.6743 104.94 17.2812 105.387 17.984C105.835 18.6868 106.09 19.5813 106.09 20.6035V30.6982ZM101.682 25.2356C101.011 25.6508 100.18 25.9064 99.222 26.0022C98.2636 26.0981 97.2733 26.2259 96.315 26.3856C95.8677 26.4495 95.4205 26.5773 94.9733 26.705C94.526 26.8328 94.1427 27.0245 93.8233 27.28C93.5038 27.5356 93.2163 27.8231 93.0246 28.2384C92.833 28.6217 92.7371 29.1009 92.7371 29.644C92.7371 30.1232 92.8649 30.5385 93.1524 30.8579C93.4399 31.1774 93.7594 31.4329 94.1746 31.6246C94.558 31.8163 95.0052 31.944 95.4844 32.0079C95.9636 32.0718 96.3789 32.1357 96.7622 32.1357C97.2414 32.1357 97.7844 32.0718 98.3275 31.944C98.9025 31.8163 99.4136 31.5926 99.9248 31.3051C100.436 31.0176 100.851 30.6343 101.171 30.1551C101.49 29.6759 101.682 29.1009 101.682 28.4301V25.2356Z" fill="#039BE5"/>
<path d="M110.754 15.4923H114.907V18.2076H115.035C115.354 17.7284 115.737 17.2812 116.121 16.8979C116.504 16.5145 116.919 16.1631 117.398 15.8756C117.878 15.5881 118.421 15.3645 119.028 15.2048C119.635 15.0451 120.337 14.9492 121.136 14.9492C122.35 14.9492 123.468 15.2048 124.49 15.7478C125.513 16.2909 126.279 17.0895 126.695 18.2076C127.429 17.1854 128.292 16.4187 129.282 15.8117C130.24 15.2367 131.486 14.9492 132.924 14.9492C135.032 14.9492 136.661 15.4603 137.811 16.4506C138.961 17.4729 139.568 19.134 139.568 21.5299V35.0108H135.192V23.6064C135.192 22.8397 135.16 22.1049 135.128 21.466C135.064 20.8271 134.936 20.2841 134.681 19.8049C134.425 19.3257 134.074 18.9743 133.595 18.7187C133.116 18.4632 132.445 18.3354 131.582 18.3354C130.081 18.3354 129.027 18.7826 128.356 19.709C127.685 20.6035 127.365 21.9133 127.365 23.5744V35.0108H122.989V22.4883C122.989 21.1146 122.733 20.0924 122.254 19.4215C121.743 18.7187 120.849 18.3673 119.507 18.3673C118.932 18.3673 118.389 18.4951 117.878 18.7187C117.367 18.9424 116.887 19.2618 116.504 19.709C116.121 20.1243 115.801 20.6674 115.546 21.3063C115.29 21.9452 115.194 22.648 115.194 23.4466V35.0427H110.818V15.4923H110.754Z" fill="#039BE5"/>
<path d="M144.264 8.04883H148.641V12.1378H144.264V8.04883ZM144.264 15.492H148.641V35.0425H144.264V15.492Z" fill="#039BE5"/>
<path d="M153.497 8.04883H157.873V35.0425H153.497V8.04883Z" fill="#039BE5"/>
<path d="M162.729 8.04883H167.105V12.1378H162.729V8.04883ZM162.729 15.492H167.105V35.0425H162.729V15.492Z" fill="#039BE5"/>
<path d="M188.476 30.6982C188.476 31.2412 188.54 31.5926 188.7 31.8163C188.828 32.0399 189.115 32.1677 189.531 32.1677C189.658 32.1677 189.818 32.1677 189.978 32.1677C190.17 32.1677 190.361 32.1357 190.585 32.1038V35.0747C190.425 35.1386 190.233 35.1705 189.978 35.2344C189.722 35.2983 189.499 35.3622 189.243 35.3941C188.988 35.458 188.732 35.4899 188.476 35.5219C188.221 35.5538 187.997 35.5538 187.838 35.5538C186.943 35.5538 186.208 35.3622 185.601 35.0108C185.026 34.6594 184.643 34.0524 184.451 33.158C183.589 33.9885 182.503 34.5955 181.257 34.9788C179.979 35.3622 178.765 35.5538 177.583 35.5538C176.689 35.5538 175.826 35.4261 174.996 35.2024C174.165 34.9788 173.462 34.5955 172.823 34.1483C172.184 33.6691 171.705 33.0941 171.322 32.3593C170.939 31.6565 170.779 30.794 170.779 29.8357C170.779 28.6217 171.002 27.6314 171.45 26.8967C171.897 26.13 172.472 25.555 173.207 25.1078C173.941 24.6925 174.772 24.373 175.666 24.1814C176.561 23.9897 177.487 23.8619 178.414 23.7341C179.212 23.5744 179.979 23.4786 180.682 23.4147C181.385 23.3508 182.024 23.255 182.599 23.0952C183.142 22.9355 183.589 22.7119 183.908 22.3924C184.228 22.073 184.387 21.5938 184.387 20.9869C184.387 20.4438 184.26 19.9646 183.972 19.6132C183.717 19.2618 183.365 18.9743 182.982 18.8146C182.599 18.6229 182.151 18.4951 181.64 18.4312C181.161 18.3674 180.682 18.3354 180.267 18.3354C179.053 18.3354 178.03 18.591 177.232 19.1021C176.433 19.6132 175.986 20.3799 175.89 21.4341H171.514C171.577 20.1882 171.897 19.134 172.44 18.3035C172.983 17.4729 173.654 16.802 174.484 16.2909C175.315 15.7798 176.273 15.4284 177.296 15.2367C178.35 15.0451 179.436 14.9492 180.522 14.9492C181.48 14.9492 182.471 15.0451 183.397 15.2367C184.355 15.4284 185.186 15.7798 185.953 16.227C186.719 16.6743 187.326 17.2812 187.774 17.984C188.221 18.6868 188.476 19.5813 188.476 20.6035V30.6982ZM184.1 25.2356C183.429 25.6508 182.599 25.9064 181.64 26.0022C180.682 26.0981 179.692 26.2259 178.733 26.3856C178.286 26.4495 177.839 26.5773 177.391 26.705C176.944 26.8328 176.561 27.0245 176.241 27.28C175.922 27.5356 175.634 27.8231 175.443 28.2384C175.251 28.6217 175.155 29.1009 175.155 29.644C175.155 30.1232 175.283 30.5385 175.571 30.8579C175.858 31.1774 176.178 31.4329 176.593 31.6246C176.976 31.8163 177.423 31.944 177.903 32.0079C178.382 32.0718 178.797 32.1357 179.18 32.1357C179.66 32.1357 180.203 32.0718 180.746 31.944C181.321 31.8163 181.832 31.5926 182.343 31.3051C182.854 31.0176 183.269 30.6343 183.589 30.1551C183.908 29.6759 184.1 29.1009 184.1 28.4301V25.2356Z" fill="#039BE5"/>
<path d="M193.172 15.4923H197.293V19.2618H197.357C197.485 18.7187 197.741 18.2076 198.092 17.6965C198.475 17.1854 198.922 16.7381 199.434 16.3229C199.945 15.9076 200.552 15.5881 201.191 15.3326C201.829 15.077 202.468 14.9492 203.139 14.9492C203.65 14.9492 204.002 14.9492 204.193 14.9812C204.385 15.0131 204.577 15.0451 204.8 15.0451V19.1979C204.481 19.134 204.193 19.1021 203.874 19.0701C203.555 19.0382 203.235 19.0063 202.948 19.0063C202.213 19.0063 201.51 19.166 200.839 19.4535C200.2 19.741 199.625 20.1563 199.114 20.7313C198.635 21.3063 198.252 22.0091 197.964 22.8397C197.677 23.6702 197.549 24.6286 197.549 25.7147V35.0108H193.172V15.4923Z" fill="#039BE5"/>
<path d="M223.233 9.07246C225.615 9.07246 227.546 7.14164 227.546 4.75986C227.546 2.37808 225.615 0.447266 223.233 0.447266C220.851 0.447266 218.92 2.37808 218.92 4.75986C218.92 7.14164 220.851 9.07246 223.233 9.07246Z" fill="#039BE5"/>
<path d="M238.585 8.4987C240.903 7.95137 242.339 5.6286 241.791 3.31065C241.244 0.992703 238.921 -0.442664 236.603 0.104669C234.285 0.652002 232.85 2.97477 233.397 5.29272C233.945 7.61067 236.267 9.04604 238.585 8.4987Z" fill="#039BE5"/>
<path d="M250.833 20.2191L243.837 10.5397C243.39 9.93273 242.719 9.61328 242.049 9.61328H233.807C233.232 9.61328 232.433 9.99662 232.05 10.4758L230.261 12.7439L228.536 10.4758C228.184 9.99662 227.386 9.61328 226.779 9.61328H218.154C217.387 9.67717 216.684 10.1244 216.333 10.8591L211.189 21.6247C210.646 22.7427 211.126 24.0525 212.244 24.5956C212.563 24.7553 212.883 24.8192 213.202 24.8192C214.033 24.8192 214.831 24.34 215.215 23.5414L218.409 16.8329L218.729 26.6081C218.697 26.672 218.697 26.7678 218.697 26.8317L216.94 39.0667C216.748 40.4403 217.706 41.7501 219.08 41.9418C219.208 41.9737 219.336 41.9737 219.431 41.9737C220.677 41.9737 221.763 41.0473 221.955 39.8014L223.393 29.7707C223.424 29.6109 223.648 29.6109 223.68 29.7707L225.118 39.8014C225.309 41.1751 226.619 42.1654 227.993 41.9418C228.28 41.9098 228.536 41.814 228.791 41.6862C228.823 41.6862 228.823 41.6543 228.855 41.6543C228.791 41.6223 228.759 41.5904 228.695 41.5265C228.568 41.3668 228.472 41.1751 228.472 40.9834L228.057 35.8083H227.45C227.226 35.8083 227.034 35.7125 226.907 35.5527C226.747 35.393 226.683 35.1375 226.715 34.9138L227.609 27.5026L227.737 26.4484L222.881 22.7108L220.613 20.9858C220.454 20.858 220.358 20.6663 220.326 20.4746C220.294 20.283 220.358 20.0593 220.486 19.8996C220.645 19.7079 220.869 19.6121 221.092 19.6121C221.252 19.6121 221.412 19.676 221.54 19.7718L226.204 21.8802C227.769 22.583 229.43 22.9344 231.123 22.9344C232.816 22.9344 234.478 22.583 236.043 21.8802L240.707 19.7718C240.835 19.676 240.994 19.6121 241.154 19.6121C241.41 19.6121 241.633 19.7079 241.761 19.8996C241.889 20.0593 241.953 20.251 241.921 20.4746C241.889 20.6663 241.793 20.858 241.633 20.9858L239.365 22.7108L234.286 26.64L234.414 27.5026L235.532 34.9138C235.564 35.1375 235.5 35.3611 235.34 35.5527C235.212 35.7125 234.989 35.8083 234.797 35.8083H234.222L233.807 40.9834C233.775 41.207 233.679 41.4306 233.519 41.5904C233.455 41.6543 233.391 41.6862 233.296 41.7182H233.327C233.359 41.7182 233.391 41.7182 233.423 41.7182C233.487 41.7182 233.519 41.7182 233.583 41.7182C234.701 41.7182 235.659 40.8556 235.787 39.7376L237.001 29.7707C237.001 29.6429 237.193 29.6429 237.225 29.7707L238.311 39.7056C238.407 40.9195 239.461 41.8459 240.707 41.7501C241.857 41.6543 242.751 40.6959 242.751 39.5459C242.751 39.482 242.751 39.4181 242.751 39.3542L241.825 28.6526H244.636L243.071 16.9926L247.256 22.7747C247.958 23.765 249.364 23.9886 250.354 23.2858C250.961 22.8386 251.281 22.1677 251.281 21.4969C251.249 21.0496 251.121 20.6024 250.833 20.2191ZM231.123 22.2955C229.462 22.2955 228.088 20.9538 228.088 19.2607C228.088 17.5996 229.43 16.2259 231.123 16.2259C232.784 16.2259 234.158 17.5676 234.158 19.2607C234.158 20.9538 232.784 22.2955 231.123 22.2955Z" fill="#039BE5"/>
</g>
<defs>
<clipPath id="clip0_232_3075">
<rect width="251.6" height="65.9028" fill="white"/>
</clipPath>
</defs>
</svg>
