<svg xmlns="http://www.w3.org/2000/svg" viewBox="0 0 192.12 192.12"><defs><style>.cls-1{fill:#036;}</style></defs><g id="Layer_2" data-name="Layer 2"><g id="Capa_1" data-name="Capa 1"><path class="cls-1" d="M96.06,192.12a96,96,0,0,1-67.92-164A96.05,96.05,0,1,1,133.45,184.57,95.46,95.46,0,0,1,96.06,192.12Zm0-178.42a82.09,82.09,0,1,0,32.06,6.47A81.92,81.92,0,0,0,96.06,13.7Z"/><ellipse class="cls-1" cx="130.91" cy="83.94" rx="13.17" ry="16.8"/><ellipse class="cls-1" cx="61.2" cy="83.94" rx="13.17" ry="16.8"/><path class="cls-1" d="M139.35,123.29a6.63,6.63,0,0,0-6.93-1.77c-.18.06-.35.13-.51.2a91.22,91.22,0,0,1-71.7,0,6.61,6.61,0,0,0-8.7,8.62c4,9.64,10.17,17.07,18.29,22.09,7.52,4.66,16.36,7,26.26,7s18.74-2.36,26.26-7c8.12-5,14.27-12.45,18.29-22.1A6.63,6.63,0,0,0,139.35,123.29Z"/></g></g></svg>