<svg width="91" height="91" viewBox="0 0 91 91" fill="none" xmlns="http://www.w3.org/2000/svg">
<path d="M45.4757 0.324219C45.3747 0.326574 45.274 0.336772 45.1745 0.354721C20.5415 0.52132 0.577148 20.551 0.577148 45.2228C0.577148 69.9978 20.7008 90.1214 45.4757 90.1214C70.2507 90.1214 90.3743 69.9978 90.3743 45.2228C90.3743 20.5536 70.414 0.52547 45.7846 0.354721C45.6826 0.336375 45.5793 0.326175 45.4757 0.324219ZM45.4757 4.22844C68.141 4.22844 86.4701 22.5575 86.4701 45.2228C86.4701 67.8881 68.141 86.2172 45.4757 86.2172C22.8105 86.2172 4.48137 67.8881 4.48137 45.2228C4.48137 22.5575 22.8105 4.22844 45.4757 4.22844ZM37.0115 13.9852C35.5301 13.9685 32.1539 14.0924 28.8408 15.3501C28.8408 15.3514 28.8408 15.3527 28.8408 15.354C20.5697 18.4987 16.5181 24.6265 16.5181 24.6265C16.3657 24.84 16.2579 25.0821 16.2012 25.3382C16.1444 25.5943 16.1398 25.8592 16.1877 26.1171C16.2356 26.3751 16.335 26.6207 16.48 26.8393C16.6249 27.058 16.8124 27.2452 17.0313 27.3898C17.2502 27.5343 17.496 27.6333 17.754 27.6808C18.012 27.7282 18.2769 27.7232 18.533 27.666C18.789 27.6088 19.0308 27.5006 19.2441 27.3478C19.4574 27.195 19.6376 27.0009 19.7742 26.7769C19.7742 26.7769 23.1133 21.7066 30.2249 19.0027C33.6236 17.7125 37.5453 17.9085 37.5453 17.9085C37.8032 17.9283 38.0625 17.8966 38.3081 17.8153C38.5537 17.734 38.7806 17.6047 38.9758 17.435C39.171 17.2652 39.3305 17.0584 39.4451 16.8264C39.5596 16.5945 39.6269 16.3421 39.6431 16.0839C39.6593 15.8257 39.624 15.5669 39.5392 15.3225C39.4545 15.0781 39.3221 14.8529 39.1496 14.6601C38.9771 14.4674 38.768 14.3108 38.5345 14.1995C38.301 14.0882 38.0477 14.0244 37.7893 14.0119C37.7893 14.0119 37.5053 13.9907 37.0115 13.9852ZM53.1546 19.8339C52.7155 19.8558 52.2967 20.0252 51.9659 20.3147C51.6351 20.6042 51.4116 20.9969 51.3318 21.4292C51.252 21.8615 51.3204 22.3081 51.5259 22.6967C51.7315 23.0853 52.0622 23.3931 52.4645 23.5704C52.4645 23.5704 59.0658 26.601 72.3821 29.5602C72.8877 29.6723 73.4171 29.579 73.8539 29.3009C74.2907 29.0227 74.5991 28.5825 74.7113 28.0769C74.8235 27.5714 74.7304 27.042 74.4523 26.6051C74.1742 26.1683 73.734 25.8598 73.2285 25.7474C60.1913 22.8503 54.1039 20.0245 54.1039 20.0245C53.8676 19.911 53.6109 19.8461 53.349 19.8339C53.2842 19.8307 53.2193 19.8307 53.1546 19.8339ZM29.8588 33.5101C26.6242 33.5101 24.0025 36.1318 24.0025 39.3665C24.0025 42.6011 26.6242 45.2228 29.8588 45.2228C32.2599 45.2228 34.3233 43.7767 35.2271 41.7075C35.5414 40.9911 35.7152 40.2 35.7152 39.3665C35.7152 38.3377 35.4497 37.3712 34.9831 36.5298C33.9837 34.73 32.0628 33.5101 29.8588 33.5101ZM61.0926 33.5101C57.858 33.5101 55.2363 36.1318 55.2363 39.3665C55.2363 42.6011 57.858 45.2228 61.0926 45.2228C63.7338 45.2228 65.9653 43.4738 66.6973 41.0708C66.8613 40.532 66.949 39.9599 66.949 39.3665C66.949 38.6852 66.832 38.031 66.6173 37.422C65.8149 35.1439 63.6441 33.5101 61.0926 33.5101ZM55.2363 62.7918C50.844 62.7918 47.998 64.4653 44.7056 65.8763C41.4131 67.2874 37.4233 68.6482 29.8588 68.6482C29.6002 68.6445 29.3433 68.6923 29.1033 68.7887C28.8632 68.8852 28.6448 69.0284 28.4605 69.2101C28.2763 69.3917 28.13 69.6081 28.0302 69.8468C27.9303 70.0854 27.8789 70.3416 27.8789 70.6003C27.8789 70.859 27.9303 71.1151 28.0302 71.3538C28.13 71.5924 28.2763 71.8088 28.4605 71.9905C28.6448 72.1721 28.8632 72.3153 29.1033 72.4118C29.3433 72.5082 29.6002 72.556 29.8588 72.5524C37.9113 72.5524 42.706 70.985 46.2459 69.4679C49.7858 67.9508 51.8201 66.696 55.2363 66.696C59.596 66.696 61.9619 68.3203 61.9619 68.3203C62.1751 68.4673 62.4154 68.5704 62.6688 68.6236C62.9223 68.6769 63.1838 68.6791 63.4381 68.6303C63.6924 68.5816 63.9345 68.4827 64.1502 68.3394C64.3659 68.1962 64.551 68.0114 64.6946 67.796C64.8383 67.5805 64.9376 67.3386 64.9869 67.0844C65.0361 66.8302 65.0343 66.5687 64.9815 66.3151C64.9288 66.0616 64.8261 65.8211 64.6795 65.6077C64.5329 65.3942 64.3453 65.2121 64.1276 65.0718C64.1276 65.0718 60.6371 62.7918 55.2363 62.7918Z" fill="#01ACFF"/>
</svg>
