<svg width="91" height="91" viewBox="0 0 91 91" fill="none" xmlns="http://www.w3.org/2000/svg">
<path d="M45.4757 0.324219C45.3747 0.326574 45.274 0.336772 45.1745 0.354721C20.5415 0.52132 0.577148 20.551 0.577148 45.2228C0.577148 69.9978 20.7008 90.1214 45.4757 90.1214C70.2507 90.1214 90.3743 69.9978 90.3743 45.2228C90.3743 20.5536 70.414 0.52547 45.7846 0.354721C45.6826 0.336375 45.5793 0.326175 45.4757 0.324219ZM45.4757 4.22844C68.141 4.22844 86.4701 22.5575 86.4701 45.2228C86.4701 67.8881 68.141 86.2172 45.4757 86.2172C22.8105 86.2172 4.48137 67.8881 4.48137 45.2228C4.48137 22.5575 22.8105 4.22844 45.4757 4.22844ZM29.8588 31.558C28.3056 31.558 26.8161 32.175 25.7178 33.2733C24.6195 34.3716 24.0025 35.8612 24.0025 37.4144C24.0025 38.9676 24.6195 40.4571 25.7178 41.5554C26.8161 42.6537 28.3056 43.2707 29.8588 43.2707C31.412 43.2707 32.9016 42.6537 33.9999 41.5554C35.0982 40.4571 35.7152 38.9676 35.7152 37.4144C35.7152 35.8612 35.0982 34.3716 33.9999 33.2733C32.9016 32.175 31.412 31.558 29.8588 31.558ZM61.0926 31.558C59.5394 31.558 58.0499 32.175 56.9516 33.2733C55.8533 34.3716 55.2363 35.8612 55.2363 37.4144C55.2363 38.9676 55.8533 40.4571 56.9516 41.5554C58.0499 42.6537 59.5394 43.2707 61.0926 43.2707C62.6458 43.2707 64.1354 42.6537 65.2337 41.5554C66.332 40.4571 66.949 38.9676 66.949 37.4144C66.949 35.8612 66.332 34.3716 65.2337 33.2733C64.1354 32.175 62.6458 31.558 61.0926 31.558ZM20.0144 53.0084C19.6587 53.0201 19.313 53.1288 19.0146 53.3228C18.7162 53.5168 18.4766 53.7887 18.3215 54.109C18.1664 54.4293 18.1019 54.786 18.1348 55.1403C18.1678 55.4947 18.2969 55.8333 18.5084 56.1196C18.5084 56.1196 28.7201 70.6003 45.4757 70.6003C62.2314 70.6003 72.4431 56.1196 72.4431 56.1196C72.7444 55.6979 72.8659 55.1738 72.7808 54.6625C72.6958 54.1513 72.4111 53.6948 71.9894 53.3935C71.5677 53.0921 71.0436 52.9706 70.5324 53.0557C70.0211 53.1408 69.5646 53.4255 69.2633 53.8472C69.2633 53.8472 59.9539 66.696 45.4757 66.696C30.9976 66.696 21.6882 53.8472 21.6882 53.8472C21.5018 53.5783 21.2509 53.3606 20.9584 53.2141C20.6659 53.0675 20.3413 52.9968 20.0144 53.0084Z" fill="#174282"/>
</svg>
