<svg width="91" height="91" viewBox="0 0 91 91" fill="none" xmlns="http://www.w3.org/2000/svg">
<path d="M45.4757 0.324219C20.7008 0.324219 0.577148 20.4478 0.577148 45.2228C0.577148 69.9978 20.7008 90.1214 45.4757 90.1214C70.2507 90.1214 90.3743 69.9978 90.3743 45.2228C90.3743 20.5536 70.414 0.52547 45.7846 0.354721C45.6826 0.336375 45.5793 0.326175 45.4757 0.324219ZM45.4757 4.22844C68.141 4.22844 86.4701 22.5575 86.4701 45.2228C86.4701 67.8881 68.141 86.2172 45.4757 86.2172C22.8105 86.2172 4.48137 67.8881 4.48137 45.2228C4.48137 22.5575 22.8105 4.22844 45.4757 4.22844ZM29.8588 31.558C28.3056 31.558 26.8161 32.175 25.7178 33.2733C24.6195 34.3716 24.0025 35.8612 24.0025 37.4144C24.0025 38.9676 24.6195 40.4571 25.7178 41.5554C26.8161 42.6537 28.3056 43.2707 29.8588 43.2707C31.412 43.2707 32.9016 42.6537 33.9999 41.5554C35.0982 40.4571 35.7152 38.9676 35.7152 37.4144C35.7152 35.8612 35.0982 34.3716 33.9999 33.2733C32.9016 32.175 31.412 31.558 29.8588 31.558ZM61.0926 35.4622C57.9476 35.4622 55.7379 35.9913 54.2679 36.5794C52.7978 37.1674 51.904 37.9863 51.904 37.9863C51.7166 38.1661 51.5671 38.3816 51.464 38.62C51.361 38.8584 51.3065 39.115 51.3039 39.3747C51.3012 39.6344 51.3504 39.892 51.4486 40.1325C51.5468 40.373 51.6919 40.5914 51.8756 40.7751C52.0593 40.9587 52.2777 41.1039 52.5182 41.202C52.7586 41.3002 53.0162 41.3494 53.276 41.3468C53.5357 41.3441 53.7922 41.2897 54.0307 41.1866C54.2691 41.0836 54.4845 40.934 54.6644 40.7467C54.6644 40.7467 54.7466 40.5895 55.7167 40.2015C56.6868 39.8134 58.3814 39.3665 61.0926 39.3665C66.0814 39.3665 69.4692 42.6988 69.4692 42.6988C69.6504 42.8804 69.8656 43.0245 70.1026 43.1229C70.3395 43.2213 70.5935 43.272 70.8501 43.2722C71.1066 43.2724 71.3607 43.2221 71.5978 43.1241C71.8349 43.0261 72.0504 42.8824 72.2319 42.7011C72.4134 42.5198 72.5575 42.3045 72.6558 42.0676C72.7541 41.8306 72.8048 41.5766 72.8049 41.32C72.8051 41.0635 72.7547 40.8094 72.6566 40.5724C72.5585 40.3353 72.4147 40.1199 72.2334 39.9384C72.2334 39.9384 67.8166 35.4622 61.0926 35.4622ZM72.8015 49.1042C72.4516 49.1067 72.1088 49.2032 71.809 49.3836C71.5091 49.5641 71.2633 49.8218 71.0972 50.1298C71.0972 50.1298 61.7433 66.696 45.4757 66.696C36.496 66.696 31.239 61.4116 31.239 61.4116C31.0592 61.2243 30.8437 61.0747 30.6053 60.9716C30.3669 60.8686 30.1103 60.8142 29.8506 60.8115C29.5909 60.8089 29.3333 60.8581 29.0928 60.9562C28.8524 61.0544 28.6339 61.1996 28.4502 61.3832C28.2666 61.5669 28.1214 61.7853 28.0233 62.0258C27.9251 62.2662 27.8759 62.5239 27.8785 62.7836C27.8812 63.0433 27.9356 63.2999 28.0387 63.5383C28.1417 63.7767 28.2913 63.9921 28.4786 64.172C28.4786 64.172 34.9343 70.6003 45.4757 70.6003C64.3462 70.6003 74.5134 52.0285 74.5134 52.0285C74.6847 51.7303 74.7741 51.3921 74.7726 51.0482C74.7712 50.7043 74.6789 50.3669 74.5052 50.0701C74.3315 49.7733 74.0824 49.5276 73.7832 49.358C73.4841 49.1884 73.1454 49.1008 72.8015 49.1042Z" fill="#01ACFF"/>
</svg>
