<svg width="91" height="91" viewBox="0 0 91 91" fill="none" xmlns="http://www.w3.org/2000/svg">
<path d="M45.4757 0.324219C20.7021 0.324219 0.577148 20.4491 0.577148 45.2228C0.577148 69.9965 20.7021 90.1214 45.4757 90.1214C70.2494 90.1214 90.3743 69.9965 90.3743 45.2228C90.3743 20.4491 70.2494 0.324219 45.4757 0.324219ZM45.4757 4.22844C68.1394 4.22844 86.4701 22.5591 86.4701 45.2228C86.4701 67.8865 68.1394 86.2172 45.4757 86.2172C22.8121 86.2172 4.48137 67.8865 4.48137 45.2228C4.48137 22.5591 22.8121 4.22844 45.4757 4.22844ZM28.8828 21.7975C24.8267 21.7975 22.0096 23.5852 20.4033 25.37C18.797 27.1547 18.23 29.0454 18.23 29.0454C18.1435 29.2943 18.1083 29.5581 18.1264 29.8209C18.1445 30.0838 18.2157 30.3402 18.3356 30.5748C18.4555 30.8095 18.6216 31.0174 18.8239 31.1861C19.0263 31.3548 19.2607 31.4808 19.5131 31.5565C19.7654 31.6322 20.0305 31.6561 20.2923 31.6266C20.5542 31.5972 20.8073 31.515 21.0365 31.3851C21.2658 31.2553 21.4663 31.0803 21.6262 30.8709C21.786 30.6614 21.9018 30.4218 21.9665 30.1664C21.9665 30.1664 22.2757 29.1289 23.3048 27.9855C24.3339 26.8421 25.9112 25.7017 28.8828 25.7017C31.8543 25.7017 33.4317 26.8421 34.4608 27.9855C35.4899 29.1289 35.7991 30.1664 35.7991 30.1664C35.8638 30.4218 35.9796 30.6614 36.1394 30.8709C36.2992 31.0803 36.4998 31.2553 36.729 31.3851C36.9583 31.515 37.2114 31.5972 37.4732 31.6266C37.735 31.6561 38.0001 31.6322 38.2525 31.5565C38.5048 31.4808 38.7393 31.3548 38.9416 31.1861C39.144 31.0174 39.3101 30.8095 39.43 30.5748C39.5499 30.3402 39.621 30.0838 39.6392 29.8209C39.6573 29.5581 39.622 29.2943 39.5355 29.0454C39.5355 29.0454 38.9685 27.1547 37.3623 25.37C35.756 23.5852 32.9388 21.7975 28.8828 21.7975ZM62.0687 21.7975C58.0126 21.7975 55.1955 23.5852 53.5892 25.37C51.9829 27.1547 51.416 29.0454 51.416 29.0454C51.3294 29.2943 51.2942 29.5581 51.3123 29.8209C51.3305 30.0838 51.4016 30.3402 51.5215 30.5748C51.6414 30.8095 51.8075 31.0174 52.0099 31.1861C52.2122 31.3548 52.4467 31.4808 52.699 31.5565C52.9514 31.6322 53.2164 31.6561 53.4783 31.6266C53.7401 31.5972 53.9932 31.515 54.2224 31.3851C54.4517 31.2553 54.6522 31.0803 54.8121 30.8709C54.9719 30.6614 55.0877 30.4218 55.1524 30.1664C55.1524 30.1664 55.4616 29.1289 56.4907 27.9855C57.5198 26.8421 59.0972 25.7017 62.0687 25.7017C65.0403 25.7017 66.6176 26.8421 67.6467 27.9855C68.6758 29.1289 68.985 30.1664 68.985 30.1664C69.0497 30.4218 69.1655 30.6614 69.3253 30.8709C69.4852 31.0803 69.6857 31.2553 69.915 31.3851C70.1442 31.515 70.3973 31.5972 70.6591 31.6266C70.921 31.6561 71.186 31.6322 71.4384 31.5565C71.6908 31.4808 71.9252 31.3548 72.1275 31.1861C72.3299 31.0174 72.496 30.8095 72.6159 30.5748C72.7358 30.3402 72.8069 30.0838 72.8251 29.8209C72.8432 29.5581 72.808 29.2943 72.7214 29.0454C72.7214 29.0454 72.1545 27.1547 70.5482 25.37C68.9419 23.5852 66.1248 21.7975 62.0687 21.7975ZM24.0025 41.3186C23.4848 41.3186 22.9883 41.5243 22.6222 41.8904C22.2561 42.2565 22.0504 42.753 22.0504 43.2707C22.0504 51.4045 24.0476 59.9738 27.9258 66.696C31.804 73.4183 37.8067 78.4087 45.4757 78.4087C53.1448 78.4087 59.1475 73.4183 63.0257 66.696C66.9039 59.9738 68.9011 51.4045 68.9011 43.2707C68.901 42.753 68.6954 42.2565 68.3293 41.8904C67.9632 41.5243 67.4667 41.3186 66.949 41.3186H24.0025ZM26.1948 45.2228H64.7567C64.458 52.1274 62.7926 59.2926 59.6476 64.7439C56.2054 70.7105 51.4715 74.5045 45.4757 74.5045C39.48 74.5045 34.7461 70.7105 31.3039 64.7439C28.1589 59.2926 26.4934 52.1274 26.1948 45.2228Z" fill="#174282"/>
</svg>
