<svg width="87" height="78" viewBox="0 0 87 78" fill="none" xmlns="http://www.w3.org/2000/svg">
<path d="M43.7652 66.9357C38.8473 66.9357 34.8857 63.0133 34.8857 58.1441V56.7915C34.8857 55.6418 35.7737 54.7626 36.9348 54.7626C38.096 54.7626 38.9839 55.6418 38.9839 56.7915V58.1441C38.9839 60.7816 41.1014 62.878 43.7652 62.878C46.4291 62.878 48.5465 60.7816 48.5465 58.1441V56.7915C48.5465 55.6418 49.4345 54.7626 50.5956 54.7626C51.7568 54.7626 52.6447 55.6418 52.6447 56.7915V58.1441C52.6447 63.0133 48.6831 66.9357 43.7652 66.9357Z" fill="#174282"/>
<path d="M14.3944 18.2435C9.47649 18.2435 5.51485 14.321 5.51485 9.45182C5.51485 4.58259 9.47649 0.660156 14.3944 0.660156C19.3123 0.660156 23.2739 4.58259 23.2739 9.45182C23.2739 14.321 19.3123 18.2435 14.3944 18.2435ZM14.3944 4.71785C11.7305 4.71785 9.61309 6.81432 9.61309 9.45182C9.61309 12.0893 11.7305 14.1858 14.3944 14.1858C17.0582 14.1858 19.1757 12.0893 19.1757 9.45182C19.1757 6.81432 17.0582 4.71785 14.3944 4.71785ZM18.4926 77.7563C15.0774 77.7563 12.3453 75.0511 12.3453 71.6697C12.3453 70.5201 13.2332 69.6409 14.3944 69.6409C15.5555 69.6409 16.4435 70.5201 16.4435 71.6697C16.4435 72.8194 17.3314 73.6986 18.4926 73.6986C19.6538 73.6986 20.5417 72.8194 20.5417 71.6697V50.0287C20.5417 48.879 21.4297 47.9999 22.5909 47.9999C23.752 47.9999 24.64 48.879 24.64 50.0287V71.6697C24.64 75.0511 21.9078 77.7563 18.4926 77.7563Z" fill="#174282"/>
<path d="M10.2964 77.7567C6.88118 77.7567 4.14902 75.0516 4.14902 71.6702V52.058H2.0999C0.938733 52.058 0.0507812 51.1788 0.0507812 50.0291V29.7407C0.0507812 24.8714 4.01241 20.949 8.9303 20.949H20.8152C25.255 20.949 28.9434 24.1275 29.6264 28.4557L30.9242 37.0445C31.8804 43.4016 37.2765 48.0003 43.7653 48.0003C44.9265 48.0003 45.8145 48.8794 45.8145 50.0291C45.8145 51.1788 44.9265 52.058 43.7653 52.058C35.2273 52.058 28.1237 45.9714 26.8259 37.6532L25.5282 29.0644C25.1866 26.6974 23.2058 25.0067 20.8152 25.0067H8.9303C6.26644 25.0067 4.14902 27.1032 4.14902 29.7407V48.0003H6.19814C7.35931 48.0003 8.24726 48.8794 8.24726 50.0291V71.6702C8.24726 72.8198 9.13521 73.699 10.2964 73.699C11.4575 73.699 12.3453 72.8194 12.3453 71.6697L12.3455 50.0291C12.3455 48.8794 13.2335 48.0003 14.3946 48.0003C15.5558 48.0003 16.4437 48.8794 16.4437 50.0291L16.4435 71.6697C16.4435 75.0511 13.7116 77.7567 10.2964 77.7567Z" fill="#174282"/>
<path d="M79.9662 60.1737C78.805 60.1737 77.9171 59.2945 77.9171 58.1448V50.0294C77.9171 48.8798 78.805 48.0006 79.9662 48.0006H82.0153V29.741C82.0153 27.1035 79.8979 25.007 77.234 25.007H65.6224C63.1634 25.007 61.1143 26.833 60.8411 29.2676L60.0214 37.4506C59.2018 45.7689 52.235 52.058 43.7653 52.058C42.6042 52.058 41.716 51.1791 41.716 50.0294C41.716 48.8798 42.6042 48.0003 43.7653 48.0003C50.1176 48.0003 55.3768 43.2666 55.9915 37.0448L56.8111 28.8618C57.2893 24.3307 61.046 20.9493 65.6224 20.9493H77.234C82.1519 20.9493 86.1136 24.8718 86.1136 29.741V50.0294C86.1136 51.1791 85.2256 52.0583 84.0644 52.0583H82.0153V58.1448C82.0153 59.2945 81.1274 60.1737 79.9662 60.1737Z" fill="#174282"/>
<path d="M43.765 43.9422C40.0083 43.9422 36.9346 40.8989 36.9346 37.1794C36.9346 33.4598 40.0083 30.4165 43.765 30.4165C47.5217 30.4165 50.5954 33.4598 50.5954 37.1794C50.5954 40.8989 47.5217 43.9422 43.765 43.9422ZM43.765 34.4742C42.2623 34.4742 41.0328 35.6915 41.0328 37.1794C41.0328 38.6672 42.2623 39.8845 43.765 39.8845C45.2677 39.8845 46.4971 38.6672 46.4971 37.1794C46.4971 35.6915 45.2677 34.4742 43.765 34.4742ZM71.7696 18.2435C66.8517 18.2435 62.8901 14.321 62.8901 9.45182C62.8901 4.58259 66.8517 0.660156 71.7696 0.660156C76.6875 0.660156 80.6491 4.58259 80.6491 9.45182C80.6491 14.321 76.6875 18.2435 71.7696 18.2435ZM71.7696 4.71785C69.1058 4.71785 66.9883 6.81432 66.9883 9.45182C66.9883 12.0893 69.1058 14.1858 71.7696 14.1858C74.4335 14.1858 76.5509 12.0893 76.5509 9.45182C76.5509 6.81432 74.4335 4.71785 71.7696 4.71785ZM63.5731 59.9701C62.412 59.9701 61.524 59.0909 61.524 57.9412V50.0287C61.524 48.879 62.412 47.9999 63.5731 47.9999C64.7343 47.9999 65.6223 48.879 65.6223 50.0287V57.9412C65.6223 59.0909 64.7343 59.9701 63.5731 59.9701Z" fill="#174282"/>
<path d="M79.9662 60.1737L63.573 60.173C62.4118 60.173 61.5239 59.2938 61.5239 58.1441C61.5239 56.9944 62.4118 56.1153 63.573 56.1153H79.966C81.1271 56.1153 82.0153 56.9951 82.0153 58.1448C82.0153 59.2945 81.1274 60.1737 79.9662 60.1737Z" fill="#174282"/>
<path d="M68.3545 77.7563C67.1933 77.7563 66.3053 76.8771 66.3053 75.7274V58.1441C66.3053 56.9944 67.1933 56.1153 68.3545 56.1153C69.5156 56.1153 70.4036 56.9944 70.4036 58.1441V75.7274C70.4036 76.8771 69.5156 77.7563 68.3545 77.7563Z" fill="#174282"/>
<path d="M75.1847 77.7563C74.0235 77.7563 73.1355 76.8771 73.1355 75.7274V58.1441C73.1355 56.9944 74.0235 56.1153 75.1847 56.1153C76.3458 56.1153 77.2338 56.9944 77.2338 58.1441V75.7274C77.2338 76.8771 76.3458 77.7563 75.1847 77.7563Z" fill="#174282"/>
<path d="M40.3497 77.7564C39.1885 77.7564 38.3006 76.8773 38.3006 75.7276V64.9071C38.3006 63.7574 39.1885 62.8782 40.3497 62.8782C41.5109 62.8782 42.3988 63.7574 42.3988 64.9071V75.7276C42.3988 76.8773 41.5109 77.7564 40.3497 77.7564Z" fill="#174282"/>
<path d="M47.1799 77.7564C46.0187 77.7564 45.1308 76.8773 45.1308 75.7276V64.9071C45.1308 63.7574 46.0187 62.8782 47.1799 62.8782C48.3411 62.8782 49.229 63.7574 49.229 64.9071V75.7276C49.229 76.8773 48.3411 77.7564 47.1799 77.7564Z" fill="#174282"/>
</svg>
