<svg width="91" height="25" viewBox="0 0 91 25" fill="none" xmlns="http://www.w3.org/2000/svg">
<g clip-path="url(#clip0_297_1326)">
<path d="M1.68162 3.7168V8.92414H8.16861V3.7168H9.80788V15.8315H8.16861V10.2785H1.68162V15.8268H0.0423584V3.7168H1.68162Z" fill="#174282"/>
<path d="M11.1659 9.64361C11.3481 9.08318 11.6236 8.59748 11.9926 8.18649C12.3615 7.77551 12.8145 7.44859 13.3563 7.21041C13.898 6.97222 14.5192 6.85547 15.2197 6.85547C15.9343 6.85547 16.5554 6.97222 17.0925 7.21041C17.6296 7.44859 18.0779 7.77551 18.4469 8.18649C18.8158 8.59748 19.0914 9.08785 19.2735 9.64361C19.4556 10.204 19.549 10.8065 19.549 11.451C19.549 12.0955 19.4556 12.6933 19.2735 13.2491C19.0914 13.8048 18.8111 14.2859 18.4469 14.7015C18.0779 15.1125 17.6296 15.4347 17.0925 15.6683C16.5601 15.9018 15.9343 16.0139 15.2197 16.0139C14.5192 16.0139 13.898 15.8971 13.3563 15.6683C12.8145 15.4394 12.3615 15.1125 11.9926 14.7015C11.6236 14.2905 11.3481 13.8048 11.1659 13.2491C10.9838 12.6933 10.8904 12.0955 10.8904 11.451C10.8904 10.8065 10.9838 10.204 11.1659 9.64361ZM12.6604 12.8661C12.8052 13.2771 13.0013 13.6227 13.2535 13.9029C13.5057 14.1784 13.8046 14.3933 14.1409 14.538C14.4818 14.6828 14.8414 14.7576 15.2197 14.7576C15.598 14.7576 15.9576 14.6828 16.2985 14.538C16.6395 14.3933 16.9337 14.1784 17.1859 13.9029C17.4381 13.6273 17.6389 13.2817 17.779 12.8661C17.9238 12.4551 17.9938 11.9834 17.9938 11.451C17.9938 10.9186 17.9238 10.4469 17.779 10.0359C17.6342 9.62493 17.4381 9.27466 17.1859 8.99445C16.9337 8.71423 16.6348 8.49473 16.2985 8.34995C15.9576 8.20517 15.598 8.13045 15.2197 8.13045C14.8414 8.13045 14.4818 8.20517 14.1409 8.34995C13.8 8.49473 13.5057 8.71423 13.2535 8.99445C13.0013 9.27933 12.8005 9.62493 12.6604 10.0359C12.5156 10.4469 12.4456 10.9233 12.4456 11.451C12.4456 11.9787 12.5156 12.4551 12.6604 12.8661Z" fill="#174282"/>
<path d="M27.087 18.3011C26.4192 19.0156 25.373 19.3706 23.9486 19.3706C23.5329 19.3706 23.1126 19.3239 22.6829 19.2351C22.2533 19.1464 21.861 18.997 21.5107 18.7961C21.1604 18.5906 20.8709 18.3244 20.6374 17.9975C20.4085 17.6706 20.2824 17.269 20.2591 16.7926H21.7255C21.7349 17.0541 21.819 17.2736 21.9777 17.4558C22.1319 17.6379 22.3233 17.7827 22.5475 17.8948C22.7717 18.0069 23.0145 18.0909 23.2807 18.1423C23.5469 18.1937 23.7991 18.217 24.0373 18.217C24.5184 18.217 24.9293 18.133 25.2609 17.9695C25.5925 17.806 25.8681 17.5772 26.0876 17.2923C26.3071 17.0028 26.4659 16.6572 26.5639 16.2508C26.662 15.8445 26.7087 15.3962 26.7087 14.9105V14.3314H26.676C26.4238 14.8731 26.0409 15.2748 25.5271 15.527C25.0134 15.7792 24.4717 15.9099 23.8972 15.9099C23.2294 15.9099 22.6503 15.7932 22.1552 15.555C21.6602 15.3168 21.2445 14.9992 20.9129 14.5976C20.5813 14.1959 20.3291 13.7289 20.161 13.1872C19.9929 12.6501 19.9088 12.0803 19.9088 11.4825C19.9088 10.9641 19.9789 10.427 20.1143 9.88061C20.2544 9.33419 20.4833 8.83447 20.8055 8.38612C21.1278 7.93778 21.5527 7.5735 22.0805 7.28394C22.6082 6.99439 23.2574 6.84961 24.028 6.84961C24.5931 6.84961 25.1068 6.97104 25.5785 7.21389C26.0502 7.45674 26.4192 7.82102 26.6807 8.30673H26.6994V7.05043H28.0818V15.0739C28.0864 16.5171 27.7549 17.5912 27.087 18.3011ZM25.2142 14.3594C25.5552 14.1632 25.826 13.9017 26.0315 13.5795C26.237 13.2572 26.3911 12.8929 26.4892 12.4866C26.5873 12.0803 26.634 11.674 26.634 11.263C26.634 10.88 26.5873 10.5018 26.4939 10.1281C26.4005 9.75451 26.2557 9.41825 26.0549 9.11936C25.8541 8.82046 25.5925 8.57761 25.2703 8.40014C24.948 8.218 24.5557 8.12926 24.098 8.12926C23.6263 8.12926 23.2247 8.218 22.8931 8.3908C22.5615 8.56827 22.286 8.80178 22.0758 9.096C21.861 9.39023 21.7069 9.73116 21.6088 10.1141C21.5107 10.4971 21.464 10.8987 21.464 11.319C21.464 11.716 21.506 12.113 21.5854 12.5053C21.6648 12.9023 21.8049 13.2619 22.0011 13.5841C22.1972 13.9064 22.4541 14.1679 22.7764 14.3641C23.0986 14.5602 23.5002 14.663 23.9813 14.663C24.4623 14.663 24.878 14.5555 25.2142 14.3594Z" fill="#174282"/>
<path d="M37.3154 15.7932C37.0632 15.9379 36.7129 16.0127 36.2646 16.0127C35.8863 16.0127 35.5827 15.9099 35.3585 15.6998C35.1344 15.4896 35.0223 15.1487 35.0223 14.6723C34.6206 15.1487 34.1536 15.4896 33.6165 15.6998C33.0841 15.9099 32.505 16.0127 31.8839 16.0127C31.4822 16.0127 31.0993 15.966 30.735 15.8772C30.3707 15.7885 30.0578 15.6437 29.7962 15.4522C29.53 15.2608 29.3199 15.0086 29.1658 14.6956C29.0116 14.3827 28.9323 14.0091 28.9323 13.5654C28.9323 13.0657 29.0163 12.6594 29.1891 12.3418C29.3619 12.0243 29.5908 11.7674 29.871 11.5712C30.1512 11.3751 30.4734 11.2256 30.8377 11.1229C31.202 11.0202 31.5709 10.9361 31.9492 10.8707C32.3509 10.7913 32.7338 10.7306 33.0981 10.6932C33.4624 10.6559 33.78 10.5952 34.0555 10.5251C34.3311 10.4504 34.5506 10.343 34.7094 10.2029C34.8682 10.0627 34.9522 9.85726 34.9522 9.58171C34.9522 9.26414 34.8915 9.01194 34.7701 8.82046C34.6486 8.62898 34.4945 8.47953 34.303 8.38146C34.1116 8.27871 33.9014 8.21333 33.6632 8.17596C33.425 8.14327 33.1962 8.12459 32.9627 8.12459C32.3415 8.12459 31.8231 8.24135 31.4122 8.47019C30.9965 8.7037 30.7723 9.13804 30.7396 9.78253H29.2732C29.2965 9.24078 29.4133 8.7831 29.6188 8.40948C29.8243 8.03586 30.0998 7.73229 30.4454 7.50345C30.791 7.26993 31.1833 7.10647 31.627 7.00373C32.0707 6.90098 32.5424 6.84961 33.0514 6.84961C33.4531 6.84961 33.8547 6.87763 34.2517 6.93367C34.6486 6.98972 35.0083 7.10647 35.3305 7.27927C35.6528 7.45207 35.9096 7.6996 36.1058 8.01717C36.3019 8.33475 36.4 8.74574 36.4 9.25479V13.7569C36.4 14.0979 36.4187 14.3454 36.4607 14.5042C36.5027 14.663 36.6382 14.7424 36.867 14.7424C36.9931 14.7424 37.1426 14.719 37.3154 14.6723V15.7932ZM34.9382 11.2957C34.7561 11.4311 34.5132 11.5292 34.2143 11.5899C33.9154 11.6506 33.6025 11.702 33.2756 11.744C32.9487 11.7814 32.6171 11.8281 32.2855 11.8795C31.9539 11.9309 31.655 12.0102 31.3888 12.1223C31.1226 12.2344 30.9078 12.3932 30.7443 12.6034C30.5762 12.8135 30.4921 13.0937 30.4921 13.458C30.4921 13.6962 30.5388 13.8924 30.6369 14.0558C30.735 14.2193 30.8611 14.3501 31.0152 14.4528C31.1693 14.5555 31.3514 14.6256 31.5569 14.6723C31.7624 14.719 31.9819 14.7377 32.2108 14.7377C32.6918 14.7377 33.1075 14.6723 33.4531 14.5415C33.7987 14.4108 34.0789 14.2473 34.2984 14.0512C34.5179 13.855 34.6767 13.6402 34.7794 13.4113C34.8822 13.1825 34.9335 12.963 34.9335 12.7622V11.2957H34.9382Z" fill="#174282"/>
<path d="M39.1275 7.05539V8.90482H39.1602C39.5151 8.19027 39.9541 7.6672 40.4725 7.32627C40.9909 6.98534 41.6448 6.82655 42.4387 6.8499V8.37708C41.8549 8.37708 41.3505 8.45647 40.9395 8.61526C40.5239 8.77405 40.1923 9.00756 39.9401 9.31113C39.6879 9.6147 39.5011 9.98832 39.389 10.4227C39.2723 10.857 39.2162 11.3567 39.2162 11.9218V15.8215H37.7498V7.05539H39.1275Z" fill="#174282"/>
<path d="M42.4246 3.7168H51.7932V5.32804L44.615 13.996H51.9613V15.8268H41.8735V14.0941L49.0517 5.54287H42.4246V3.7168Z" fill="#174282"/>
<path d="M53.6703 11.9416C53.6703 12.2826 53.717 12.6095 53.8151 12.9271C53.9132 13.2446 54.058 13.5202 54.2541 13.7584C54.4503 13.9966 54.6978 14.1834 54.9967 14.3281C55.2956 14.4682 55.6505 14.5383 56.0662 14.5383C56.6406 14.5383 57.103 14.4169 57.4533 14.174C57.8035 13.9312 58.0651 13.5669 58.2379 13.0812H60.1013C59.9986 13.5575 59.8211 13.9825 59.5642 14.3515C59.312 14.7251 59.0085 15.038 58.6488 15.2949C58.2939 15.5471 57.8923 15.7432 57.4486 15.8693C57.0049 15.9954 56.5426 16.0655 56.0615 16.0655C55.361 16.0655 54.7398 15.9534 54.1981 15.7245C53.6563 15.5004 53.1986 15.1828 52.825 14.7765C52.4514 14.3702 52.1712 13.8845 51.9797 13.3194C51.7882 12.7543 51.6948 12.1331 51.6948 11.4513C51.6948 10.8301 51.7929 10.237 51.9984 9.67656C52.1992 9.11613 52.4888 8.62575 52.8624 8.20076C53.236 7.77576 53.689 7.4395 54.2168 7.19198C54.7445 6.94446 55.3423 6.81836 56.0101 6.81836C56.7107 6.81836 57.3412 6.96314 57.8969 7.25269C58.4527 7.54225 58.9151 7.92521 59.284 8.39691C59.653 8.8686 59.9192 9.41969 60.0873 10.0362C60.2554 10.6526 60.2975 11.2878 60.2181 11.9463H53.6703V11.9416ZM58.2612 10.6713C58.2379 10.3678 58.1725 10.0735 58.0651 9.78865C57.9576 9.50843 57.8082 9.26091 57.6167 9.05074C57.4252 8.84058 57.1964 8.67245 56.9255 8.54169C56.6546 8.41092 56.3511 8.34554 56.0195 8.34554C55.6739 8.34554 55.361 8.40625 55.0808 8.523C54.8005 8.63976 54.5577 8.80789 54.3569 9.01338C54.1561 9.22354 53.9926 9.47107 53.8758 9.75128C53.7544 10.0362 53.689 10.3397 53.6797 10.6667H58.2612V10.6713Z" fill="#174282"/>
<path d="M60.8477 7.05654H62.7111V8.34554L62.7438 8.37823C63.0427 7.89252 63.435 7.50956 63.916 7.23401C64.3971 6.95847 64.9341 6.81836 65.5226 6.81836C66.4987 6.81836 67.2693 7.06588 67.8344 7.5656C68.3995 8.06532 68.6797 8.80789 68.6797 9.80266V15.8273H66.7135V10.3164C66.6902 9.62519 66.5407 9.12547 66.2652 8.81723C65.9896 8.50899 65.56 8.3502 64.9715 8.3502C64.6399 8.3502 64.341 8.41092 64.0748 8.52768C63.8086 8.64443 63.5844 8.81256 63.4023 9.01805C63.2202 9.22821 63.0754 9.47574 62.9726 9.75595C62.8699 10.0408 62.8185 10.3397 62.8185 10.6573V15.832H60.8523V7.05654H60.8477Z" fill="#174282"/>
<path d="M90.7759 23.0059H0V24.8086H90.7759V23.0059Z" fill="#174282"/>
<path d="M88.8466 8.17217L81.066 0.386846C80.5476 -0.131553 79.7023 -0.131553 79.1839 0.386846L71.4032 8.17217C71.3985 8.17684 71.3939 8.18151 71.3892 8.18618C70.712 8.88205 71.2397 10.0543 72.2112 10.0543H73.29V20.5577C73.29 20.8286 73.5095 21.0528 73.785 21.0528H78.1237V14.6125H82.1261V21.0481H86.4648C86.7357 21.0481 86.9598 20.8286 86.9598 20.553V10.0543H88.0854C88.6972 10.0543 89.2249 9.56391 89.2062 8.95211C89.1922 8.65788 89.0615 8.387 88.8466 8.17217Z" fill="#00ACFF"/>
</g>
<defs>
<clipPath id="clip0_297_1326">
<rect width="90.7759" height="24.8084" fill="white"/>
</clipPath>
</defs>
</svg>
