<svg width="120" height="120" viewBox="0 0 120 120" fill="none" xmlns="http://www.w3.org/2000/svg">
<path d="M94.6507 56.0154L89.1579 50.2001V33.5128C89.1579 32.7543 88.4088 31.9958 87.6598 31.9958H81.9173C81.1682 31.9958 80.4192 32.7543 80.4192 33.5128V41.098L61.1941 20.8709C60.9444 20.6181 60.6948 20.3652 60.1954 20.3652C59.6961 20.3652 59.4464 20.6181 59.1967 20.8709L25.9897 56.0154C25.4904 56.5211 25.4904 57.5324 25.9897 58.0381C26.2394 58.2909 26.7388 58.5438 26.9885 58.5438H31.233V98.2394C31.233 98.9979 31.982 99.7564 32.731 99.7564H52.9548H67.436H86.1617H88.4088H88.9082V58.5438H93.1527C93.9017 58.5438 94.6507 57.7853 94.6507 57.0268C94.9004 56.5211 94.9004 56.2682 94.6507 56.0154ZM83.4153 43.8792V35.0298H86.4114V47.1661L83.4153 44.132V43.8792ZM33.48 52.2228L58.6973 25.422C59.4464 24.6635 60.6948 24.6635 61.6935 25.422L86.9108 51.97C88.1592 53.2342 87.1605 55.5097 85.4127 55.5097H34.9781C33.2304 55.5097 32.4813 53.487 33.48 52.2228ZM65.938 96.4695H54.4529V72.9556H65.938V96.4695ZM68.9341 96.4695V71.4385C68.9341 70.68 68.1851 69.9215 67.436 69.9215H52.9548C52.2058 69.9215 51.4567 70.68 51.4567 71.4385V96.4695H33.9794V58.5438H86.1617V96.7223H68.9341V96.4695Z" fill="#174282"/>
</svg>
