<svg width="92" height="70" viewBox="0 0 92 70" fill="none" xmlns="http://www.w3.org/2000/svg">
<path d="M91.2779 15.9952C91.2779 14.7287 90.3094 13.7603 89.043 13.7603H80.6249C80.6249 13.6858 80.6249 13.6858 80.6249 13.6113V13.5368C80.5504 13.1643 80.4759 12.8663 80.3269 12.4939V12.4194C79.731 10.557 78.7625 8.84355 77.3471 7.50262C75.1122 5.26774 72.0579 4.00131 68.929 4.00131C68.8545 4.00131 68.8545 4.00131 68.7801 4.00131L64.9063 4.07581H63.4908C62.5224 1.98992 60.4365 0.5 57.9781 0.5C50.603 0.5 44.5688 6.53418 44.4943 13.9093V21.1354C44.4943 23.7428 45.4628 26.2011 47.3252 28.0635C49.1876 29.9259 51.646 30.8944 54.2533 30.8944C58.8721 30.8944 62.7459 27.6166 63.7143 23.2958C64.4593 23.5938 65.3532 23.8173 66.1727 23.8173H66.2472C68.4821 23.8173 70.568 22.6998 71.8344 20.8374L72.9518 19.1985C73.3988 18.6025 74.0693 18.2301 74.8142 18.2301H78.6135H86.8081C86.8081 18.677 86.8081 19.124 86.8081 19.6455V20.018C86.8081 23.5193 86.1376 25.9031 84.8712 27.1696C83.0833 28.9575 79.582 28.8085 75.8572 28.734C72.1324 28.6595 68.2586 28.5105 64.7573 30.1494C56.8607 33.8742 56.0412 50.3378 56.7117 63.4491C56.7117 63.8961 56.5627 64.3431 56.2647 64.6411C55.9667 64.9391 55.5198 65.1626 55.0728 65.1626C54.3278 65.1626 53.6574 64.6411 53.5084 63.8961C52.9869 61.7357 52.6889 60.9908 52.5399 60.5438C49.0386 52.0513 40.7695 46.5385 31.532 46.5385H31.0851C22.071 46.5385 14.0255 51.9768 10.6731 60.3203C10.5986 60.5438 10.3752 60.9908 9.70469 63.7471C9.4812 64.5666 8.73624 65.1626 7.84229 65.1626C7.02284 65.1626 6.57586 64.7156 6.35237 64.4176C6.12888 64.1196 5.8309 63.5981 5.97989 62.7787L8.06578 53.0942C8.21477 52.3492 8.36376 51.6043 8.51276 50.8593C9.6302 45.4956 10.6731 40.4299 13.8765 36.9286C14.6959 36.0346 14.6214 34.6192 13.7275 33.7997C12.8335 32.9803 11.4181 33.0548 10.5986 33.9487C6.57586 38.4185 5.38392 44.0057 4.19199 50.0399C4.04299 50.7848 3.894 51.4553 3.74501 52.2002L1.65912 61.8847C1.28664 63.8216 1.73362 65.7585 2.92555 67.2485C4.11749 68.7384 5.97989 69.6323 7.91679 69.6323C10.8221 69.6323 13.355 67.6954 14.1 64.8646C14.6959 62.5552 14.9194 62.0337 14.9194 61.9592C17.6013 55.2546 24.0079 51.0083 31.234 51.0083H31.681C39.1306 51.0083 45.7608 55.4036 48.5916 62.2572C48.6661 62.4807 48.8896 63.0767 49.3366 64.9391C50.007 67.6954 52.4654 69.6323 55.2963 69.6323C56.9352 69.6323 58.5741 68.9619 59.6915 67.6954C60.809 66.5035 61.4794 64.8646 61.3304 63.1512C60.362 47.2835 62.5224 36.1091 66.6942 34.1722C69.1525 32.9803 72.5049 33.1293 75.7082 33.2038C80.1779 33.3527 84.7967 33.4272 87.9255 30.3729C90.1604 28.2125 91.2034 24.7857 91.2034 20.018V19.6455C91.2779 17.4851 91.2779 15.9952 91.2779 15.9952ZM59.2446 21.1354C59.2446 24.0407 57.0842 26.4246 54.1788 26.4246C52.7634 26.4246 51.4225 25.9031 50.454 24.8602C49.4856 23.8918 48.8896 22.5508 48.8896 21.1354V13.9093C48.8896 8.99255 52.9124 4.96976 57.9036 4.96976C58.7231 4.96976 59.2446 5.64023 59.2446 6.45968V21.1354Z" fill="#174282"/>
<path d="M69.5995 38.3432C68.333 38.3432 67.3646 39.3117 67.3646 40.5781C67.3646 41.8445 68.333 42.813 69.5995 42.813C72.5793 42.813 75.3357 44.3774 76.8256 46.9103C77.5705 48.1022 77.0491 49.2197 76.8256 49.5921C76.6021 49.9646 75.9316 50.9331 74.5162 50.9331C73.6223 50.9331 72.8028 50.4861 72.2813 49.8156C71.5364 48.8472 70.1954 48.5492 69.1525 49.2941C68.1841 50.0391 67.8861 51.38 68.631 52.423C69.972 54.2854 72.1323 55.4028 74.4417 55.4028C77.0491 55.4028 79.3585 54.0619 80.6994 51.827C81.9658 49.5921 81.9658 46.9103 80.6249 44.6009C78.3155 40.8016 74.0692 38.3432 69.5995 38.3432ZM27.8072 57.9357C27.5092 56.7438 26.3173 55.9988 25.0509 56.2968C23.8589 56.5948 23.114 57.7867 23.4119 59.0531L24.7529 64.3424C24.8274 64.6403 24.6784 64.7893 24.6039 64.9383C24.5294 65.0873 24.5294 65.1618 24.2314 65.1618C22.965 65.1618 21.9965 66.1303 21.9965 67.3967C21.9965 68.6631 22.965 69.6316 24.2314 69.6316C25.7958 69.6316 27.2857 68.8866 28.2542 67.6202C29.2226 66.3537 29.5951 64.7148 29.1481 63.2249L27.8072 57.9357ZM18.7932 30.8936C19.6871 30.8936 20.5811 31.4151 20.9536 32.3091C21.6985 34.0225 23.114 35.5124 24.9764 36.3318C26.0193 36.7788 27.0622 37.0023 28.1797 37.0023C30.3401 37.0023 32.3515 36.1084 33.9159 34.4694L35.4058 32.905C36.5232 31.7131 38.1622 30.9681 39.8011 30.9681C40.993 30.9681 42.1104 30.0742 42.1849 28.8822C42.2594 27.6158 41.2165 26.4984 39.9501 26.4984H18.7932C14.3979 26.4984 10.4496 23.891 8.73623 19.7937L4.71344 10.0347C4.26646 9.0663 3.22352 8.39583 2.18058 8.61932C0.765151 8.9173 0.0201909 10.4072 0.541663 11.6737L4.63894 21.5071C7.02282 27.1688 12.61 30.8936 18.7932 30.8936Z" fill="#174282"/>
<path d="M68.9292 11.5254C68.3365 11.5254 67.768 11.7609 67.3489 12.18C66.9298 12.5991 66.6943 13.1675 66.6943 13.7603C66.6943 14.353 66.9298 14.9215 67.3489 15.3406C67.768 15.7597 68.3365 15.9952 68.9292 15.9952C69.5219 15.9952 70.0904 15.7597 70.5095 15.3406C70.9286 14.9215 71.1641 14.353 71.1641 13.7603C71.1641 13.1675 70.9286 12.5991 70.5095 12.18C70.0904 11.7609 69.5219 11.5254 68.9292 11.5254Z" fill="white"/>
</svg>
