<svg xmlns="http://www.w3.org/2000/svg" viewBox="0 0 192.12 192.12"><defs><style>.cls-1{fill:#036;}</style></defs><g id="Layer_2" data-name="Layer 2"><g id="Capa_1" data-name="Capa 1"><path class="cls-1" d="M96.06,192.12a96,96,0,0,1-67.92-164A96.05,96.05,0,1,1,133.45,184.57,95.46,95.46,0,0,1,96.06,192.12Zm0-178.42a82.09,82.09,0,1,0,32.06,6.47A81.92,81.92,0,0,0,96.06,13.7Z"/><ellipse class="cls-1" cx="61.2" cy="83.94" rx="13.17" ry="16.8"/><path class="cls-1" d="M96.06,155.61a45.81,45.81,0,0,1-40.65-24.68,6.85,6.85,0,0,1,12.15-6.33,32.12,32.12,0,0,0,57,0,6.85,6.85,0,1,1,12.15,6.33,45.81,45.81,0,0,1-40.65,24.68Z"/><path class="cls-1" d="M138.47,95.15A6.16,6.16,0,0,1,132.31,89a5.51,5.51,0,0,0-11,0A6.17,6.17,0,1,1,109,89a17.84,17.84,0,0,1,35.67,0A6.17,6.17,0,0,1,138.47,95.15Z"/></g></g></svg>