<svg xmlns="http://www.w3.org/2000/svg" viewBox="0 0 94.7 104.38"><defs><style>.cls-1,.cls-2,.cls-3{fill:none;stroke-miterlimit:10;stroke-width:7.57px;}.cls-1{stroke:#00346a;}.cls-2{stroke:#2e417b;}.cls-3{stroke:#009ceb;}</style></defs><g id="Layer_2" data-name="Layer 2"><g id="Capa_1" data-name="Capa 1"><path class="cls-1" d="M3.79,28.05A24.26,24.26,0,0,1,28.05,3.79V31.85H55.11"/><path class="cls-1" d="M28.05,3.79A24.26,24.26,0,0,0,3.79,28.05V78.91A21.68,21.68,0,0,0,25.47,100.6H69.23A21.69,21.69,0,0,0,90.92,78.91V28.05A24.26,24.26,0,0,0,66.66,3.79V25.52"/><path class="cls-1" d="M50.3,80.88l5.55-8a3.58,3.58,0,0,0-3-5.62H41.81a3.58,3.58,0,0,0-3,5.62l5.54,8A3.59,3.59,0,0,0,50.3,80.88Z"/><line class="cls-2" x1="47.35" y1="81.49" x2="47.35" y2="100.6"/><path class="cls-1" d="M19.73,55.27a5.53,5.53,0,1,1,11.06,0"/><path class="cls-1" d="M62.58,55.27a5.53,5.53,0,1,1,11.06,0"/><line class="cls-3" x1="24.71" y1="31.85" x2="55.11" y2="31.85"/></g></g></svg>