<svg width="91" height="25" viewBox="0 0 91 25" fill="none" xmlns="http://www.w3.org/2000/svg">
<g clip-path="url(#clip0_297_1446)">
<path d="M5.97659 6.96094C7.32101 6.96094 8.33393 7.27932 9.01534 7.9075C9.70597 8.54427 10.0467 9.43059 10.0467 10.5665C10.0467 11.7023 9.70597 12.5973 9.01534 13.234C8.32472 13.8708 7.3118 14.1892 5.97659 14.172H1.91571V19.1629H0.147705V6.96094H5.97659ZM5.37805 12.8124C6.38176 12.821 7.11842 12.6317 7.58805 12.2445C8.05768 11.8572 8.28788 11.2979 8.28788 10.5665C8.28788 9.83503 8.05768 9.28431 7.58805 8.89708C7.11842 8.50985 6.39096 8.32054 5.37805 8.32054H1.91571V12.8038H5.37805V12.8124Z" fill="#174282"/>
<path d="M17.7719 18.6123C17.0536 19.1114 16.142 19.361 15.0554 19.361C14.2819 19.361 13.6189 19.2491 13.0572 19.0168C12.4955 18.7845 12.0166 18.4661 11.6299 18.0616C11.2431 17.6486 10.9577 17.1581 10.7643 16.5902C10.5709 16.0222 10.4604 15.4027 10.442 14.7229C10.442 14.0517 10.5525 13.4321 10.7735 12.8728C10.9945 12.3134 11.3076 11.8316 11.7128 11.4185C12.1179 11.0055 12.5968 10.6871 13.1493 10.4633C13.7018 10.2396 14.3095 10.1191 14.9633 10.1191C15.8197 10.1191 16.5287 10.2826 17.0904 10.6096C17.6521 10.9366 18.1034 11.3497 18.4533 11.8488C18.794 12.3479 19.0334 12.8986 19.1623 13.4923C19.2912 14.0861 19.3465 14.654 19.3189 15.1875H12.1179C12.1087 15.5748 12.1548 15.9448 12.2653 16.289C12.3758 16.6332 12.5599 16.943 12.8086 17.2097C13.0572 17.4765 13.3703 17.6916 13.757 17.8551C14.1438 18.0186 14.595 18.096 15.1199 18.096C15.7921 18.096 16.3354 17.9498 16.7681 17.6658C17.2009 17.3818 17.4772 16.9516 17.6153 16.3664H19.1807C18.9597 17.3646 18.4901 18.1133 17.7719 18.6123ZM17.3943 12.933C17.2562 12.6232 17.0628 12.3565 16.8142 12.1413C16.5748 11.9176 16.2893 11.7455 15.9578 11.6078C15.6263 11.4787 15.2672 11.4099 14.8712 11.4099C14.4661 11.4099 14.0885 11.4787 13.7662 11.6078C13.4347 11.7369 13.1585 11.9176 12.9191 12.1499C12.6796 12.3823 12.4955 12.6404 12.3574 12.9416C12.2192 13.2428 12.1364 13.5698 12.1179 13.9054H17.6429C17.6153 13.5698 17.5324 13.2428 17.3943 12.933Z" fill="#174282"/>
<path d="M25.5709 10.334V11.6161H23.6556V17.1062C23.6556 17.2783 23.674 17.4159 23.7016 17.5192C23.7293 17.6225 23.7937 17.6999 23.8766 17.7601C23.9595 17.8204 24.0884 17.8548 24.2357 17.872C24.3923 17.8892 24.5949 17.8978 24.8435 17.8978H25.5709V19.18H24.3646C23.9595 19.18 23.6004 19.1542 23.3149 19.1025C23.0294 19.0509 22.79 18.9562 22.6059 18.8186C22.4217 18.6809 22.2928 18.4916 22.2099 18.2334C22.127 17.9839 22.081 17.6483 22.081 17.2438V11.6161H20.4419V10.334H22.081V7.68359H23.6648V10.334H25.5709Z" fill="#174282"/>
<path d="M29.5684 15.1103C29.5684 15.575 29.6513 15.9795 29.8262 16.3064C30.0012 16.6334 30.2406 16.9088 30.5537 17.1153C30.8668 17.3218 31.2167 17.4767 31.6219 17.58C32.027 17.6747 32.4598 17.7263 32.9295 17.7263C33.4359 17.7263 33.8687 17.6747 34.237 17.5628C34.5962 17.4509 34.8908 17.3132 35.1118 17.1411C35.3328 16.969 35.4986 16.7711 35.5999 16.5474C35.7012 16.3237 35.7472 16.0999 35.7472 15.8676C35.7472 15.4029 35.6367 15.0587 35.4065 14.835C35.1763 14.6112 34.9277 14.4564 34.6514 14.3617C34.1818 14.1982 33.6293 14.0519 33.0031 13.9056C32.377 13.7593 31.6035 13.5786 30.6826 13.3463C30.1117 13.2086 29.6329 13.0279 29.2553 12.8042C28.8778 12.5805 28.5739 12.3309 28.3529 12.0641C28.1319 11.7888 27.9754 11.4962 27.8741 11.195C27.7728 10.8939 27.736 10.5755 27.736 10.2571C27.736 9.63751 27.8741 9.1126 28.1595 8.65653C28.445 8.20047 28.8041 7.83045 29.2645 7.53787C29.725 7.2453 30.2406 7.02157 30.83 6.87528C31.4101 6.729 31.9994 6.66016 32.598 6.66016C33.2886 6.66016 33.9516 6.74621 34.5593 6.9097C35.1763 7.0732 35.7104 7.32275 36.18 7.64974C36.6496 7.97673 37.018 8.38978 37.285 8.87166C37.5613 9.35355 37.6902 9.92148 37.6902 10.5583H35.3605C35.296 9.7752 35.0105 9.21586 34.4857 8.88887C33.9608 8.56188 33.2978 8.39838 32.4967 8.39838C32.2204 8.39838 31.9442 8.4242 31.6587 8.47583C31.3732 8.52746 31.1154 8.61351 30.876 8.73398C30.6366 8.85445 30.4432 9.01795 30.2867 9.22447C30.1301 9.43099 30.0565 9.68914 30.0565 9.99032C30.0565 10.4206 30.2038 10.7648 30.4985 11.0057C30.7931 11.2553 31.1707 11.436 31.6403 11.5651C31.6863 11.5737 31.8889 11.6253 32.2296 11.7113C32.5703 11.7974 32.9479 11.892 33.3715 11.9953C33.795 12.0986 34.2094 12.2018 34.6054 12.2965C35.0105 12.3911 35.296 12.4686 35.471 12.5116C35.9038 12.6407 36.2813 12.8042 36.6036 13.0279C36.9259 13.243 37.1929 13.4926 37.4139 13.768C37.6349 14.0433 37.7915 14.3445 37.902 14.6629C38.0033 14.9813 38.0585 15.2997 38.0585 15.618C38.0585 16.2978 37.902 16.883 37.5981 17.3735C37.2942 17.8554 36.8983 18.2512 36.401 18.561C35.9038 18.8708 35.342 19.0945 34.7067 19.2408C34.0713 19.3871 33.4267 19.4559 32.7729 19.4559C32.0178 19.4559 31.2996 19.3699 30.6366 19.1978C29.9736 19.0257 29.3842 18.7675 28.887 18.4147C28.3897 18.0619 27.9938 17.6058 27.6991 17.0551C27.4045 16.5044 27.2479 15.8504 27.2295 15.0931H29.5684V15.1103Z" fill="#174282"/>
<path d="M48.3536 17.2109C48.3536 17.4519 48.3904 17.624 48.4549 17.7272C48.5194 17.8305 48.6575 17.8821 48.8509 17.8821C48.9153 17.8821 48.989 17.8821 49.0719 17.8821C49.1547 17.8821 49.256 17.8735 49.3665 17.8477V19.1987C49.2929 19.2245 49.1916 19.2503 49.0811 19.2762C48.9614 19.302 48.8417 19.3278 48.7219 19.3536C48.6022 19.3794 48.4733 19.3966 48.3536 19.4052C48.2339 19.4138 48.1234 19.4224 48.0405 19.4224C47.6077 19.4224 47.2486 19.345 46.9631 19.1815C46.6777 19.018 46.4935 18.7426 46.4014 18.3468C45.9779 18.7254 45.4622 19.0008 44.8452 19.1643C44.2283 19.3278 43.6389 19.4224 43.068 19.4224C42.6352 19.4224 42.2208 19.3708 41.8249 19.2589C41.4289 19.1471 41.079 18.9922 40.7751 18.7771C40.4713 18.5705 40.2318 18.2952 40.0477 17.9768C39.8635 17.6498 39.7806 17.2712 39.7806 16.8409C39.7806 16.2902 39.8911 15.8513 40.1029 15.5071C40.3239 15.1629 40.6094 14.8962 40.9593 14.7069C41.3092 14.5089 41.7052 14.3713 42.1472 14.2852C42.5892 14.1992 43.0312 14.1303 43.4732 14.0873C43.8599 14.0185 44.2191 13.9668 44.569 13.941C44.9189 13.9152 45.2228 13.8636 45.4898 13.7947C45.7569 13.7259 45.9686 13.6226 46.1252 13.4763C46.2817 13.3301 46.3554 13.1235 46.3554 12.831C46.3554 12.5814 46.2909 12.3749 46.162 12.2114C46.0331 12.0479 45.8674 11.9274 45.674 11.8414C45.4806 11.7553 45.2688 11.6951 45.0294 11.6693C44.79 11.6435 44.569 11.6262 44.3572 11.6262C43.7586 11.6262 43.2706 11.7381 42.8839 11.9704C42.4971 12.2028 42.2853 12.5556 42.2301 13.0289H40.1121C40.149 12.4609 40.2963 11.9877 40.5541 11.609C40.812 11.2304 41.1435 10.9292 41.5486 10.7055C41.9538 10.4818 42.405 10.3183 42.9207 10.2236C43.4271 10.129 43.952 10.0859 44.4861 10.0859C44.9557 10.0859 45.4254 10.129 45.8858 10.2236C46.3462 10.3183 46.7606 10.4646 47.1197 10.6711C47.488 10.8776 47.7827 11.1444 48.0037 11.4627C48.2247 11.7897 48.3352 12.1856 48.3352 12.6502V17.2109H48.3536ZM46.2265 14.7499C45.9042 14.9478 45.5082 15.0597 45.0386 15.1027C44.569 15.1457 44.0994 15.206 43.6205 15.2834C43.3995 15.3178 43.1785 15.3695 42.9667 15.4297C42.7549 15.4899 42.5708 15.576 42.405 15.6878C42.2393 15.7997 42.1196 15.9374 42.0275 16.1181C41.9354 16.2988 41.8894 16.5053 41.8894 16.7635C41.8894 16.9786 41.9538 17.1593 42.0919 17.3142C42.2301 17.4605 42.3958 17.581 42.5892 17.667C42.7826 17.7531 42.9944 17.8133 43.2246 17.8477C43.4548 17.8821 43.6666 17.8993 43.8507 17.8993C44.0901 17.8993 44.3388 17.8735 44.615 17.8133C44.8913 17.7531 45.1491 17.6584 45.3885 17.5207C45.6279 17.383 45.8305 17.2109 45.9963 16.9958C46.1528 16.7807 46.2357 16.5225 46.2357 16.2214V14.7499H46.2265Z" fill="#174282"/>
<path d="M50.1942 10.3353H51.7781V9.60386C51.7781 9.04453 51.8517 8.58846 51.9991 8.24425C52.1464 7.90005 52.349 7.62469 52.5976 7.44398C52.8462 7.26328 53.1317 7.1342 53.4448 7.06536C53.7578 6.99652 54.0893 6.9707 54.4393 6.9707C55.1207 6.9707 55.6179 7.01373 55.931 7.09117V8.60567C55.7929 8.57125 55.6456 8.54543 55.489 8.52822C55.3325 8.51101 55.1483 8.50241 54.9365 8.50241C54.6511 8.50241 54.4024 8.56264 54.1998 8.69172C53.9973 8.82079 53.896 9.06174 53.896 9.42315V10.3267H55.7008V11.7809H53.896V19.1727H51.7781V11.7895H50.1942V10.3353Z" fill="#174282"/>
<path d="M59.1821 15.2576C59.1821 15.6018 59.2374 15.9288 59.3387 16.2472C59.44 16.5656 59.6057 16.8495 59.8175 17.0819C60.0293 17.3142 60.2963 17.5121 60.6186 17.6584C60.9409 17.8047 61.3277 17.8735 61.7697 17.8735C62.3866 17.8735 62.8931 17.7531 63.2706 17.5035C63.6482 17.2626 63.9336 16.8925 64.1178 16.4021H66.1252C66.0147 16.8839 65.8214 17.3056 65.5451 17.6842C65.2689 18.0628 64.9466 18.3726 64.5598 18.6308C64.1731 18.8889 63.7403 19.0782 63.2706 19.2159C62.7918 19.345 62.2946 19.4138 61.7697 19.4138C61.0146 19.4138 60.3424 19.302 59.7623 19.0696C59.1821 18.8373 58.6849 18.5189 58.2797 18.1145C57.8745 17.7014 57.5707 17.2109 57.3681 16.643C57.1655 16.0751 57.0642 15.4469 57.0642 14.7585C57.0642 14.1303 57.1747 13.5366 57.3865 12.9686C57.6075 12.4007 57.9114 11.9102 58.3165 11.48C58.7217 11.0497 59.2098 10.7141 59.7807 10.4646C60.3516 10.215 60.9962 10.0859 61.7144 10.0859C62.4695 10.0859 63.1509 10.2322 63.7495 10.5248C64.348 10.8174 64.8545 11.2046 65.2504 11.6779C65.6464 12.1598 65.9319 12.7105 66.116 13.33C66.3002 13.9496 66.3462 14.595 66.2541 15.2576H59.1821ZM64.127 13.9754C64.0994 13.6656 64.0349 13.3731 63.9152 13.0891C63.7955 12.8051 63.639 12.5556 63.4272 12.3491C63.2154 12.1425 62.976 11.9704 62.6813 11.8328C62.3866 11.6951 62.0643 11.6349 61.7052 11.6349C61.3369 11.6349 60.9962 11.6951 60.6923 11.8156C60.3884 11.936 60.1306 12.0995 59.9096 12.3147C59.6886 12.5298 59.5228 12.7707 59.3847 13.0547C59.2558 13.3387 59.1821 13.6484 59.1729 13.9754H64.127Z" fill="#174282"/>
<path d="M90.7754 23.1211H-0.000488281V24.8077H90.7754V23.1211Z" fill="#174282"/>
<path d="M76.4937 9.732C78.2709 7.78725 81.3833 7.78725 83.1605 9.732C83.3262 9.9127 83.4552 10.1106 83.5657 10.3171L84.4036 11.9263C84.6154 12.3393 84.8917 12.7094 85.2232 13.045L86.982 14.8176C87.2214 15.0585 87.4148 15.3253 87.5437 15.6351C88.3632 17.5368 86.6412 19.6106 83.9524 19.7827C83.7406 19.7999 83.5288 19.7827 83.3262 19.7569L80.5085 19.3267C80.0573 19.2578 79.5969 19.2578 79.1365 19.3267L76.3187 19.7569C76.1069 19.7913 75.8951 19.7999 75.6925 19.7827C72.9945 19.6106 71.2817 17.5368 72.1013 15.6351C72.2302 15.3339 72.4328 15.0585 72.663 14.8176L74.4218 13.045C74.7533 12.718 75.0203 12.3393 75.2413 11.9263L76.0793 10.3171C76.199 10.1106 76.3279 9.9127 76.4937 9.732Z" fill="#00ACFF"/>
<path d="M90.4899 10.7303C89.8453 12.4943 88.2983 13.5613 87.0276 13.1139C85.7568 12.6664 85.2504 10.8766 85.8857 9.11252C86.5303 7.34848 88.0773 6.28145 89.3481 6.72891C90.6188 7.17638 91.1253 8.96623 90.4899 10.7303Z" fill="#00ACFF"/>
<path d="M69.1638 10.7303C69.8084 12.4943 71.3554 13.5613 72.6261 13.1139C73.8969 12.6664 74.4034 10.8766 73.768 9.11252C73.1234 7.34848 71.5764 6.28145 70.3056 6.72891C69.0349 7.17638 68.5284 8.96623 69.1638 10.7303Z" fill="#00ACFF"/>
<path d="M86.6136 4.60308C86.2729 6.89203 84.6522 8.55281 83.0039 8.31187C81.3556 8.07093 80.2966 6.02292 80.6466 3.73397C80.9873 1.44502 82.6079 -0.215759 84.2562 0.0251826C85.9045 0.266125 86.9543 2.31413 86.6136 4.60308Z" fill="#00ACFF"/>
<path d="M73.0394 4.60308C73.3801 6.89203 75.0007 8.55281 76.649 8.31187C78.2973 8.07093 79.3563 6.02292 79.0064 3.73397C78.6657 1.44502 77.045 -0.215759 75.3967 0.0251826C73.7576 0.266125 72.6986 2.31413 73.0394 4.60308Z" fill="#00ACFF"/>
</g>
<defs>
<clipPath id="clip0_297_1446">
<rect width="90.7759" height="24.8084" fill="white"/>
</clipPath>
</defs>
</svg>
