<svg width="412" height="52" viewBox="0 0 412 52" fill="none" xmlns="http://www.w3.org/2000/svg">
<g clip-path="url(#clip0_226_2028)">
<path d="M219.352 32.2871V51.9863" stroke="#003366" stroke-width="0.511667" stroke-miterlimit="10"/>
<path d="M219.352 0V19.4177" stroke="#003366" stroke-width="0.511667" stroke-miterlimit="10"/>
<path d="M219.028 28.5176H218.03V27.8707H218.011C217.869 28.1479 217.663 28.3482 217.392 28.4714C217.121 28.5884 216.834 28.647 216.532 28.647C216.157 28.647 215.827 28.5823 215.544 28.4529C215.266 28.3174 215.035 28.1356 214.851 27.9077C214.666 27.6797 214.527 27.4117 214.435 27.1037C214.342 26.7895 214.296 26.4537 214.296 26.0964C214.296 25.6651 214.355 25.2924 214.472 24.9782C214.589 24.664 214.743 24.4052 214.934 24.2019C215.131 23.9986 215.353 23.8508 215.599 23.7584C215.852 23.6598 216.107 23.6105 216.366 23.6105C216.514 23.6105 216.665 23.6259 216.819 23.6567C216.973 23.6814 217.121 23.7245 217.263 23.7861C217.404 23.8477 217.534 23.9278 217.651 24.0264C217.774 24.1188 217.876 24.2297 217.956 24.359H217.974V21.9194H219.028V28.5176ZM215.35 26.1796C215.35 26.3829 215.374 26.5831 215.424 26.7802C215.479 26.9774 215.559 27.153 215.664 27.307C215.775 27.461 215.913 27.5842 216.08 27.6766C216.246 27.769 216.443 27.8152 216.671 27.8152C216.905 27.8152 217.105 27.766 217.272 27.6674C217.444 27.5688 217.583 27.4394 217.688 27.2793C217.799 27.1191 217.879 26.9404 217.928 26.7433C217.983 26.54 218.011 26.3336 218.011 26.1241C218.011 25.5943 217.891 25.1815 217.651 24.8858C217.417 24.5901 217.096 24.4422 216.69 24.4422C216.443 24.4422 216.234 24.4946 216.061 24.5993C215.895 24.6979 215.756 24.8303 215.645 24.9967C215.541 25.1569 215.464 25.3417 215.414 25.5512C215.371 25.7545 215.35 25.9639 215.35 26.1796ZM223.457 25.7083C223.445 25.5419 223.408 25.3817 223.346 25.2277C223.291 25.0737 223.211 24.9412 223.106 24.8303C223.007 24.7133 222.884 24.6209 222.736 24.5531C222.595 24.4792 222.434 24.4422 222.256 24.4422C222.071 24.4422 221.902 24.4761 221.748 24.5439C221.6 24.6055 221.47 24.6948 221.359 24.8119C221.255 24.9228 221.168 25.0552 221.101 25.2092C221.039 25.3632 221.005 25.5296 220.999 25.7083H223.457ZM220.999 26.4013C220.999 26.5862 221.024 26.7648 221.073 26.9373C221.128 27.1098 221.208 27.2608 221.313 27.3902C221.418 27.5195 221.55 27.6243 221.711 27.7044C221.871 27.7783 222.062 27.8152 222.284 27.8152C222.592 27.8152 222.838 27.7506 223.023 27.6212C223.214 27.4856 223.356 27.2854 223.448 27.0205H224.446C224.391 27.2793 224.295 27.5103 224.159 27.7136C224.024 27.9169 223.861 28.0894 223.67 28.2311C223.479 28.3666 223.263 28.4683 223.023 28.5361C222.789 28.61 222.542 28.647 222.284 28.647C221.908 28.647 221.575 28.5853 221.285 28.4621C220.996 28.3389 220.749 28.1664 220.546 27.9446C220.349 27.7228 220.198 27.4579 220.093 27.1499C219.995 26.8418 219.946 26.503 219.946 26.1333C219.946 25.7945 219.998 25.4741 220.103 25.1723C220.213 24.8642 220.368 24.5962 220.565 24.3683C220.768 24.1342 221.011 23.9493 221.295 23.8138C221.578 23.6783 221.898 23.6105 222.256 23.6105C222.632 23.6105 222.967 23.6906 223.263 23.8508C223.565 24.0048 223.814 24.2112 224.012 24.4699C224.209 24.7287 224.35 25.0275 224.437 25.3663C224.529 25.699 224.554 26.044 224.511 26.4013H220.999Z" fill="#003366"/>
<path d="M411.815 45.2305H232.271V48.454H411.815V45.2305Z" fill="#003366"/>
<path d="M265.402 37.9656C266.553 36.3027 267.167 34.3839 267.167 32.3628C267.167 26.7345 262.792 22.3086 257.19 22.3086C251.587 22.3086 247.187 26.7089 247.187 32.3628C247.187 37.8377 251.664 42.3148 257.19 42.3148C259.62 42.3148 261.948 41.4449 263.765 39.8332L266.093 42.2892L267.909 40.4216L265.402 37.9656ZM257.164 39.2959C255.22 39.2959 253.634 38.6563 252.431 37.3516C251.178 36.0724 250.384 34.1537 250.384 32.3884C250.384 28.423 253.327 25.3274 257.062 25.3274C259.236 25.3274 260.797 26.0438 262.178 27.6043C263.304 28.9603 263.918 30.6488 263.918 32.3884C263.918 34.1793 263.151 36.0724 261.897 37.3772C260.669 38.6563 259.083 39.2959 257.164 39.2959Z" fill="#003366"/>
<path d="M323.911 22.3613C318.309 22.3613 313.908 26.7617 313.908 32.3644C313.908 37.8392 318.385 42.2652 323.911 42.2652C329.412 42.2652 333.863 37.8137 333.863 32.3644C333.863 26.7617 329.488 22.3613 323.911 22.3613ZM323.911 39.2975C322.018 39.2975 320.381 38.6323 319.178 37.3787C317.95 36.0996 317.132 34.1552 317.132 32.4156C317.132 28.4757 320.048 25.3802 323.809 25.3802C325.984 25.3802 327.544 26.0709 328.9 27.6571C330.026 28.9874 330.64 30.6759 330.64 32.4156C330.64 34.1552 329.847 36.1252 328.593 37.3787C327.416 38.6323 325.804 39.2975 323.911 39.2975Z" fill="#003366"/>
<path d="M292.342 22.5918H289.067V42.0351H292.342V22.5918Z" fill="#003366"/>
<path d="M308.843 42.0351L298.174 27.0177L298.149 42.0351H294.874V22.5918H298.302L308.817 37.2255V22.5918H312.117V42.0351H308.843Z" fill="#003366"/>
<path d="M286.509 36.023C286.509 37.865 285.818 39.1442 284.155 40.3466C282.441 41.6258 280.215 42.291 277.759 42.291C273.026 42.291 269.291 39.5024 269.291 36.023V22.5918H272.566V35.6137C272.566 37.0208 272.924 37.5069 273.947 38.2744C274.868 39.0163 276.48 39.3233 277.964 39.3233C279.32 39.3233 281.059 38.9651 281.955 38.2232C282.953 37.4301 283.234 37.1487 283.234 35.5881V22.5918H286.534V36.023H286.509Z" fill="#003366"/>
<path d="M344.762 25.3546C346.936 25.3546 348.497 26.0453 349.853 27.6315C350.134 27.9641 350.416 28.3478 350.646 28.7572L350.723 28.8851H354.228L354.1 28.5525C352.59 24.7917 348.958 22.3613 344.89 22.3613C339.287 22.3613 334.887 26.7617 334.887 32.3644C334.887 37.8392 339.364 42.2652 344.89 42.2652C348.906 42.2652 352.514 39.8603 354.074 36.1252L354.228 35.7926H350.697L350.62 35.9205C350.313 36.4833 349.955 36.9438 349.572 37.3532C348.395 38.6067 346.783 39.2719 344.89 39.2719C342.997 39.2719 341.359 38.6067 340.157 37.3532C338.903 36.074 338.11 34.1297 338.11 32.39C338.11 28.4502 341.027 25.3546 344.762 25.3546Z" fill="#003366"/>
<path d="M370.319 36.5345C370.089 36.8671 369.859 37.1485 369.628 37.3787C368.452 38.6323 366.84 39.2975 364.947 39.2975C363.053 39.2975 361.416 38.6323 360.214 37.3787C358.986 36.0996 358.167 34.1552 358.167 32.4156C358.167 28.4757 361.109 25.3802 364.844 25.3802C367.019 25.3802 368.579 26.0709 369.935 27.6571C370.089 27.8362 370.242 28.0408 370.396 28.2711L370.473 28.3734H374.08L373.901 28.0152C372.238 24.5359 368.81 22.3613 364.921 22.3613C359.318 22.3613 354.918 26.7617 354.918 32.3644C354.918 37.8392 359.395 42.2652 364.921 42.2652C368.707 42.2652 372.11 40.1673 373.824 36.7647L374.003 36.4066H370.37L370.319 36.5345Z" fill="#003366"/>
<path d="M378.89 22.5918H375.615V42.0351H378.89V22.5918Z" fill="#003366"/>
<path d="M400.124 42.0351V22.5918H403.399V39.4256H411.816V42.0351H400.124Z" fill="#003366"/>
<path d="M385.644 36.4324H393.268L395.596 42.0351H399.229L390.991 22.5918H387.844L379.632 41.984L379.606 42.0351H383.239L385.644 36.4324ZM389.482 26.634L392.066 33.567H386.872L389.482 26.634Z" fill="#003366"/>
<path d="M232.246 42.0087H246.854V39.4248H235.521V33.5918H232.246V42.0087Z" fill="#003366"/>
<path d="M235.521 25.174H246.854V22.5645H232.246V31.007H235.521V30.9046V25.174Z" fill="#003366"/>
<path d="M235.521 33.5917H245.013V31.0078H235.521V33.515V33.5917Z" fill="#039BE5"/>
<path d="M235.521 31.0078H232.246V33.6173H235.521V31.0078Z" fill="#1E2E57"/>
<path d="M233.858 16.5535C233.883 18.5234 235.725 19.0095 237.388 19.0095C239.128 19.0095 240.356 18.3444 240.356 17.1419C240.356 16.1442 239.563 15.7349 238.309 15.5302L235.828 15.1209C234.523 14.9162 232.579 14.3789 232.579 12.2555C232.579 10.26 234.165 8.92969 236.953 8.92969C239.154 8.92969 241.456 9.72277 241.61 12.3579H239.972C239.844 11.488 239.358 10.3368 236.723 10.3368C235.521 10.3368 234.19 10.8484 234.19 12.1276C234.19 12.7928 234.625 13.33 235.981 13.5603L238.668 14.0208C239.537 14.1743 241.968 14.5836 241.968 16.8349C241.968 19.6235 239.461 20.4166 237.26 20.4166C234.804 20.4166 232.246 19.5468 232.246 16.5279H233.858V16.5535Z" fill="#003366"/>
<path d="M243.604 9.21094H252.405V10.618H245.216V13.7904H252.175V15.1974H245.216V18.7535H252.559V20.1606H243.604V9.21094Z" fill="#003366"/>
<path d="M260.208 14.251H265.248V20.1608H264.071L263.79 18.6002C263.074 19.4444 261.897 20.4422 259.594 20.4422C255.22 20.4422 253.812 17.2699 253.812 14.865C253.812 10.6438 256.703 8.92969 259.543 8.92969C261.795 8.92969 264.353 9.64602 265.044 12.6649H263.33C262.818 11.1554 261.692 10.3624 259.62 10.3624C256.729 10.3624 255.45 12.409 255.45 14.7371C255.45 17.8327 257.42 19.0351 259.697 19.0351C262.076 19.0351 263.611 17.628 263.79 15.6837H260.208V14.251V14.251Z" fill="#003366"/>
<path d="M266.886 9.21094H268.523V16.2208C268.523 18.1907 269.828 19.0349 271.849 19.0349C273.844 19.0349 275.175 18.2163 275.175 16.2208V9.21094H276.787V16.0161C276.787 18.9326 275.175 20.442 271.849 20.442C268.523 20.442 266.886 18.9582 266.886 16.0161V9.21094Z" fill="#003366"/>
<path d="M278.399 9.21094H285.178C287.378 9.21094 288.171 10.7204 288.171 12.1274C288.171 13.4578 287.532 14.4299 286.329 14.8137V14.8393C287.302 14.9672 287.864 15.8882 287.916 17.1674C288.018 19.214 288.069 19.7001 288.427 20.135H286.713C286.457 19.828 286.457 19.3675 286.381 18.0628C286.278 16.0929 285.613 15.5044 284.257 15.5044H280.01V20.1606H278.373V9.21094H278.399ZM284.564 14.0974C286.15 14.0974 286.534 13.1252 286.534 12.3577C286.534 11.3088 285.895 10.618 284.59 10.618H280.01V14.0974H284.564V14.0974Z" fill="#003366"/>
<path d="M295.463 8.92969C299.863 8.92969 301.552 11.8718 301.552 14.6859C301.552 17.5001 299.863 20.4422 295.463 20.4422C291.063 20.4422 289.374 17.5001 289.374 14.6859C289.374 11.8974 291.063 8.92969 295.463 8.92969ZM295.463 10.3624C292.956 10.3624 291.011 11.795 291.011 14.7115C291.011 17.6024 292.981 19.0607 295.463 19.0607C297.97 19.0607 299.914 17.628 299.914 14.7115C299.94 11.795 297.97 10.3624 295.463 10.3624Z" fill="#003366"/>
<path d="M304.007 16.5535C304.033 18.5234 305.875 19.0095 307.538 19.0095C309.277 19.0095 310.505 18.3444 310.505 17.1419C310.505 16.1442 309.712 15.7349 308.459 15.5302L305.977 15.1209C304.672 14.9162 302.728 14.3789 302.728 12.2555C302.728 10.26 304.314 8.92969 307.103 8.92969C309.303 8.92969 311.606 9.72277 311.759 12.3579H310.147C310.019 11.488 309.508 10.3368 306.898 10.3368C305.696 10.3368 304.365 10.8484 304.365 12.1276C304.365 12.7928 304.8 13.33 306.156 13.5603L308.842 14.0208C309.712 14.1743 312.143 14.5836 312.143 16.8349C312.143 19.6235 309.636 20.4166 307.435 20.4166C304.979 20.4166 302.396 19.5468 302.396 16.5279H304.007V16.5535Z" fill="#003366"/>
<path d="M2.31971 13.4062H11.9343C13.4808 13.4062 14.7424 13.63 15.7191 14.0777C16.6958 14.5253 17.4487 15.0849 17.9777 15.7564C18.5068 16.4279 18.8629 17.1604 19.046 17.954C19.2495 18.7476 19.3513 19.4801 19.3513 20.1516C19.3513 20.8231 19.2495 21.5557 19.046 22.3493C18.8629 23.1225 18.5068 23.8449 17.9777 24.5164C17.4487 25.1878 16.6958 25.7474 15.7191 26.1951C14.7424 26.6224 13.4808 26.8361 11.9343 26.8361H6.13502V35.1992H2.31971V13.4062ZM6.13502 23.7228H11.7206C12.1479 23.7228 12.5854 23.6617 13.0331 23.5396C13.4808 23.4175 13.8877 23.2242 14.254 22.9597C14.6406 22.6748 14.9458 22.3086 15.1697 21.8609C15.4139 21.3929 15.5359 20.813 15.5359 20.1211C15.5359 19.4089 15.4342 18.8188 15.2307 18.3508C15.0272 17.8828 14.7525 17.5165 14.4066 17.252C14.0607 16.9671 13.6639 16.7738 13.2162 16.6721C12.7686 16.5703 12.2904 16.5195 11.7817 16.5195H6.13502V23.7228ZM22.2812 13.4062H25.7607V35.1992H22.2812V13.4062ZM42.7682 31.6891C42.7682 32.1164 42.8191 32.4217 42.9208 32.6048C43.0429 32.7879 43.2667 32.8795 43.5923 32.8795C43.694 32.8795 43.8161 32.8795 43.9586 32.8795C44.101 32.8795 44.2638 32.8592 44.4469 32.8185V35.2297C44.3248 35.2704 44.1621 35.3111 43.9586 35.3518C43.7754 35.4129 43.5821 35.4637 43.3786 35.5044C43.1752 35.5451 42.9717 35.5757 42.7682 35.596C42.5647 35.6164 42.3917 35.6265 42.2493 35.6265C41.5371 35.6265 40.947 35.4841 40.479 35.1992C40.011 34.9143 39.7058 34.4158 39.5633 33.7036C38.8715 34.3751 38.0169 34.8635 36.9994 35.1687C36.0024 35.4739 35.0358 35.6265 34.0998 35.6265C33.3876 35.6265 32.7059 35.5248 32.0548 35.3213C31.4037 35.1382 30.8237 34.8635 30.315 34.4972C29.8267 34.1106 29.4299 33.6324 29.1246 33.0626C28.8398 32.4725 28.6973 31.7909 28.6973 31.0176C28.6973 30.0409 28.8703 29.2473 29.2162 28.6369C29.5825 28.0264 30.0505 27.5483 30.6202 27.2023C31.2103 26.8564 31.8615 26.6122 32.5737 26.4698C33.3062 26.307 34.0388 26.1849 34.7713 26.1035C35.4021 25.9814 36.0024 25.9 36.5721 25.8593C37.1419 25.7983 37.6404 25.7067 38.0677 25.5846C38.5154 25.4625 38.8613 25.2794 39.1055 25.0352C39.37 24.7707 39.5023 24.3841 39.5023 23.8754C39.5023 23.4277 39.3904 23.0614 39.1665 22.7766C38.9631 22.4917 38.6985 22.278 38.373 22.1356C38.0677 21.9728 37.7218 21.8711 37.3352 21.8304C36.9486 21.7693 36.5823 21.7388 36.2364 21.7388C35.2597 21.7388 34.4559 21.9423 33.8251 22.3493C33.1943 22.7562 32.8382 23.387 32.7568 24.2416H29.2773C29.3383 23.2242 29.5825 22.3798 30.0098 21.7083C30.4371 21.0368 30.9763 20.4976 31.6275 20.0906C32.299 19.6836 33.0519 19.3987 33.8862 19.236C34.7204 19.0732 35.5751 18.9918 36.45 18.9918C37.2233 18.9918 37.9863 19.0732 38.7392 19.236C39.4921 19.3987 40.1636 19.6633 40.7537 20.0295C41.3642 20.3958 41.8525 20.874 42.2188 21.4641C42.5851 22.0339 42.7682 22.7359 42.7682 23.5702V31.6891ZM39.2886 27.2939C38.7596 27.6398 38.1084 27.8535 37.3352 27.9349C36.562 27.9959 35.7887 28.0977 35.0155 28.2401C34.6492 28.3011 34.2931 28.3927 33.9472 28.5148C33.6013 28.6165 33.2961 28.7691 33.0315 28.9726C32.767 29.1558 32.5533 29.4101 32.3906 29.7357C32.2481 30.0409 32.1769 30.4174 32.1769 30.865C32.1769 31.2516 32.2888 31.5772 32.5126 31.8417C32.7365 32.1063 33.001 32.3199 33.3062 32.4827C33.6318 32.6252 33.9777 32.7269 34.344 32.7879C34.7306 32.849 35.0765 32.8795 35.3818 32.8795C35.7684 32.8795 36.1855 32.8286 36.6332 32.7269C37.0808 32.6252 37.498 32.4522 37.8846 32.208C38.2916 31.9638 38.6273 31.6586 38.8918 31.2923C39.1564 30.9057 39.2886 30.4377 39.2886 29.8883V27.2939ZM46.5122 19.4191H49.8086V21.7388L49.8697 21.7999C50.3987 20.9249 51.0906 20.2432 51.9452 19.7548C52.7998 19.2461 53.746 18.9918 54.7838 18.9918C56.5134 18.9918 57.8767 19.4394 58.8738 20.3348C59.8709 21.2301 60.3694 22.5731 60.3694 24.3637V35.1992H56.8898V25.2794C56.8492 24.0382 56.5846 23.1428 56.0963 22.5934C55.6079 22.0237 54.8448 21.7388 53.8071 21.7388C53.217 21.7388 52.6879 21.8507 52.2199 22.0746C51.7519 22.278 51.3551 22.5731 51.0295 22.9597C50.704 23.326 50.4496 23.7635 50.2665 24.2722C50.0833 24.7809 49.9918 25.3201 49.9918 25.8899V35.1992H46.5122V19.4191Z" fill="#003366"/>
<path d="M203.848 43.875H2.5332V47.0729H203.848V43.875Z" fill="#003366"/>
<path d="M62.7269 19.1984H65.3213V17.8859C65.3213 16.8889 65.4434 16.0851 65.6875 15.4747C65.9317 14.8439 66.2573 14.3657 66.6643 14.0401C67.0712 13.6942 67.5291 13.4703 68.0378 13.3686C68.5668 13.2465 69.1162 13.1855 69.686 13.1855C70.8051 13.1855 71.6191 13.2567 72.1278 13.3991V16.1156C71.9039 16.0546 71.6598 16.0139 71.3952 15.9935C71.1511 15.9528 70.856 15.9325 70.5101 15.9325C70.0421 15.9325 69.6351 16.0444 69.2892 16.2682C68.9636 16.4921 68.8008 16.9296 68.8008 17.5807V19.1984H71.7615V21.7928H68.8008V34.9785H65.3213V21.7928H62.7269V19.1984ZM87.1274 31.4684C87.1274 31.8957 87.1783 32.201 87.28 32.3841C87.4021 32.5672 87.626 32.6588 87.9515 32.6588C88.0533 32.6588 88.1754 32.6588 88.3178 32.6588C88.4602 32.6588 88.623 32.6385 88.8062 32.5978V35.009C88.6841 35.0497 88.5213 35.0904 88.3178 35.1311C88.1347 35.1922 87.9414 35.243 87.7379 35.2837C87.5344 35.3244 87.3309 35.355 87.1274 35.3753C86.9239 35.3957 86.751 35.4058 86.6085 35.4058C85.8964 35.4058 85.3063 35.2634 84.8382 34.9785C84.3702 34.6936 84.065 34.1951 83.9226 33.4829C83.2307 34.1544 82.3761 34.6428 81.3587 34.948C80.3616 35.2532 79.3951 35.4058 78.459 35.4058C77.7469 35.4058 77.0652 35.3041 76.414 35.1006C75.7629 34.9175 75.183 34.6428 74.6743 34.2765C74.1859 33.8899 73.7891 33.4117 73.4839 32.8419C73.199 32.2518 73.0566 31.5702 73.0566 30.7969C73.0566 29.8202 73.2295 29.0266 73.5754 28.4162C73.9417 27.8057 74.4097 27.3275 74.9795 26.9816C75.5696 26.6357 76.2207 26.3915 76.9329 26.2491C77.6655 26.0863 78.398 25.9642 79.1305 25.8828C79.7613 25.7607 80.3616 25.6793 80.9314 25.6386C81.5011 25.5776 81.9997 25.486 82.427 25.3639C82.8746 25.2418 83.2205 25.0587 83.4647 24.8145C83.7293 24.55 83.8615 24.1634 83.8615 23.6547C83.8615 23.207 83.7496 22.8407 83.5258 22.5559C83.3223 22.271 83.0578 22.0573 82.7322 21.9149C82.427 21.7521 82.081 21.6504 81.6944 21.6097C81.3078 21.5486 80.9415 21.5181 80.5956 21.5181C79.6189 21.5181 78.8151 21.7216 78.1843 22.1286C77.5535 22.5355 77.1974 23.1663 77.1161 24.0209H73.6365C73.6975 23.0035 73.9417 22.1591 74.369 21.4876C74.7963 20.8161 75.3356 20.2769 75.9867 19.8699C76.6582 19.4629 77.4111 19.178 78.2454 19.0153C79.0797 18.8525 79.9343 18.7711 80.8093 18.7711C81.5825 18.7711 82.3456 18.8525 83.0985 19.0153C83.8513 19.178 84.5228 19.4426 85.1129 19.8088C85.7234 20.1751 86.2118 20.6533 86.578 21.2434C86.9443 21.8132 87.1274 22.5152 87.1274 23.3495V31.4684ZM83.6479 27.0732C83.1188 27.4191 82.4677 27.6328 81.6944 27.7142C80.9212 27.7752 80.148 27.877 79.3747 28.0194C79.0084 28.0804 78.6524 28.172 78.3064 28.2941C77.9605 28.3958 77.6553 28.5484 77.3908 28.7519C77.1262 28.9351 76.9126 29.1894 76.7498 29.515C76.6073 29.8202 76.5361 30.1967 76.5361 30.6443C76.5361 31.0309 76.648 31.3565 76.8719 31.621C77.0957 31.8856 77.3602 32.0992 77.6655 32.262C77.991 32.4045 78.337 32.5062 78.7032 32.5672C79.0898 32.6283 79.4358 32.6588 79.741 32.6588C80.1276 32.6588 80.5447 32.6079 80.9924 32.5062C81.4401 32.4045 81.8572 32.2315 82.2438 31.9873C82.6508 31.7431 82.9865 31.4379 83.2511 31.0716C83.5156 30.685 83.6479 30.217 83.6479 29.6676V27.0732ZM90.8714 19.1984H94.1679V21.396H94.2594C94.524 21.0094 94.8088 20.6533 95.1141 20.3277C95.4193 20.0022 95.755 19.7274 96.1213 19.5036C96.5079 19.2798 96.9454 19.1068 97.4338 18.9847C97.9221 18.8423 98.4817 18.7711 99.1125 18.7711C100.069 18.7711 100.954 18.9847 101.768 19.4121C102.602 19.8394 103.192 20.5007 103.538 21.396C104.128 20.5821 104.81 19.9411 105.583 19.4731C106.357 19.0051 107.323 18.7711 108.483 18.7711C110.151 18.7711 111.444 19.178 112.359 19.992C113.295 20.8059 113.763 22.1692 113.763 24.082V34.9785H110.284V25.7607C110.284 25.1299 110.263 24.5602 110.223 24.0515C110.182 23.5224 110.06 23.0747 109.856 22.7085C109.673 22.3219 109.388 22.0268 109.002 21.8233C108.615 21.6198 108.086 21.5181 107.415 21.5181C106.234 21.5181 105.38 21.8844 104.851 22.6169C104.322 23.3495 104.057 24.3872 104.057 25.7302V34.9785H100.578V24.8451C100.578 23.7462 100.374 22.9221 99.9671 22.3727C99.5805 21.803 98.8582 21.5181 97.8 21.5181C97.3524 21.5181 96.9149 21.6097 96.4876 21.7928C96.0806 21.9759 95.7143 22.2405 95.3888 22.5864C95.0835 22.9323 94.8292 23.3596 94.6257 23.8683C94.4426 24.377 94.351 24.957 94.351 25.6081V34.9785H90.8714V19.1984ZM117.521 13.1855H121.001V16.4819H117.521V13.1855ZM117.521 19.1984H121.001V34.9785H117.521V19.1984ZM124.883 13.1855H128.363V34.9785H124.883V13.1855ZM132.246 13.1855H135.725V16.4819H132.246V13.1855ZM132.246 19.1984H135.725V34.9785H132.246V19.1984ZM152.733 31.4684C152.733 31.8957 152.784 32.201 152.885 32.3841C153.008 32.5672 153.231 32.6588 153.557 32.6588C153.659 32.6588 153.781 32.6588 153.923 32.6588C154.066 32.6588 154.228 32.6385 154.412 32.5978V35.009C154.29 35.0497 154.127 35.0904 153.923 35.1311C153.74 35.1922 153.547 35.243 153.343 35.2837C153.14 35.3244 152.936 35.355 152.733 35.3753C152.529 35.3957 152.356 35.4058 152.214 35.4058C151.502 35.4058 150.912 35.2634 150.444 34.9785C149.976 34.6936 149.67 34.1951 149.528 33.4829C148.836 34.1544 147.982 34.6428 146.964 34.948C145.967 35.2532 145.001 35.4058 144.064 35.4058C143.352 35.4058 142.671 35.3041 142.019 35.1006C141.368 34.9175 140.788 34.6428 140.28 34.2765C139.791 33.8899 139.395 33.4117 139.089 32.8419C138.804 32.2518 138.662 31.5702 138.662 30.7969C138.662 29.8202 138.835 29.0266 139.181 28.4162C139.547 27.8057 140.015 27.3275 140.585 26.9816C141.175 26.6357 141.826 26.3915 142.538 26.2491C143.271 26.0863 144.003 25.9642 144.736 25.8828C145.367 25.7607 145.967 25.6793 146.537 25.6386C147.107 25.5776 147.605 25.486 148.032 25.3639C148.48 25.2418 148.826 25.0587 149.07 24.8145C149.335 24.55 149.467 24.1634 149.467 23.6547C149.467 23.207 149.355 22.8407 149.131 22.5559C148.928 22.271 148.663 22.0573 148.338 21.9149C148.032 21.7521 147.686 21.6504 147.3 21.6097C146.913 21.5486 146.547 21.5181 146.201 21.5181C145.224 21.5181 144.421 21.7216 143.79 22.1286C143.159 22.5355 142.803 23.1663 142.721 24.0209H139.242C139.303 23.0035 139.547 22.1591 139.974 21.4876C140.402 20.8161 140.941 20.2769 141.592 19.8699C142.264 19.4629 143.017 19.178 143.851 19.0153C144.685 18.8525 145.54 18.7711 146.415 18.7711C147.188 18.7711 147.951 18.8525 148.704 19.0153C149.457 19.178 150.128 19.4426 150.718 19.8088C151.329 20.1751 151.817 20.6533 152.183 21.2434C152.55 21.8132 152.733 22.5152 152.733 23.3495V31.4684ZM149.253 27.0732C148.724 27.4191 148.073 27.6328 147.3 27.7142C146.527 27.7752 145.753 27.877 144.98 28.0194C144.614 28.0804 144.258 28.172 143.912 28.2941C143.566 28.3958 143.261 28.5484 142.996 28.7519C142.732 28.9351 142.518 29.1894 142.355 29.515C142.213 29.8202 142.142 30.1967 142.142 30.6443C142.142 31.0309 142.253 31.3565 142.477 31.621C142.701 31.8856 142.966 32.0992 143.271 32.262C143.596 32.4045 143.942 32.5062 144.309 32.5672C144.695 32.6283 145.041 32.6588 145.346 32.6588C145.733 32.6588 146.15 32.6079 146.598 32.5062C147.046 32.4045 147.463 32.2315 147.849 31.9873C148.256 31.7431 148.592 31.4379 148.857 31.0716C149.121 30.685 149.253 30.217 149.253 29.6676V27.0732ZM156.477 19.1984H159.743V22.2506H159.804C159.906 21.8233 160.099 21.4062 160.384 20.9992C160.689 20.5923 161.045 20.226 161.452 19.9004C161.879 19.5545 162.347 19.2798 162.856 19.0763C163.365 18.8728 163.884 18.7711 164.413 18.7711C164.82 18.7711 165.094 18.7813 165.237 18.8016C165.4 18.8219 165.562 18.8423 165.725 18.8626V22.2201C165.481 22.1794 165.227 22.1489 164.962 22.1286C164.718 22.0879 164.474 22.0675 164.23 22.0675C163.639 22.0675 163.08 22.1896 162.551 22.4338C162.042 22.6576 161.594 23.0035 161.208 23.4715C160.821 23.9192 160.516 24.4788 160.292 25.1503C160.068 25.8218 159.956 26.595 159.956 27.47V34.9785H156.477V19.1984Z" fill="#039BE5"/>
<path d="M181.103 14.4544C183.011 14.4544 184.557 12.9081 184.557 11.0006C184.557 9.09317 183.011 7.54688 181.103 7.54688C179.196 7.54688 177.649 9.09317 177.649 11.0006C177.649 12.9081 179.196 14.4544 181.103 14.4544Z" fill="#039BE5"/>
<path d="M192.641 14.097C194.549 14.097 196.095 12.5507 196.095 10.6432C196.095 8.73575 194.549 7.18945 192.641 7.18945C190.734 7.18945 189.188 8.73575 189.188 10.6432C189.188 12.5507 190.734 14.097 192.641 14.097Z" fill="#039BE5"/>
<path d="M203.208 23.3823L197.605 15.6306C197.247 15.1445 196.709 14.8887 196.172 14.8887H189.572C189.111 14.8887 188.472 15.1957 188.165 15.5794L186.757 17.3958L185.376 15.5794C185.095 15.1957 184.455 14.8887 183.969 14.8887H177.061C176.447 14.9398 175.885 15.298 175.603 15.8864L171.484 24.508C171.049 25.4034 171.433 26.4523 172.328 26.8873C172.584 27.0152 172.84 27.0663 173.096 27.0663C173.761 27.0663 174.401 26.6826 174.708 26.043L177.266 20.6705L177.522 28.499C177.496 28.5502 177.496 28.6269 177.496 28.6781L176.089 38.4765C175.936 39.5766 176.703 40.6255 177.803 40.779C177.906 40.8046 178.008 40.8046 178.085 40.8046C179.082 40.8046 179.952 40.0627 180.106 39.0649L181.257 31.0318C181.283 30.9038 181.462 30.9038 181.487 31.0318L182.639 39.0649C182.792 40.165 183.841 40.9581 184.941 40.779C185.171 40.7534 185.376 40.6767 185.581 40.5743C185.606 40.5743 185.606 40.5488 185.632 40.5488C185.581 40.5232 185.555 40.4976 185.504 40.4464C185.402 40.3185 185.325 40.165 185.325 40.0115L184.992 35.867H184.532C184.353 35.867 184.199 35.7903 184.097 35.6623C183.969 35.5344 183.918 35.3298 183.943 35.1507L184.66 29.2153L184.762 28.3711L180.873 25.3778L179.057 23.9963C178.929 23.894 178.852 23.7405 178.827 23.587C178.801 23.4335 178.852 23.2544 178.955 23.1265C179.082 22.973 179.262 22.8963 179.441 22.8963C179.569 22.8963 179.696 22.9474 179.799 23.0242L183.534 24.7127C184.788 25.2755 186.118 25.5569 187.474 25.5569C188.83 25.5569 190.16 25.2755 191.414 24.7127L195.149 23.0242C195.251 22.9474 195.379 22.8963 195.507 22.8963C195.712 22.8963 195.891 22.973 195.993 23.1265C196.095 23.2544 196.147 23.4079 196.121 23.587C196.095 23.7405 196.019 23.894 195.891 23.9963L194.074 25.3778L190.007 28.5246L190.109 29.2153L191.004 35.1507C191.03 35.3298 190.979 35.5088 190.851 35.6623C190.748 35.7903 190.569 35.867 190.416 35.867H189.955L189.623 40.0115C189.597 40.1906 189.52 40.3697 189.393 40.4976C189.341 40.5488 189.29 40.5743 189.213 40.5999H189.239C189.265 40.5999 189.29 40.5999 189.316 40.5999C189.367 40.5999 189.393 40.5999 189.444 40.5999C190.339 40.5999 191.107 39.9092 191.209 39.0138L192.181 31.0318C192.181 30.9294 192.335 30.9294 192.36 31.0318L193.23 38.9882C193.307 39.9603 194.151 40.7023 195.149 40.6255C196.07 40.5488 196.786 39.7813 196.786 38.8603C196.786 38.8091 196.786 38.7579 196.786 38.7068L196.095 30.1108H198.347L196.991 20.824L200.342 25.4546C200.905 26.2477 202.031 26.4268 202.824 25.8639C203.31 25.5058 203.566 24.9685 203.566 24.4313C203.566 24.0475 203.438 23.6893 203.208 23.3823ZM187.448 25.0453C186.118 25.0453 185.018 23.9708 185.018 22.6148C185.018 21.2845 186.092 20.1844 187.448 20.1844C188.779 20.1844 189.879 21.2589 189.879 22.6148C189.853 23.9708 188.779 25.0453 187.448 25.0453Z" fill="#039BE5"/>
</g>
<defs>
<clipPath id="clip0_226_2028">
<rect width="411.815" height="51.9853" fill="white"/>
</clipPath>
</defs>
</svg>
