<svg width="50" height="50" viewBox="0 0 50 50" fill="none" xmlns="http://www.w3.org/2000/svg">
<path d="M28.5911 23.459H18.3276" stroke="#666666" stroke-width="1.46621" stroke-linecap="round" stroke-linejoin="round"/>
<path d="M23.4594 28.5916L18.3276 23.4598L23.4594 18.3281" stroke="#666666" stroke-width="1.46621" stroke-linecap="round" stroke-linejoin="round"/>
<path d="M23.4593 45.4524C11.3128 45.4524 1.46621 35.6057 1.46621 23.4593H-1.46621C-1.46621 37.2252 9.69331 48.3848 23.4593 48.3848V45.4524ZM45.4524 23.4593C45.4524 35.6057 35.6057 45.4524 23.4593 45.4524V48.3848C37.2252 48.3848 48.3848 37.2252 48.3848 23.4593H45.4524ZM23.4593 1.46621C35.6057 1.46621 45.4524 11.3128 45.4524 23.4593H48.3848C48.3848 9.69331 37.2252 -1.46621 23.4593 -1.46621V1.46621ZM23.4593 -1.46621C9.69331 -1.46621 -1.46621 9.69331 -1.46621 23.4593H1.46621C1.46621 11.3128 11.3128 1.46621 23.4593 1.46621V-1.46621Z" fill="#666666"/>
</svg>
