<svg xmlns="http://www.w3.org/2000/svg" viewBox="0 0 192.12 192.12"><defs><style>.cls-1{fill:#036;}</style></defs><g id="Layer_2" data-name="Layer 2"><g id="Capa_1" data-name="Capa 1"><path class="cls-1" d="M96.06,192.12a96,96,0,0,1-67.92-164A96.05,96.05,0,1,1,133.45,184.57,95.46,95.46,0,0,1,96.06,192.12Zm0-178.42a82.09,82.09,0,1,0,32.06,6.47A81.92,81.92,0,0,0,96.06,13.7Z"/><ellipse class="cls-1" cx="130.91" cy="83.94" rx="13.17" ry="16.8"/><ellipse class="cls-1" cx="61.2" cy="83.94" rx="13.17" ry="16.8"/><path class="cls-1" d="M127.7,141H64.42a6.85,6.85,0,0,1,0-13.7H127.7a6.85,6.85,0,1,1,0,13.7Z"/></g></g></svg>