<svg width="92" height="91" viewBox="0 0 92 91" fill="none" xmlns="http://www.w3.org/2000/svg">
<path d="M45.1271 0.974609C45.0261 0.976965 44.9254 0.987163 44.8259 1.00511C20.1929 1.17171 0.228516 21.2014 0.228516 45.8732C0.228516 70.6482 20.3521 90.7718 45.1271 90.7718C59.2667 90.7718 71.8915 84.2125 80.1203 73.9844C81.3064 74.7136 82.6849 75.1549 84.1694 75.1549C88.4583 75.1549 91.9778 71.6353 91.9778 67.3464C91.9778 62.9075 90.6099 59.3507 88.7294 56.5641C89.5691 53.1345 90.0257 49.5562 90.0257 45.8732C90.0257 21.0982 69.9021 0.974609 45.1271 0.974609ZM45.1271 4.87883C67.7924 4.87883 86.1215 23.2079 86.1215 45.8732C86.1215 48.2568 85.902 50.5854 85.5114 52.8543C85.1412 52.5201 84.77 52.1933 84.3981 51.9011C80.6656 48.9684 76.8985 47.9016 76.8985 47.9016C76.7102 47.8472 76.5149 47.8215 76.319 47.8253C76.0203 47.8319 75.7272 47.9068 75.4621 48.0445C75.197 48.1821 74.9671 48.3788 74.7899 48.6193C74.6128 48.8598 74.4932 49.1377 74.4403 49.4317C74.3875 49.7257 74.4028 50.0279 74.4851 50.315C74.4851 50.315 76.3609 56.8504 76.3609 67.3464C76.3609 68.7307 76.7571 70.0162 77.398 71.1477C69.8923 80.7164 58.2442 86.8676 45.1271 86.8676C22.4618 86.8676 4.13274 68.5385 4.13274 45.8732C4.13274 23.2079 22.4618 4.87883 45.1271 4.87883ZM27.5581 22.4478C21.0388 22.4478 16.4593 26.882 16.4593 26.882C16.2724 27.0578 16.122 27.2686 16.0167 27.5024C15.9113 27.7363 15.8531 27.9886 15.8452 28.245C15.8374 28.5013 15.8802 28.7567 15.9711 28.9966C16.062 29.2364 16.1992 29.456 16.375 29.6428C16.5508 29.8296 16.7616 29.9799 16.9955 30.0852C17.2294 30.1905 17.4817 30.2487 17.7381 30.2565C17.9945 30.2642 18.2499 30.2214 18.4897 30.1304C18.7295 30.0395 18.9491 29.9022 19.1358 29.7263C19.1358 29.7263 22.8488 26.3521 27.5581 26.3521C32.2674 26.3521 35.9804 29.7263 35.9804 29.7263C36.1671 29.9022 36.3867 30.0395 36.6265 30.1304C36.8663 30.2214 37.1217 30.2642 37.3781 30.2565C37.6345 30.2487 37.8868 30.1905 38.1207 30.0852C38.3546 29.9799 38.5654 29.8296 38.7412 29.6428C38.917 29.456 39.0542 29.2364 39.1451 28.9966C39.236 28.7567 39.2788 28.5013 39.2709 28.245C39.2631 27.9886 39.2049 27.7363 39.0995 27.5024C38.9942 27.2686 38.8438 27.0578 38.6569 26.882C38.6569 26.882 34.0774 22.4478 27.5581 22.4478ZM62.6961 22.4478C56.1768 22.4478 51.5973 26.882 51.5973 26.882C51.4105 27.0578 51.2601 27.2686 51.1547 27.5024C51.0494 27.7363 50.9911 27.9886 50.9833 28.245C50.9754 28.5013 51.0182 28.7567 51.1091 28.9966C51.2 29.2364 51.3372 29.456 51.513 29.6428C51.6888 29.8296 51.8996 29.9799 52.1335 30.0852C52.3674 30.1905 52.6197 30.2487 52.8761 30.2565C53.1325 30.2642 53.3879 30.2214 53.6277 30.1304C53.8675 30.0395 54.0871 29.9022 54.2738 29.7263C54.2738 29.7263 57.9869 26.3521 62.6961 26.3521C67.4031 26.3521 71.1146 29.7263 71.1146 29.7263C71.3014 29.9022 71.5209 30.0395 71.7607 30.1304C72.0005 30.2214 72.2559 30.2642 72.5123 30.2565C72.7687 30.2487 73.021 30.1905 73.2549 30.0852C73.4888 29.9799 73.6996 29.8296 73.8754 29.6428C74.0512 29.456 74.1884 29.2364 74.2793 28.9966C74.3702 28.7567 74.413 28.5013 74.4052 28.245C74.3973 27.9886 74.3391 27.7363 74.2337 27.5024C74.1284 27.2686 73.978 27.0578 73.7911 26.882C73.7911 26.882 69.2138 22.4478 62.6961 22.4478ZM21.6141 34.1643C21.4339 34.1715 21.2555 34.2036 21.0841 34.2597C21.0841 34.2597 17.8486 35.3322 14.633 37.8779C11.4173 40.4236 8.03697 44.6753 8.03697 50.7535C8.03697 51.2223 8.08644 51.679 8.17804 52.1222C8.81923 55.2246 11.5878 57.5859 14.8694 57.5859C15.3382 57.5859 15.7949 57.5364 16.2381 57.4448C18.4541 56.9868 20.2915 55.4442 21.1603 53.4033C21.5079 52.587 21.7018 51.6911 21.7018 50.7535C21.7018 49.799 21.7306 48.8623 21.7818 47.9549C22.1401 41.6032 23.5738 36.6579 23.5738 36.6579C23.66 36.3602 23.6741 36.0462 23.6149 35.742C23.5558 35.4378 23.425 35.1521 23.2335 34.9084C23.042 34.6648 22.7953 34.4702 22.5136 34.3408C22.232 34.2114 21.9237 34.1509 21.6141 34.1643ZM18.8384 39.9292C18.4474 42.0141 18.0558 44.6667 17.8852 47.6575C17.8284 48.6545 17.7975 49.6903 17.7975 50.7535C17.7975 52.1897 16.8138 53.3557 15.468 53.6245C15.2757 53.6628 15.0745 53.6816 14.8694 53.6816C13.228 53.6816 11.9412 52.3948 11.9412 50.7535C11.9412 50.1712 11.9789 49.6135 12.0518 49.0797C12.5618 45.3429 14.7473 42.7649 17.0579 40.9357C17.9518 40.228 18.0499 40.3726 18.8384 39.9292ZM45.1271 40.0169C34.6508 40.0169 28.5046 46.0029 25.3582 51.7715C22.2117 57.54 21.7094 63.2668 21.7094 63.2668C21.6827 63.5639 21.7243 63.8631 21.8313 64.1416C21.9382 64.42 22.1075 64.6703 22.3261 64.8731C22.5448 65.0759 22.807 65.226 23.0927 65.3117C23.3784 65.3974 23.6799 65.4166 23.9741 65.3676C23.9741 65.3676 35.6268 63.4422 45.1271 63.4422C54.6274 63.4422 66.2801 65.3676 66.2801 65.3676C66.5743 65.4166 66.8758 65.3974 67.1615 65.3117C67.4472 65.226 67.7094 65.0759 67.9281 64.8731C68.1468 64.6703 68.316 64.42 68.423 64.1416C68.5299 63.8631 68.5716 63.5639 68.5448 63.2668C68.5448 63.2668 68.0425 57.54 64.8961 51.7715C61.7496 46.0029 55.6034 40.0169 45.1271 40.0169ZM45.1271 43.9211C54.1719 43.9211 58.7624 48.6716 61.4722 53.6397C63.108 56.6386 63.8038 59.2209 64.1983 61.1393C60.9624 60.645 53.237 59.538 45.1271 59.538C37.0172 59.538 29.2918 60.645 26.0559 61.1393C26.4504 59.2209 27.1462 56.6386 28.782 53.6397C31.4918 48.6716 36.0823 43.9211 45.1271 43.9211ZM79.0489 53.1898C79.9881 53.6887 80.9146 54.1304 81.9885 54.9742C85.0883 57.4097 88.0736 61.1647 88.0736 67.3464C88.0736 69.5229 86.3458 71.2507 84.1694 71.2507C81.9929 71.2507 80.2651 69.5229 80.2651 67.3464C80.2651 60.7617 79.6328 56.2974 79.0489 53.1898Z" fill="#174282"/>
</svg>
