<svg width="206" height="39" viewBox="0 0 206 39" fill="none" xmlns="http://www.w3.org/2000/svg">
<path d="M37.8885 33.1479C39.1982 31.2664 39.8991 29.0528 39.8991 26.747C39.8991 20.3093 34.8818 15.2734 28.4993 15.2734C22.0985 15.2734 17.0811 20.3093 17.0811 26.747C17.0811 33.0188 22.2091 38.11 28.4993 38.11C31.2663 38.11 33.9225 37.0954 36.0254 35.2692L38.7001 38.0731L40.7661 35.9518L37.8885 33.1479ZM28.4809 34.679C26.2673 34.679 24.4596 33.9411 23.0761 32.4654C21.6373 30.9897 20.7519 28.813 20.7519 26.7839C20.7519 22.2646 24.1091 18.7229 28.3702 18.7229C30.8605 18.7229 32.6497 19.5345 34.1992 21.3238C35.472 22.8549 36.1914 24.7917 36.1914 26.7839C36.1914 28.813 35.306 30.9897 33.8672 32.4654C32.4837 33.9227 30.676 34.679 28.4809 34.679Z" fill="#003366"/>
<path d="M104.701 15.3301C98.3006 15.3301 93.2832 20.3475 93.2832 26.7668C93.2832 33.0017 98.4113 38.0928 104.701 38.0928C110.973 38.0928 116.064 33.0201 116.064 26.7668C116.083 20.3659 111.084 15.3301 104.701 15.3301ZM104.701 34.6618C102.543 34.6618 100.68 33.9055 99.2967 32.4667C97.8763 31.0094 96.954 28.7774 96.954 26.7852C96.954 22.2843 100.293 18.7426 104.572 18.7426C107.063 18.7426 108.852 19.5358 110.401 21.3436C111.674 22.8562 112.375 24.793 112.375 26.7852C112.375 28.7774 111.471 31.0094 110.051 32.4667C108.723 33.9055 106.878 34.6618 104.701 34.6618Z" fill="#003366"/>
<path d="M68.6391 15.5879H64.8945V37.7973H68.6391V15.5879Z" fill="#003366"/>
<path d="M87.5097 37.7973L75.3167 20.6422L75.2982 37.7973H71.5352V15.5879H75.4642L87.4728 32.3187V15.5879H91.2358V37.7973H87.5097Z" fill="#003366"/>
<path d="M61.98 30.9548C61.98 33.0576 61.1868 34.5333 59.2868 35.8984C57.313 37.3741 54.7859 38.1119 51.9636 38.1119C46.5588 38.1119 42.2793 34.9392 42.2793 30.9548V15.6074H46.0239V30.4752C46.0239 32.08 46.4482 32.6334 47.6103 33.5188C48.6617 34.3489 50.5064 34.7363 52.185 34.7363C53.7529 34.7363 55.7082 34.3304 56.7412 33.4819C57.8849 32.578 58.1985 32.246 58.1985 30.4752V15.6074H61.9615V30.9548H61.98Z" fill="#003366"/>
<path d="M128.534 18.7602C131.006 18.7602 132.814 19.5534 134.363 21.3612C134.695 21.7485 134.99 22.1912 135.267 22.6524L135.341 22.8H139.344L139.178 22.4126C137.444 18.1331 133.312 15.3477 128.645 15.3477C122.244 15.3477 117.227 20.3651 117.227 26.7844C117.227 33.0192 122.355 38.1104 128.645 38.1104C133.238 38.1104 137.37 35.3619 139.141 31.1008L139.307 30.7134H135.286L135.212 30.861C134.861 31.4882 134.455 32.0416 134.013 32.5027C132.666 33.9415 130.821 34.6978 128.645 34.6978C126.487 34.6978 124.624 33.9415 123.24 32.5027C121.82 31.0455 120.897 28.8135 120.897 26.8213C120.916 22.2835 124.273 18.7602 128.534 18.7602Z" fill="#003366"/>
<path d="M157.716 31.5262C157.458 31.8951 157.2 32.2087 156.942 32.4854C155.595 33.9242 153.75 34.6805 151.592 34.6805C149.434 34.6805 147.571 33.9242 146.187 32.4854C144.767 31.0281 143.863 28.7961 143.863 26.8039C143.863 22.303 147.202 18.7613 151.481 18.7613C153.953 18.7613 155.761 19.5545 157.292 21.3622C157.476 21.5652 157.642 21.805 157.827 22.0816L157.919 22.2108H162.033L161.848 21.805C159.967 17.8205 156.038 15.3672 151.592 15.3672C145.191 15.3672 140.174 20.3846 140.174 26.8039C140.174 33.0388 145.302 38.1299 151.592 38.1299C155.909 38.1299 159.801 35.7319 161.756 31.8582L161.959 31.4339H157.809L157.716 31.5262Z" fill="#003366"/>
<path d="M167.511 15.5879H163.767V37.7973H167.511V15.5879Z" fill="#003366"/>
<path d="M191.749 37.7973V15.5879H195.494V34.8274H205.104V37.7973H191.749Z" fill="#003366"/>
<path d="M175.203 31.3964H183.928L186.603 37.7973H190.753L181.346 15.5879H177.767L168.396 37.7419L168.378 37.7973H172.528L175.203 31.3964ZM179.593 20.2179L182.545 28.1498H176.623L179.593 20.2179Z" fill="#003366"/>
<path d="M0 37.7785H16.6939V34.8086H3.7446V28.168H0V37.7785Z" fill="#003366"/>
<path d="M3.7446 18.5586H16.6939V15.5703H0V25.1993H3.7446V25.1071V18.5586Z" fill="#003366"/>
<path d="M3.74414 28.1691H14.609V25.1992H3.74414V28.0768V28.1691Z" fill="#00ACFF"/>
<path d="M3.7446 25.1992H0V28.1691H3.7446V25.1992Z" fill="#00ACFF"/>
<path d="M1.86308 8.70666C1.89997 10.9571 4.00285 11.5289 5.88438 11.5289C7.85813 11.5289 9.26005 10.7726 9.26005 9.40762C9.26005 8.26395 8.35618 7.80279 6.93582 7.56299L4.09508 7.08339C2.60093 6.82514 0.387373 6.23486 0.387373 3.79994C0.387373 1.53104 2.19511 0 5.38633 0C7.89502 0 10.5328 0.922316 10.6989 3.92907H8.85423C8.70666 2.95141 8.13483 1.60483 5.14652 1.60483C3.7815 1.60483 2.25045 2.17667 2.25045 3.65237C2.25045 4.42712 2.7485 5.03584 4.29799 5.29409L7.36008 5.81059C8.33774 5.99505 11.1231 6.45621 11.1231 9.02025C11.1231 12.2115 8.26395 13.1153 5.75525 13.1153C2.91452 13.1338 0 12.1561 0 8.70666H1.86308Z" fill="#003366"/>
<path d="M12.9863 0.314453H23.0396V1.91928H14.8494V5.55321H22.7813V7.15804H14.8494V11.1978H23.2056V12.8211H12.9863V0.314453Z" fill="#003366"/>
<path d="M31.9493 6.06971H37.6861V12.8026H36.3579L36.0444 11.0133C35.2143 11.9725 33.8861 13.1162 31.2483 13.1162C26.2494 13.1162 24.6445 9.50072 24.6445 6.75222C24.6445 1.91929 27.9649 -0.0175781 31.193 -0.0175781C33.7755 -0.0175781 36.69 0.79406 37.4832 4.24352H35.5279C34.956 2.50957 33.6463 1.6057 31.2852 1.6057C27.9833 1.6057 26.5076 3.94838 26.5076 6.60465C26.5076 10.1463 28.7581 11.5114 31.3774 11.5114C34.089 11.5114 35.8599 9.90654 36.0444 7.67454H31.9493V6.06971Z" fill="#003366"/>
<path d="M39.5674 0.314453H41.4305V8.30171C41.4305 10.5522 42.9431 11.5114 45.2304 11.5114C47.5177 11.5114 49.0303 10.5706 49.0303 8.30171V0.314453H50.8934V8.08035C50.8934 11.4191 49.0303 13.1162 45.2488 13.1162C41.4489 13.1162 39.5858 11.4191 39.5858 8.08035V0.314453H39.5674Z" fill="#003366"/>
<path d="M52.7383 0.314453H60.4673C62.976 0.314453 63.8799 2.04841 63.8799 3.63479C63.8799 5.14739 63.142 6.27261 61.777 6.71533V6.75222C62.8838 6.89979 63.5294 7.93278 63.6032 9.40849C63.7138 11.7327 63.7692 12.323 64.1934 12.8026H62.2381C61.943 12.4521 61.943 11.9356 61.8508 10.423C61.7216 8.19103 60.9838 7.49007 59.4343 7.49007H54.6014V12.8026H52.7383V0.314453ZM59.7848 5.90369C61.611 5.90369 62.0352 4.79691 62.0352 3.92993C62.0352 2.74937 61.3158 1.93773 59.8217 1.93773H54.6014V5.90369H59.7848Z" fill="#003366"/>
<path d="M72.217 0C77.2344 0 79.1712 3.35723 79.1712 6.56689C79.1712 9.77655 77.2528 13.1338 72.217 13.1338C67.1996 13.1338 65.2627 9.77655 65.2627 6.56689C65.2811 3.35723 67.1996 0 72.217 0ZM72.217 1.60483C69.3578 1.60483 67.1258 3.24655 67.1258 6.56689C67.1258 9.86878 69.3762 11.5289 72.217 11.5289C75.0761 11.5289 77.3081 9.88723 77.3081 6.56689C77.3266 3.265 75.0761 1.60483 72.217 1.60483Z" fill="#003366"/>
<path d="M81.9754 8.70666C82.0123 10.9571 84.1152 11.5289 85.9967 11.5289C87.9704 11.5289 89.3724 10.7726 89.3724 9.40762C89.3724 8.26395 88.4685 7.80279 87.0481 7.56299L84.2074 7.08339C82.7132 6.84358 80.4997 6.2533 80.4997 3.79994C80.4997 1.53104 82.3074 0 85.4986 0C88.0073 0 90.6452 0.922316 90.8296 3.92907H88.9665C88.8005 2.95141 88.2471 1.62328 85.2588 1.62328C83.8938 1.62328 82.3443 2.19511 82.3443 3.67082C82.3443 4.44556 82.8608 5.05429 84.3918 5.31254L87.4539 5.82904C88.4316 6.0135 91.217 6.47466 91.217 9.0387C91.217 12.2299 88.3763 13.1338 85.8491 13.1338C83.0268 13.1338 80.1123 12.1561 80.1123 8.70666H81.9754Z" fill="#003366"/>
</svg>
