<svg xmlns="http://www.w3.org/2000/svg" viewBox="0 0 192.12 192.12"><defs><style>.cls-1{fill:#036;}</style></defs><g id="Layer_2" data-name="Layer 2"><g id="Capa_1" data-name="Capa 1"><path class="cls-1" d="M96.06,192.12a96,96,0,0,1-67.92-164A96.05,96.05,0,1,1,133.45,184.57,95.46,95.46,0,0,1,96.06,192.12Zm0-178.42a82.09,82.09,0,1,0,32.06,6.47A81.92,81.92,0,0,0,96.06,13.7Z"/><ellipse class="cls-1" cx="130.91" cy="83.94" rx="13.17" ry="16.8"/><ellipse class="cls-1" cx="61.2" cy="83.94" rx="13.17" ry="16.8"/><path class="cls-1" d="M61.48,151.5a6.86,6.86,0,0,1-6.07-10,45.82,45.82,0,0,1,81.3,0,6.85,6.85,0,0,1-12.15,6.33,32.13,32.13,0,0,0-57,0A6.84,6.84,0,0,1,61.48,151.5Z"/></g></g></svg>